<?xml version="1.0" encoding="UTF-8"?>
<svg id="Layer_1" data-name="Layer 1" xmlns="http://www.w3.org/2000/svg" viewBox="0 0 260.65 200">
  <defs>
    <style>
      .cls-1 {
        fill-rule: evenodd;
      }

      .cls-1, .cls-2 {
        fill: #fff;
        stroke-width: 0px;
      }
    </style>
  </defs>
  <g>
    <path class="cls-2" d="M44.71,173.07c-1.36-1.37-2.97-2.42-4.81-3.13-1.84-.71-3.82-1.07-5.92-1.07-1.99,0-3.67.33-5.03.99-1.36.66-2.51,1.53-3.45,2.62-.94,1.08-1.72,2.31-2.33,3.68-.61,1.37-1.17,2.78-1.66,4.22-.49,1.44-.97,2.85-1.43,4.22-.46,1.37-1,2.6-1.63,3.69-.62,1.08-1.38,1.96-2.26,2.61-.88.66-1.99.99-3.34.99-1.05,0-2.03-.19-2.93-.57s-1.69-.94-2.36-1.69c-.67-.75-1.2-1.68-1.59-2.8-.39-1.12-.59-2.4-.59-3.85,0-1.54.19-2.85.57-3.94.38-1.08.8-2.01,1.26-2.78.46-.77.88-1.41,1.26-1.91.38-.5.57-.94.57-1.33,0-.35-.08-.65-.25-.87-.17-.22-.42-.44-.75-.64l-3.08-1.57c-1.61,1.65-2.84,3.59-3.68,5.8-.85,2.21-1.27,4.66-1.27,7.34,0,2.39.37,4.51,1.1,6.35.74,1.84,1.72,3.39,2.95,4.64,1.23,1.25,2.63,2.21,4.22,2.87,1.59.66,3.23.99,4.93.99,2.12,0,3.91-.33,5.35-.99,1.44-.66,2.64-1.52,3.6-2.6.96-1.07,1.74-2.3,2.35-3.67.6-1.37,1.13-2.78,1.59-4.22.46-1.44.91-2.85,1.34-4.22.44-1.37.97-2.6,1.59-3.67.63-1.07,1.4-1.94,2.33-2.6.93-.66,2.12-.99,3.57-.99,1.32,0,2.51.22,3.59.67,1.07.45,1.99,1.09,2.76,1.93.77.84,1.37,1.86,1.79,3.07.42,1.21.64,2.58.64,4.12,0,1.85-.25,3.43-.75,4.71-.5,1.28-1.06,2.38-1.66,3.28-.61.91-1.16,1.66-1.66,2.26-.5.61-.75,1.14-.75,1.61,0,.31.08.6.25.86.17.26.37.47.62.65l3.08,1.88c1.92-1.81,3.44-3.99,4.57-6.55,1.13-2.56,1.69-5.39,1.69-8.5,0-2.55-.39-4.82-1.17-6.82-.78-2-1.85-3.68-3.22-5.06Z"/>
    <path class="cls-2" d="M41.86,113.17l-2.78,2.55c-.29.29-.43.61-.43.97s.17.73.5,1.11c.76.85,1.41,1.69,1.96,2.53.55.84,1,1.74,1.36,2.72.36.97.62,2.03.79,3.17.17,1.14.25,2.42.25,3.85,0,2.35-.43,4.54-1.27,6.57-.85,2.03-2.08,3.79-3.7,5.28-1.62,1.49-3.6,2.66-5.95,3.52-2.35.86-5.02,1.29-8.01,1.29s-5.53-.43-7.88-1.29c-2.35-.86-4.33-2.06-5.96-3.6-1.63-1.54-2.89-3.38-3.77-5.51-.88-2.14-1.32-4.49-1.32-7.06,0-1.43.11-2.69.32-3.79.21-1.09.47-2.05.79-2.88.31-.83.65-1.54,1-2.15.36-.6.69-1.13,1.01-1.57.31-.45.58-.83.79-1.16.21-.32.32-.63.32-.92,0-.38-.07-.67-.22-.87-.14-.2-.33-.38-.55-.53l-2.98-2.11c-1.88,1.99-3.36,4.26-4.46,6.82-1.09,2.56-1.64,5.6-1.64,9.13s.6,6.84,1.79,9.8c1.19,2.96,2.88,5.5,5.04,7.62,2.17,2.12,4.76,3.77,7.78,4.94,3.02,1.17,6.34,1.76,9.95,1.76s6.94-.55,9.95-1.64c3.02-1.09,5.6-2.64,7.76-4.63,2.16-1.99,3.83-4.39,5.03-7.21,1.2-2.81,1.79-5.95,1.79-9.42,0-3.95-.64-7.33-1.91-10.14-1.27-2.8-3.05-5.19-5.33-7.15Z"/>
    <path class="cls-2" d="M48.56,95.04c0-.56-.16-1.03-.47-1.41-.31-.38-.67-.65-1.07-.8l-11.6-4.49v-21.55l11.6-4.49c.45-.18.82-.45,1.1-.8.29-.36.44-.83.44-1.41v-5.03L.53,74.26v6.6l48.02,19.2v-5.03ZM30.73,86.53l-19.51-7.54c-.58-.22-1.26-.45-2.03-.69-.77-.23-1.61-.47-2.53-.72,1.81-.47,3.32-.95,4.52-1.44l19.54-7.54v17.93Z"/>
    <path class="cls-2" d="M48.56,33.25H14.34c-.45,0-.94.01-1.48.03-.53.02-1.08.06-1.64.1L47.39,5.6c.43-.34.73-.67.91-1.02.18-.35.27-.78.27-1.29V0H.53v5.7h34.02c.51,0,1.04-.01,1.59-.03.55-.02,1.11-.07,1.69-.13L1.64,33.35c-.45.36-.74.68-.89.95-.14.28-.22.71-.22,1.29v3.35h48.02v-5.7Z"/>
  </g>
  <g>
    <g>
      <path class="cls-2" d="M69.8,40.91h25.69c4.2,0,7.61-3.41,7.61-7.61V7.61c0-4.2-3.41-7.61-7.61-7.61h-25.69c-4.2,0-7.61,3.41-7.61,7.61v25.69c0,4.2,3.41,7.61,7.61,7.61ZM64.57,7.61c0-2.89,2.35-5.23,5.23-5.23h25.69c2.89,0,5.23,2.35,5.23,5.23v25.69c0,2.89-2.35,5.23-5.23,5.23h-25.69c-2.89,0-5.23-2.35-5.23-5.23V7.61Z"/>
      <rect class="cls-2" x="73.01" y="10.82" width="19.26" height="19.26" rx="3.21" ry="3.21"/>
    </g>
    <g>
      <path class="cls-2" d="M227.36,40.91h25.69c4.2,0,7.61-3.41,7.61-7.61V7.61c0-4.2-3.41-7.61-7.61-7.61h-25.69c-4.2,0-7.61,3.41-7.61,7.61v25.69c0,4.2,3.41,7.61,7.61,7.61ZM222.13,7.61c0-2.89,2.35-5.23,5.23-5.23h25.69c2.89,0,5.23,2.35,5.23,5.23v25.69c0,2.89-2.35,5.23-5.23,5.23h-25.69c-2.89,0-5.23-2.35-5.23-5.23V7.61Z"/>
      <rect class="cls-2" x="230.57" y="10.82" width="19.26" height="19.26" rx="3.21" ry="3.21"/>
    </g>
    <g>
      <path class="cls-2" d="M69.8,198.46h25.69c4.2,0,7.61-3.41,7.61-7.61v-25.69c0-4.2-3.41-7.61-7.61-7.61h-25.69c-4.2,0-7.61,3.41-7.61,7.61v25.69c0,4.2,3.41,7.61,7.61,7.61ZM64.57,165.17c0-2.89,2.35-5.23,5.23-5.23h25.69c2.89,0,5.23,2.35,5.23,5.23v25.69c0,2.89-2.35,5.23-5.23,5.23h-25.69c-2.89,0-5.23-2.35-5.23-5.23v-25.69Z"/>
      <rect class="cls-2" x="73.01" y="168.38" width="19.26" height="19.26" rx="3.21" ry="3.21"/>
    </g>
    <g>
      <path id="Path-3" class="cls-1" d="M138.01,96.1c14.58-6.35,24.3-10.54,29.16-12.56,13.89-5.78,16.77-6.78,18.65-6.81.41,0,1.34.1,1.94.58.51.41.65.96.71,1.35s.15,1.28.08,1.97c-.75,7.91-4.01,27.09-5.66,35.95-.7,3.75-2.08,5-3.42,5.13-2.9.27-5.11-1.92-7.92-3.76-4.4-2.88-6.89-4.68-11.16-7.5-4.94-3.25-1.74-5.04,1.08-7.96.74-.76,13.53-12.4,13.78-13.46.03-.13.06-.62-.23-.88s-.72-.17-1.04-.1c-.44.1-7.47,4.75-21.09,13.94-2,1.37-3.8,2.04-5.42,2-1.79-.04-5.22-1.01-7.77-1.84-3.13-1.02-5.62-1.56-5.4-3.28.11-.9,1.35-1.82,3.72-2.76Z"/>
      <g>
        <path class="cls-2" d="M112.94,0h0c1.26,0,2.27,1.02,2.27,2.27h0c0,1.26-1.02,2.27-2.27,2.27h0c-1.26,0-2.27-1.02-2.27-2.27h0c0-1.26,1.02-2.27,2.27-2.27Z"/>
        <path class="cls-2" d="M119,0h0c1.26,0,2.27,1.02,2.27,2.27h0c0,1.26-1.02,2.27-2.27,2.27h0c-1.26,0-2.27-1.02-2.27-2.27h0c0-1.26,1.02-2.27,2.27-2.27Z"/>
        <path class="cls-2" d="M131.12,0h0c1.26,0,2.27,1.02,2.27,2.27h0c0,1.26-1.02,2.27-2.27,2.27h0c-1.26,0-2.27-1.02-2.27-2.27h0c0-1.26,1.02-2.27,2.27-2.27Z"/>
        <path class="cls-2" d="M137.18,0h0c1.26,0,2.27,1.02,2.27,2.27h0c0,1.26-1.02,2.27-2.27,2.27h0c-1.26,0-2.27-1.02-2.27-2.27h0c0-1.26,1.02-2.27,2.27-2.27Z"/>
        <path class="cls-2" d="M143.24,0h0c1.26,0,2.27,1.02,2.27,2.27h0c0,1.26-1.02,2.27-2.27,2.27h0c-1.26,0-2.27-1.02-2.27-2.27h0c0-1.26,1.02-2.27,2.27-2.27Z"/>
        <path class="cls-2" d="M161.42,0h0c1.26,0,2.27,1.02,2.27,2.27h0c0,1.26-1.02,2.27-2.27,2.27h0c-1.26,0-2.27-1.02-2.27-2.27h0c0-1.26,1.02-2.27,2.27-2.27Z"/>
        <path class="cls-2" d="M173.54,0h0c1.26,0,2.27,1.02,2.27,2.27h0c0,1.26-1.02,2.27-2.27,2.27h0c-1.26,0-2.27-1.02-2.27-2.27h0c0-1.26,1.02-2.27,2.27-2.27Z"/>
        <path class="cls-2" d="M185.66,0h0c1.26,0,2.27,1.02,2.27,2.27h0c0,1.26-1.02,2.27-2.27,2.27h0c-1.26,0-2.27-1.02-2.27-2.27h0c0-1.26,1.02-2.27,2.27-2.27Z"/>
        <path class="cls-2" d="M197.78,0h0c1.26,0,2.27,1.02,2.27,2.27h0c0,1.26-1.02,2.27-2.27,2.27h0c-1.26,0-2.27-1.02-2.27-2.27h0c0-1.26,1.02-2.27,2.27-2.27Z"/>
        <path class="cls-2" d="M209.9,0h0c1.26,0,2.27,1.02,2.27,2.27h0c0,1.26-1.02,2.27-2.27,2.27h0c-1.26,0-2.27-1.02-2.27-2.27h0c0-1.26,1.02-2.27,2.27-2.27Z"/>
        <path class="cls-2" d="M131.12,6.06h0c1.26,0,2.27,1.02,2.27,2.27h0c0,1.26-1.02,2.27-2.27,2.27h0c-1.26,0-2.27-1.02-2.27-2.27h0c0-1.26,1.02-2.27,2.27-2.27Z"/>
        <path class="cls-2" d="M149.3,6.06h0c1.26,0,2.27,1.02,2.27,2.27h0c0,1.26-1.02,2.27-2.27,2.27h0c-1.26,0-2.27-1.02-2.27-2.27h0c0-1.26,1.02-2.27,2.27-2.27Z"/>
        <path class="cls-2" d="M161.42,6.06h0c1.26,0,2.27,1.02,2.27,2.27h0c0,1.26-1.02,2.27-2.27,2.27h0c-1.26,0-2.27-1.02-2.27-2.27h0c0-1.26,1.02-2.27,2.27-2.27Z"/>
        <path class="cls-2" d="M173.54,6.06h0c1.26,0,2.27,1.02,2.27,2.27h0c0,1.26-1.02,2.27-2.27,2.27h0c-1.26,0-2.27-1.02-2.27-2.27h0c0-1.26,1.02-2.27,2.27-2.27Z"/>
        <path class="cls-2" d="M179.6,6.06h0c1.26,0,2.27,1.02,2.27,2.27h0c0,1.26-1.02,2.27-2.27,2.27h0c-1.26,0-2.27-1.02-2.27-2.27h0c0-1.26,1.02-2.27,2.27-2.27Z"/>
        <path class="cls-2" d="M209.9,6.06h0c1.26,0,2.27,1.02,2.27,2.27h0c0,1.26-1.02,2.27-2.27,2.27h0c-1.26,0-2.27-1.02-2.27-2.27h0c0-1.26,1.02-2.27,2.27-2.27Z"/>
        <path class="cls-2" d="M112.94,12.12h0c1.26,0,2.27,1.02,2.27,2.27h0c0,1.26-1.02,2.27-2.27,2.27h0c-1.26,0-2.27-1.02-2.27-2.27h0c0-1.26,1.02-2.27,2.27-2.27Z"/>
        <path class="cls-2" d="M119,12.12h0c1.26,0,2.27,1.02,2.27,2.27h0c0,1.26-1.02,2.27-2.27,2.27h0c-1.26,0-2.27-1.02-2.27-2.27h0c0-1.26,1.02-2.27,2.27-2.27Z"/>
        <path class="cls-2" d="M137.18,12.12h0c1.26,0,2.27,1.02,2.27,2.27h0c0,1.26-1.02,2.27-2.27,2.27h0c-1.26,0-2.27-1.02-2.27-2.27h0c0-1.26,1.02-2.27,2.27-2.27Z"/>
        <path class="cls-2" d="M173.54,12.12h0c1.26,0,2.27,1.02,2.27,2.27h0c0,1.26-1.02,2.27-2.27,2.27h0c-1.26,0-2.27-1.02-2.27-2.27h0c0-1.26,1.02-2.27,2.27-2.27Z"/>
        <path class="cls-2" d="M185.66,12.12h0c1.26,0,2.27,1.02,2.27,2.27h0c0,1.26-1.02,2.27-2.27,2.27h0c-1.26,0-2.27-1.02-2.27-2.27h0c0-1.26,1.02-2.27,2.27-2.27Z"/>
        <path class="cls-2" d="M191.72,12.12h0c1.26,0,2.27,1.02,2.27,2.27h0c0,1.26-1.02,2.27-2.27,2.27h0c-1.26,0-2.27-1.02-2.27-2.27h0c0-1.26,1.02-2.27,2.27-2.27Z"/>
        <path class="cls-2" d="M197.78,12.12h0c1.26,0,2.27,1.02,2.27,2.27h0c0,1.26-1.02,2.27-2.27,2.27h0c-1.26,0-2.27-1.02-2.27-2.27h0c0-1.26,1.02-2.27,2.27-2.27Z"/>
        <path class="cls-2" d="M203.84,12.12h0c1.26,0,2.27,1.02,2.27,2.27h0c0,1.26-1.02,2.27-2.27,2.27h0c-1.26,0-2.27-1.02-2.27-2.27h0c0-1.26,1.02-2.27,2.27-2.27Z"/>
        <path class="cls-2" d="M209.9,12.12h0c1.26,0,2.27,1.02,2.27,2.27h0c0,1.26-1.02,2.27-2.27,2.27h0c-1.26,0-2.27-1.02-2.27-2.27h0c0-1.26,1.02-2.27,2.27-2.27Z"/>
        <path class="cls-2" d="M119,18.18h0c1.26,0,2.27,1.02,2.27,2.27h0c0,1.26-1.02,2.27-2.27,2.27h0c-1.26,0-2.27-1.02-2.27-2.27h0c0-1.26,1.02-2.27,2.27-2.27Z"/>
        <path class="cls-2" d="M143.24,18.18h0c1.26,0,2.27,1.02,2.27,2.27h0c0,1.26-1.02,2.27-2.27,2.27h0c-1.26,0-2.27-1.02-2.27-2.27h0c0-1.26,1.02-2.27,2.27-2.27Z"/>
        <path class="cls-2" d="M155.36,18.18h0c1.26,0,2.27,1.02,2.27,2.27h0c0,1.26-1.02,2.27-2.27,2.27h0c-1.26,0-2.27-1.02-2.27-2.27h0c0-1.26,1.02-2.27,2.27-2.27Z"/>
        <path class="cls-2" d="M167.48,18.18h0c1.26,0,2.27,1.02,2.27,2.27h0c0,1.26-1.02,2.27-2.27,2.27h0c-1.26,0-2.27-1.02-2.27-2.27h0c0-1.26,1.02-2.27,2.27-2.27Z"/>
        <path class="cls-2" d="M179.6,18.18h0c1.26,0,2.27,1.02,2.27,2.27h0c0,1.26-1.02,2.27-2.27,2.27h0c-1.26,0-2.27-1.02-2.27-2.27h0c0-1.26,1.02-2.27,2.27-2.27Z"/>
        <path class="cls-2" d="M185.66,18.18h0c1.26,0,2.27,1.02,2.27,2.27h0c0,1.26-1.02,2.27-2.27,2.27h0c-1.26,0-2.27-1.02-2.27-2.27h0c0-1.26,1.02-2.27,2.27-2.27Z"/>
        <path class="cls-2" d="M203.84,18.18h0c1.26,0,2.27,1.02,2.27,2.27h0c0,1.26-1.02,2.27-2.27,2.27h0c-1.26,0-2.27-1.02-2.27-2.27h0c0-1.26,1.02-2.27,2.27-2.27Z"/>
        <path class="cls-2" d="M209.9,18.18h0c1.26,0,2.27,1.02,2.27,2.27h0c0,1.26-1.02,2.27-2.27,2.27h0c-1.26,0-2.27-1.02-2.27-2.27h0c0-1.26,1.02-2.27,2.27-2.27Z"/>
        <path class="cls-2" d="M112.94,24.24h0c1.26,0,2.27,1.02,2.27,2.27h0c0,1.26-1.02,2.27-2.27,2.27h0c-1.26,0-2.27-1.02-2.27-2.27h0c0-1.26,1.02-2.27,2.27-2.27Z"/>
        <path class="cls-2" d="M119,24.24h0c1.26,0,2.27,1.02,2.27,2.27h0c0,1.26-1.02,2.27-2.27,2.27h0c-1.26,0-2.27-1.02-2.27-2.27h0c0-1.26,1.02-2.27,2.27-2.27Z"/>
        <path class="cls-2" d="M131.12,24.24h0c1.26,0,2.27,1.02,2.27,2.27h0c0,1.26-1.02,2.27-2.27,2.27h0c-1.26,0-2.27-1.02-2.27-2.27h0c0-1.26,1.02-2.27,2.27-2.27Z"/>
        <path class="cls-2" d="M149.3,24.24h0c1.26,0,2.27,1.02,2.27,2.27h0c0,1.26-1.02,2.27-2.27,2.27h0c-1.26,0-2.27-1.02-2.27-2.27h0c0-1.26,1.02-2.27,2.27-2.27Z"/>
        <path class="cls-2" d="M155.36,24.24h0c1.26,0,2.27,1.02,2.27,2.27h0c0,1.26-1.02,2.27-2.27,2.27h0c-1.26,0-2.27-1.02-2.27-2.27h0c0-1.26,1.02-2.27,2.27-2.27Z"/>
        <path class="cls-2" d="M161.42,24.24h0c1.26,0,2.27,1.02,2.27,2.27h0c0,1.26-1.02,2.27-2.27,2.27h0c-1.26,0-2.27-1.02-2.27-2.27h0c0-1.26,1.02-2.27,2.27-2.27Z"/>
        <path class="cls-2" d="M179.6,24.24h0c1.26,0,2.27,1.02,2.27,2.27h0c0,1.26-1.02,2.27-2.27,2.27h0c-1.26,0-2.27-1.02-2.27-2.27h0c0-1.26,1.02-2.27,2.27-2.27Z"/>
        <path class="cls-2" d="M185.66,24.24h0c1.26,0,2.27,1.02,2.27,2.27h0c0,1.26-1.02,2.27-2.27,2.27h0c-1.26,0-2.27-1.02-2.27-2.27h0c0-1.26,1.02-2.27,2.27-2.27Z"/>
        <path class="cls-2" d="M191.72,24.24h0c1.26,0,2.27,1.02,2.27,2.27h0c0,1.26-1.02,2.27-2.27,2.27h0c-1.26,0-2.27-1.02-2.27-2.27h0c0-1.26,1.02-2.27,2.27-2.27Z"/>
        <path class="cls-2" d="M203.84,24.24h0c1.26,0,2.27,1.02,2.27,2.27h0c0,1.26-1.02,2.27-2.27,2.27h0c-1.26,0-2.27-1.02-2.27-2.27h0c0-1.26,1.02-2.27,2.27-2.27Z"/>
        <path class="cls-2" d="M119,30.3h0c1.26,0,2.27,1.02,2.27,2.27h0c0,1.26-1.02,2.27-2.27,2.27h0c-1.26,0-2.27-1.02-2.27-2.27h0c0-1.26,1.02-2.27,2.27-2.27Z"/>
        <path class="cls-2" d="M137.18,30.3h0c1.26,0,2.27,1.02,2.27,2.27h0c0,1.26-1.02,2.27-2.27,2.27h0c-1.26,0-2.27-1.02-2.27-2.27h0c0-1.26,1.02-2.27,2.27-2.27Z"/>
        <path class="cls-2" d="M143.24,30.3h0c1.26,0,2.27,1.02,2.27,2.27h0c0,1.26-1.02,2.27-2.27,2.27h0c-1.26,0-2.27-1.02-2.27-2.27h0c0-1.26,1.02-2.27,2.27-2.27Z"/>
        <path class="cls-2" d="M149.3,30.3h0c1.26,0,2.27,1.02,2.27,2.27h0c0,1.26-1.02,2.27-2.27,2.27h0c-1.26,0-2.27-1.02-2.27-2.27h0c0-1.26,1.02-2.27,2.27-2.27Z"/>
        <path class="cls-2" d="M173.54,30.3h0c1.26,0,2.27,1.02,2.27,2.27h0c0,1.26-1.02,2.27-2.27,2.27h0c-1.26,0-2.27-1.02-2.27-2.27h0c0-1.26,1.02-2.27,2.27-2.27Z"/>
        <path class="cls-2" d="M185.66,30.3h0c1.26,0,2.27,1.02,2.27,2.27h0c0,1.26-1.02,2.27-2.27,2.27h0c-1.26,0-2.27-1.02-2.27-2.27h0c0-1.26,1.02-2.27,2.27-2.27Z"/>
        <path class="cls-2" d="M197.78,30.3h0c1.26,0,2.27,1.02,2.27,2.27h0c0,1.26-1.02,2.27-2.27,2.27h0c-1.26,0-2.27-1.02-2.27-2.27h0c0-1.26,1.02-2.27,2.27-2.27Z"/>
        <path class="cls-2" d="M209.9,30.3h0c1.26,0,2.27,1.02,2.27,2.27h0c0,1.26-1.02,2.27-2.27,2.27h0c-1.26,0-2.27-1.02-2.27-2.27h0c0-1.26,1.02-2.27,2.27-2.27Z"/>
        <rect class="cls-2" x="110.67" y="36.36" width="4.55" height="4.55" rx="2.27" ry="2.27"/>
        <path class="cls-2" d="M125.06,36.36h0c1.26,0,2.27,1.02,2.27,2.27h0c0,1.26-1.02,2.27-2.27,2.27h0c-1.26,0-2.27-1.02-2.27-2.27h0c0-1.26,1.02-2.27,2.27-2.27Z"/>
        <path class="cls-2" d="M137.18,36.36h0c1.26,0,2.27,1.02,2.27,2.27h0c0,1.26-1.02,2.27-2.27,2.27h0c-1.26,0-2.27-1.02-2.27-2.27h0c0-1.26,1.02-2.27,2.27-2.27Z"/>
        <path class="cls-2" d="M149.3,36.36h0c1.26,0,2.27,1.02,2.27,2.27h0c0,1.26-1.02,2.27-2.27,2.27h0c-1.26,0-2.27-1.02-2.27-2.27h0c0-1.26,1.02-2.27,2.27-2.27Z"/>
        <path class="cls-2" d="M161.42,36.36h0c1.26,0,2.27,1.02,2.27,2.27h0c0,1.26-1.02,2.27-2.27,2.27h0c-1.26,0-2.27-1.02-2.27-2.27h0c0-1.26,1.02-2.27,2.27-2.27Z"/>
        <path class="cls-2" d="M173.54,36.36h0c1.26,0,2.27,1.02,2.27,2.27h0c0,1.26-1.02,2.27-2.27,2.27h0c-1.26,0-2.27-1.02-2.27-2.27h0c0-1.26,1.02-2.27,2.27-2.27Z"/>
        <path class="cls-2" d="M185.66,36.36h0c1.26,0,2.27,1.02,2.27,2.27h0c0,1.26-1.02,2.27-2.27,2.27h0c-1.26,0-2.27-1.02-2.27-2.27h0c0-1.26,1.02-2.27,2.27-2.27Z"/>
        <path class="cls-2" d="M197.78,36.36h0c1.26,0,2.27,1.02,2.27,2.27h0c0,1.26-1.02,2.27-2.27,2.27h0c-1.26,0-2.27-1.02-2.27-2.27h0c0-1.26,1.02-2.27,2.27-2.27Z"/>
        <path class="cls-2" d="M209.9,36.36h0c1.26,0,2.27,1.02,2.27,2.27h0c0,1.26-1.02,2.27-2.27,2.27h0c-1.26,0-2.27-1.02-2.27-2.27h0c0-1.26,1.02-2.27,2.27-2.27Z"/>
        <path class="cls-2" d="M112.94,42.42h0c1.26,0,2.27,1.02,2.27,2.27h0c0,1.26-1.02,2.27-2.27,2.27h0c-1.26,0-2.27-1.02-2.27-2.27h0c0-1.26,1.02-2.27,2.27-2.27Z"/>
        <path class="cls-2" d="M137.18,42.42h0c1.26,0,2.27,1.02,2.27,2.27h0c0,1.26-1.02,2.27-2.27,2.27h0c-1.26,0-2.27-1.02-2.27-2.27h0c0-1.26,1.02-2.27,2.27-2.27Z"/>
        <path class="cls-2" d="M143.24,42.42h0c1.26,0,2.27,1.02,2.27,2.27h0c0,1.26-1.02,2.27-2.27,2.27h0c-1.26,0-2.27-1.02-2.27-2.27h0c0-1.26,1.02-2.27,2.27-2.27Z"/>
        <path class="cls-2" d="M155.36,42.42h0c1.26,0,2.27,1.02,2.27,2.27h0c0,1.26-1.02,2.27-2.27,2.27h0c-1.26,0-2.27-1.02-2.27-2.27h0c0-1.26,1.02-2.27,2.27-2.27Z"/>
        <path class="cls-2" d="M161.42,42.42h0c1.26,0,2.27,1.02,2.27,2.27h0c0,1.26-1.02,2.27-2.27,2.27h0c-1.26,0-2.27-1.02-2.27-2.27h0c0-1.26,1.02-2.27,2.27-2.27Z"/>
        <path class="cls-2" d="M173.54,42.42h0c1.26,0,2.27,1.02,2.27,2.27h0c0,1.26-1.02,2.27-2.27,2.27h0c-1.26,0-2.27-1.02-2.27-2.27h0c0-1.26,1.02-2.27,2.27-2.27Z"/>
        <path class="cls-2" d="M94.76,48.48h0c1.26,0,2.27,1.02,2.27,2.27h0c0,1.26-1.02,2.27-2.27,2.27h0c-1.26,0-2.27-1.02-2.27-2.27h0c0-1.26,1.02-2.27,2.27-2.27Z"/>
        <rect class="cls-2" x="98.55" y="48.48" width="4.55" height="4.55" rx="2.27" ry="2.27"/>
        <rect class="cls-2" x="116.73" y="48.48" width="4.55" height="4.55" rx="2.27" ry="2.27"/>
        <path class="cls-2" d="M125.06,48.48h0c1.26,0,2.27,1.02,2.27,2.27h0c0,1.26-1.02,2.27-2.27,2.27h0c-1.26,0-2.27-1.02-2.27-2.27h0c0-1.26,1.02-2.27,2.27-2.27Z"/>
        <path class="cls-2" d="M131.12,48.48h0c1.26,0,2.27,1.02,2.27,2.27h0c0,1.26-1.02,2.27-2.27,2.27h0c-1.26,0-2.27-1.02-2.27-2.27h0c0-1.26,1.02-2.27,2.27-2.27Z"/>
        <path class="cls-2" d="M149.3,48.48h0c1.26,0,2.27,1.02,2.27,2.27h0c0,1.26-1.02,2.27-2.27,2.27h0c-1.26,0-2.27-1.02-2.27-2.27h0c0-1.26,1.02-2.27,2.27-2.27Z"/>
        <path class="cls-2" d="M155.36,48.48h0c1.26,0,2.27,1.02,2.27,2.27h0c0,1.26-1.02,2.27-2.27,2.27h0c-1.26,0-2.27-1.02-2.27-2.27h0c0-1.26,1.02-2.27,2.27-2.27Z"/>
        <path class="cls-2" d="M161.42,48.48h0c1.26,0,2.27,1.02,2.27,2.27h0c0,1.26-1.02,2.27-2.27,2.27h0c-1.26,0-2.27-1.02-2.27-2.27h0c0-1.26,1.02-2.27,2.27-2.27Z"/>
        <path class="cls-2" d="M167.48,48.48h0c1.26,0,2.27,1.02,2.27,2.27h0c0,1.26-1.02,2.27-2.27,2.27h0c-1.26,0-2.27-1.02-2.27-2.27h0c0-1.26,1.02-2.27,2.27-2.27Z"/>
        <path class="cls-2" d="M173.54,48.48h0c1.26,0,2.27,1.02,2.27,2.27h0c0,1.26-1.02,2.27-2.27,2.27h0c-1.26,0-2.27-1.02-2.27-2.27h0c0-1.26,1.02-2.27,2.27-2.27Z"/>
        <path class="cls-2" d="M185.66,48.48h0c1.26,0,2.27,1.02,2.27,2.27h0c0,1.26-1.02,2.27-2.27,2.27h0c-1.26,0-2.27-1.02-2.27-2.27h0c0-1.26,1.02-2.27,2.27-2.27Z"/>
        <path class="cls-2" d="M197.78,48.48h0c1.26,0,2.27,1.02,2.27,2.27h0c0,1.26-1.02,2.27-2.27,2.27h0c-1.26,0-2.27-1.02-2.27-2.27h0c0-1.26,1.02-2.27,2.27-2.27Z"/>
        <path class="cls-2" d="M203.84,48.48h0c1.26,0,2.27,1.02,2.27,2.27h0c0,1.26-1.02,2.27-2.27,2.27h0c-1.26,0-2.27-1.02-2.27-2.27h0c0-1.26,1.02-2.27,2.27-2.27Z"/>
        <path class="cls-2" d="M222.02,48.48h0c1.26,0,2.27,1.02,2.27,2.27h0c0,1.26-1.02,2.27-2.27,2.27h0c-1.26,0-2.27-1.02-2.27-2.27h0c0-1.26,1.02-2.27,2.27-2.27Z"/>
        <path class="cls-2" d="M234.14,48.48h0c1.26,0,2.27,1.02,2.27,2.27h0c0,1.26-1.02,2.27-2.27,2.27h0c-1.26,0-2.27-1.02-2.27-2.27h0c0-1.26,1.02-2.27,2.27-2.27Z"/>
        <path class="cls-2" d="M246.26,48.48h0c1.26,0,2.27,1.02,2.27,2.27h0c0,1.26-1.02,2.27-2.27,2.27h0c-1.26,0-2.27-1.02-2.27-2.27h0c0-1.26,1.02-2.27,2.27-2.27Z"/>
        <path class="cls-2" d="M258.38,48.48h0c1.26,0,2.27,1.02,2.27,2.27h0c0,1.26-1.02,2.27-2.27,2.27h0c-1.26,0-2.27-1.02-2.27-2.27h0c0-1.26,1.02-2.27,2.27-2.27Z"/>
        <path class="cls-2" d="M64.46,54.54h0c1.26,0,2.27,1.02,2.27,2.27h0c0,1.26-1.02,2.27-2.27,2.27h0c-1.26,0-2.27-1.02-2.27-2.27h0c0-1.26,1.02-2.27,2.27-2.27Z"/>
        <path class="cls-2" d="M70.52,54.54h0c1.26,0,2.27,1.02,2.27,2.27h0c0,1.26-1.02,2.27-2.27,2.27h0c-1.26,0-2.27-1.02-2.27-2.27h0c0-1.26,1.02-2.27,2.27-2.27Z"/>
        <path class="cls-2" d="M76.58,54.54h0c1.26,0,2.27,1.02,2.27,2.27h0c0,1.26-1.02,2.27-2.27,2.27h0c-1.26,0-2.27-1.02-2.27-2.27h0c0-1.26,1.02-2.27,2.27-2.27Z"/>
        <path class="cls-2" d="M88.7,54.54h0c1.26,0,2.27,1.02,2.27,2.27h0c0,1.26-1.02,2.27-2.27,2.27h0c-1.26,0-2.27-1.02-2.27-2.27h0c0-1.26,1.02-2.27,2.27-2.27Z"/>
        <path class="cls-2" d="M106.88,54.54h0c1.26,0,2.27,1.02,2.27,2.27h0c0,1.26-1.02,2.27-2.27,2.27h0c-1.26,0-2.27-1.02-2.27-2.27h0c0-1.26,1.02-2.27,2.27-2.27Z"/>
        <rect class="cls-2" x="116.73" y="54.54" width="4.55" height="4.55" rx="2.27" ry="2.27"/>
        <path class="cls-2" d="M137.18,54.54h0c1.26,0,2.27,1.02,2.27,2.27h0c0,1.26-1.02,2.27-2.27,2.27h0c-1.26,0-2.27-1.02-2.27-2.27h0c0-1.26,1.02-2.27,2.27-2.27Z"/>
        <path class="cls-2" d="M143.24,54.54h0c1.26,0,2.27,1.02,2.27,2.27h0c0,1.26-1.02,2.27-2.27,2.27h0c-1.26,0-2.27-1.02-2.27-2.27h0c0-1.26,1.02-2.27,2.27-2.27Z"/>
        <path class="cls-2" d="M149.3,54.54h0c1.26,0,2.27,1.02,2.27,2.27h0c0,1.26-1.02,2.27-2.27,2.27h0c-1.26,0-2.27-1.02-2.27-2.27h0c0-1.26,1.02-2.27,2.27-2.27Z"/>
        <path class="cls-2" d="M167.48,54.54h0c1.26,0,2.27,1.02,2.27,2.27h0c0,1.26-1.02,2.27-2.27,2.27h0c-1.26,0-2.27-1.02-2.27-2.27h0c0-1.26,1.02-2.27,2.27-2.27Z"/>
        <path class="cls-2" d="M179.6,54.54h0c1.26,0,2.27,1.02,2.27,2.27h0c0,1.26-1.02,2.27-2.27,2.27h0c-1.26,0-2.27-1.02-2.27-2.27h0c0-1.26,1.02-2.27,2.27-2.27Z"/>
        <path class="cls-2" d="M185.66,54.54h0c1.26,0,2.27,1.02,2.27,2.27h0c0,1.26-1.02,2.27-2.27,2.27h0c-1.26,0-2.27-1.02-2.27-2.27h0c0-1.26,1.02-2.27,2.27-2.27Z"/>
        <path class="cls-2" d="M191.72,54.54h0c1.26,0,2.27,1.02,2.27,2.27h0c0,1.26-1.02,2.27-2.27,2.27h0c-1.26,0-2.27-1.02-2.27-2.27h0c0-1.26,1.02-2.27,2.27-2.27Z"/>
        <path class="cls-2" d="M197.78,54.54h0c1.26,0,2.27,1.02,2.27,2.27h0c0,1.26-1.02,2.27-2.27,2.27h0c-1.26,0-2.27-1.02-2.27-2.27h0c0-1.26,1.02-2.27,2.27-2.27Z"/>
        <path class="cls-2" d="M203.84,54.54h0c1.26,0,2.27,1.02,2.27,2.27h0c0,1.26-1.02,2.27-2.27,2.27h0c-1.26,0-2.27-1.02-2.27-2.27h0c0-1.26,1.02-2.27,2.27-2.27Z"/>
        <path class="cls-2" d="M215.96,54.54h0c1.26,0,2.27,1.02,2.27,2.27h0c0,1.26-1.02,2.27-2.27,2.27h0c-1.26,0-2.27-1.02-2.27-2.27h0c0-1.26,1.02-2.27,2.27-2.27Z"/>
        <path class="cls-2" d="M228.08,54.54h0c1.26,0,2.27,1.02,2.27,2.27h0c0,1.26-1.02,2.27-2.27,2.27h0c-1.26,0-2.27-1.02-2.27-2.27h0c0-1.26,1.02-2.27,2.27-2.27Z"/>
        <path class="cls-2" d="M234.14,54.54h0c1.26,0,2.27,1.02,2.27,2.27h0c0,1.26-1.02,2.27-2.27,2.27h0c-1.26,0-2.27-1.02-2.27-2.27h0c0-1.26,1.02-2.27,2.27-2.27Z"/>
        <path class="cls-2" d="M246.26,54.54h0c1.26,0,2.27,1.02,2.27,2.27h0c0,1.26-1.02,2.27-2.27,2.27h0c-1.26,0-2.27-1.02-2.27-2.27h0c0-1.26,1.02-2.27,2.27-2.27Z"/>
        <path class="cls-2" d="M76.58,60.6h0c1.26,0,2.27,1.02,2.27,2.27h0c0,1.26-1.02,2.27-2.27,2.27h0c-1.26,0-2.27-1.02-2.27-2.27h0c0-1.26,1.02-2.27,2.27-2.27Z"/>
        <path class="cls-2" d="M82.64,60.6h0c1.26,0,2.27,1.02,2.27,2.27h0c0,1.26-1.02,2.27-2.27,2.27h0c-1.26,0-2.27-1.02-2.27-2.27h0c0-1.26,1.02-2.27,2.27-2.27Z"/>
        <path class="cls-2" d="M94.76,60.6h0c1.26,0,2.27,1.02,2.27,2.27h0c0,1.26-1.02,2.27-2.27,2.27h0c-1.26,0-2.27-1.02-2.27-2.27h0c0-1.26,1.02-2.27,2.27-2.27Z"/>
        <path class="cls-2" d="M100.82,60.6h0c1.26,0,2.27,1.02,2.27,2.27h0c0,1.26-1.02,2.27-2.27,2.27h0c-1.26,0-2.27-1.02-2.27-2.27h0c0-1.26,1.02-2.27,2.27-2.27Z"/>
        <path class="cls-2" d="M125.06,60.6h0c1.26,0,2.27,1.02,2.27,2.27h0c0,1.26-1.02,2.27-2.27,2.27h0c-1.26,0-2.27-1.02-2.27-2.27h0c0-1.26,1.02-2.27,2.27-2.27Z"/>
        <path class="cls-2" d="M131.12,60.6h0c1.26,0,2.27,1.02,2.27,2.27h0c0,1.26-1.02,2.27-2.27,2.27h0c-1.26,0-2.27-1.02-2.27-2.27h0c0-1.26,1.02-2.27,2.27-2.27Z"/>
        <path class="cls-2" d="M137.18,60.6h0c1.26,0,2.27,1.02,2.27,2.27h0c0,1.26-1.02,2.27-2.27,2.27h0c-1.26,0-2.27-1.02-2.27-2.27h0c0-1.26,1.02-2.27,2.27-2.27Z"/>
        <path class="cls-2" d="M149.3,60.6h0c1.26,0,2.27,1.02,2.27,2.27h0c0,1.26-1.02,2.27-2.27,2.27h0c-1.26,0-2.27-1.02-2.27-2.27h0c0-1.26,1.02-2.27,2.27-2.27Z"/>
        <path class="cls-2" d="M185.66,60.6h0c1.26,0,2.27,1.02,2.27,2.27h0c0,1.26-1.02,2.27-2.27,2.27h0c-1.26,0-2.27-1.02-2.27-2.27h0c0-1.26,1.02-2.27,2.27-2.27Z"/>
        <path class="cls-2" d="M197.78,60.6h0c1.26,0,2.27,1.02,2.27,2.27h0c0,1.26-1.02,2.27-2.27,2.27h0c-1.26,0-2.27-1.02-2.27-2.27h0c0-1.26,1.02-2.27,2.27-2.27Z"/>
        <path class="cls-2" d="M215.96,60.6h0c1.26,0,2.27,1.02,2.27,2.27h0c0,1.26-1.02,2.27-2.27,2.27h0c-1.26,0-2.27-1.02-2.27-2.27h0c0-1.26,1.02-2.27,2.27-2.27Z"/>
        <path class="cls-2" d="M228.08,60.6h0c1.26,0,2.27,1.02,2.27,2.27h0c0,1.26-1.02,2.27-2.27,2.27h0c-1.26,0-2.27-1.02-2.27-2.27h0c0-1.26,1.02-2.27,2.27-2.27Z"/>
        <path class="cls-2" d="M240.2,60.6h0c1.26,0,2.27,1.02,2.27,2.27h0c0,1.26-1.02,2.27-2.27,2.27h0c-1.26,0-2.27-1.02-2.27-2.27h0c0-1.26,1.02-2.27,2.27-2.27Z"/>
        <path class="cls-2" d="M246.26,60.6h0c1.26,0,2.27,1.02,2.27,2.27h0c0,1.26-1.02,2.27-2.27,2.27h0c-1.26,0-2.27-1.02-2.27-2.27h0c0-1.26,1.02-2.27,2.27-2.27Z"/>
        <path class="cls-2" d="M64.46,66.66h0c1.26,0,2.27,1.02,2.27,2.27h0c0,1.26-1.02,2.27-2.27,2.27h0c-1.26,0-2.27-1.02-2.27-2.27h0c0-1.26,1.02-2.27,2.27-2.27Z"/>
        <path class="cls-2" d="M82.64,66.66h0c1.26,0,2.27,1.02,2.27,2.27h0c0,1.26-1.02,2.27-2.27,2.27h0c-1.26,0-2.27-1.02-2.27-2.27h0c0-1.26,1.02-2.27,2.27-2.27Z"/>
        <path class="cls-2" d="M88.7,66.66h0c1.26,0,2.27,1.02,2.27,2.27h0c0,1.26-1.02,2.27-2.27,2.27h0c-1.26,0-2.27-1.02-2.27-2.27h0c0-1.26,1.02-2.27,2.27-2.27Z"/>
        <path class="cls-2" d="M106.88,66.66h0c1.26,0,2.27,1.02,2.27,2.27h0c0,1.26-1.02,2.27-2.27,2.27h0c-1.26,0-2.27-1.02-2.27-2.27h0c0-1.26,1.02-2.27,2.27-2.27Z"/>
        <path class="cls-2" d="M119,66.66h0c1.26,0,2.27,1.02,2.27,2.27h0c0,1.26-1.02,2.27-2.27,2.27h0c-1.26,0-2.27-1.02-2.27-2.27h0c0-1.26,1.02-2.27,2.27-2.27Z"/>
        <path class="cls-2" d="M125.06,66.66h0c1.26,0,2.27,1.02,2.27,2.27h0c0,1.26-1.02,2.27-2.27,2.27h0c-1.26,0-2.27-1.02-2.27-2.27h0c0-1.26,1.02-2.27,2.27-2.27Z"/>
        <path class="cls-2" d="M131.12,66.66h0c1.26,0,2.27,1.02,2.27,2.27h0c0,1.26-1.02,2.27-2.27,2.27h0c-1.26,0-2.27-1.02-2.27-2.27h0c0-1.26,1.02-2.27,2.27-2.27Z"/>
        <path class="cls-2" d="M137.18,66.66h0c1.26,0,2.27,1.02,2.27,2.27h0c0,1.26-1.02,2.27-2.27,2.27h0c-1.26,0-2.27-1.02-2.27-2.27h0c0-1.26,1.02-2.27,2.27-2.27Z"/>
        <path class="cls-2" d="M143.24,66.66h0c1.26,0,2.27,1.02,2.27,2.27h0c0,1.26-1.02,2.27-2.27,2.27h0c-1.26,0-2.27-1.02-2.27-2.27h0c0-1.26,1.02-2.27,2.27-2.27Z"/>
        <path class="cls-2" d="M149.3,66.66h0c1.26,0,2.27,1.02,2.27,2.27h0c0,1.26-1.02,2.27-2.27,2.27h0c-1.26,0-2.27-1.02-2.27-2.27h0c0-1.26,1.02-2.27,2.27-2.27Z"/>
        <path class="cls-2" d="M161.42,66.66h0c1.26,0,2.27,1.02,2.27,2.27h0c0,1.26-1.02,2.27-2.27,2.27h0c-1.26,0-2.27-1.02-2.27-2.27h0c0-1.26,1.02-2.27,2.27-2.27Z"/>
        <path class="cls-2" d="M173.54,66.66h0c1.26,0,2.27,1.02,2.27,2.27h0c0,1.26-1.02,2.27-2.27,2.27h0c-1.26,0-2.27-1.02-2.27-2.27h0c0-1.26,1.02-2.27,2.27-2.27Z"/>
        <path class="cls-2" d="M197.78,66.66h0c1.26,0,2.27,1.02,2.27,2.27h0c0,1.26-1.02,2.27-2.27,2.27h0c-1.26,0-2.27-1.02-2.27-2.27h0c0-1.26,1.02-2.27,2.27-2.27Z"/>
        <path class="cls-2" d="M203.84,66.66h0c1.26,0,2.27,1.02,2.27,2.27h0c0,1.26-1.02,2.27-2.27,2.27h0c-1.26,0-2.27-1.02-2.27-2.27h0c0-1.26,1.02-2.27,2.27-2.27Z"/>
        <path class="cls-2" d="M215.96,66.66h0c1.26,0,2.27,1.02,2.27,2.27h0c0,1.26-1.02,2.27-2.27,2.27h0c-1.26,0-2.27-1.02-2.27-2.27h0c0-1.26,1.02-2.27,2.27-2.27Z"/>
        <path class="cls-2" d="M228.08,66.66h0c1.26,0,2.27,1.02,2.27,2.27h0c0,1.26-1.02,2.27-2.27,2.27h0c-1.26,0-2.27-1.02-2.27-2.27h0c0-1.26,1.02-2.27,2.27-2.27Z"/>
        <path class="cls-2" d="M240.2,66.66h0c1.26,0,2.27,1.02,2.27,2.27h0c0,1.26-1.02,2.27-2.27,2.27h0c-1.26,0-2.27-1.02-2.27-2.27h0c0-1.26,1.02-2.27,2.27-2.27Z"/>
        <path class="cls-2" d="M246.26,66.66h0c1.26,0,2.27,1.02,2.27,2.27h0c0,1.26-1.02,2.27-2.27,2.27h0c-1.26,0-2.27-1.02-2.27-2.27h0c0-1.26,1.02-2.27,2.27-2.27Z"/>
        <path class="cls-2" d="M64.46,72.72h0c1.26,0,2.27,1.02,2.27,2.27h0c0,1.26-1.02,2.27-2.27,2.27h0c-1.26,0-2.27-1.02-2.27-2.27h0c0-1.26,1.02-2.27,2.27-2.27Z"/>
        <path class="cls-2" d="M88.7,72.72h0c1.26,0,2.27,1.02,2.27,2.27h0c0,1.26-1.02,2.27-2.27,2.27h0c-1.26,0-2.27-1.02-2.27-2.27h0c0-1.26,1.02-2.27,2.27-2.27Z"/>
        <path class="cls-2" d="M100.82,72.72h0c1.26,0,2.27,1.02,2.27,2.27h0c0,1.26-1.02,2.27-2.27,2.27h0c-1.26,0-2.27-1.02-2.27-2.27h0c0-1.26,1.02-2.27,2.27-2.27Z"/>
        <path class="cls-2" d="M106.88,72.72h0c1.26,0,2.27,1.02,2.27,2.27h0c0,1.26-1.02,2.27-2.27,2.27h0c-1.26,0-2.27-1.02-2.27-2.27h0c0-1.26,1.02-2.27,2.27-2.27Z"/>
        <path class="cls-2" d="M119,72.72h0c1.26,0,2.27,1.02,2.27,2.27h0c0,1.26-1.02,2.27-2.27,2.27h0c-1.26,0-2.27-1.02-2.27-2.27h0c0-1.26,1.02-2.27,2.27-2.27Z"/>
        <path class="cls-2" d="M125.06,72.72h0c1.26,0,2.27,1.02,2.27,2.27h0c0,1.26-1.02,2.27-2.27,2.27h0c-1.26,0-2.27-1.02-2.27-2.27h0c0-1.26,1.02-2.27,2.27-2.27Z"/>
        <path class="cls-2" d="M197.78,72.72h0c1.26,0,2.27,1.02,2.27,2.27h0c0,1.26-1.02,2.27-2.27,2.27h0c-1.26,0-2.27-1.02-2.27-2.27h0c0-1.26,1.02-2.27,2.27-2.27Z"/>
        <path class="cls-2" d="M209.9,72.72h0c1.26,0,2.27,1.02,2.27,2.27h0c0,1.26-1.02,2.27-2.27,2.27h0c-1.26,0-2.27-1.02-2.27-2.27h0c0-1.26,1.02-2.27,2.27-2.27Z"/>
        <path class="cls-2" d="M215.96,72.72h0c1.26,0,2.27,1.02,2.27,2.27h0c0,1.26-1.02,2.27-2.27,2.27h0c-1.26,0-2.27-1.02-2.27-2.27h0c0-1.26,1.02-2.27,2.27-2.27Z"/>
        <path class="cls-2" d="M222.02,72.72h0c1.26,0,2.27,1.02,2.27,2.27h0c0,1.26-1.02,2.27-2.27,2.27h0c-1.26,0-2.27-1.02-2.27-2.27h0c0-1.26,1.02-2.27,2.27-2.27Z"/>
        <path class="cls-2" d="M228.08,72.72h0c1.26,0,2.27,1.02,2.27,2.27h0c0,1.26-1.02,2.27-2.27,2.27h0c-1.26,0-2.27-1.02-2.27-2.27h0c0-1.26,1.02-2.27,2.27-2.27Z"/>
        <path class="cls-2" d="M240.2,72.72h0c1.26,0,2.27,1.02,2.27,2.27h0c0,1.26-1.02,2.27-2.27,2.27h0c-1.26,0-2.27-1.02-2.27-2.27h0c0-1.26,1.02-2.27,2.27-2.27Z"/>
        <path class="cls-2" d="M246.26,72.72h0c1.26,0,2.27,1.02,2.27,2.27h0c0,1.26-1.02,2.27-2.27,2.27h0c-1.26,0-2.27-1.02-2.27-2.27h0c0-1.26,1.02-2.27,2.27-2.27Z"/>
        <path class="cls-2" d="M258.38,72.72h0c1.26,0,2.27,1.02,2.27,2.27h0c0,1.26-1.02,2.27-2.27,2.27h0c-1.26,0-2.27-1.02-2.27-2.27h0c0-1.26,1.02-2.27,2.27-2.27Z"/>
        <path class="cls-2" d="M106.88,78.78h0c1.26,0,2.27,1.02,2.27,2.27h0c0,1.26-1.02,2.27-2.27,2.27h0c-1.26,0-2.27-1.02-2.27-2.27h0c0-1.26,1.02-2.27,2.27-2.27Z"/>
        <path class="cls-2" d="M222.02,78.78h0c1.26,0,2.27,1.02,2.27,2.27h0c0,1.26-1.02,2.27-2.27,2.27h0c-1.26,0-2.27-1.02-2.27-2.27h0c0-1.26,1.02-2.27,2.27-2.27Z"/>
        <path class="cls-2" d="M228.08,78.78h0c1.26,0,2.27,1.02,2.27,2.27h0c0,1.26-1.02,2.27-2.27,2.27h0c-1.26,0-2.27-1.02-2.27-2.27h0c0-1.26,1.02-2.27,2.27-2.27Z"/>
        <path class="cls-2" d="M240.2,78.78h0c1.26,0,2.27,1.02,2.27,2.27h0c0,1.26-1.02,2.27-2.27,2.27h0c-1.26,0-2.27-1.02-2.27-2.27h0c0-1.26,1.02-2.27,2.27-2.27Z"/>
        <path class="cls-2" d="M246.26,78.78h0c1.26,0,2.27,1.02,2.27,2.27h0c0,1.26-1.02,2.27-2.27,2.27h0c-1.26,0-2.27-1.02-2.27-2.27h0c0-1.26,1.02-2.27,2.27-2.27Z"/>
        <path class="cls-2" d="M258.38,78.78h0c1.26,0,2.27,1.02,2.27,2.27h0c0,1.26-1.02,2.27-2.27,2.27h0c-1.26,0-2.27-1.02-2.27-2.27h0c0-1.26,1.02-2.27,2.27-2.27Z"/>
        <path class="cls-2" d="M64.46,84.84h0c1.26,0,2.27,1.02,2.27,2.27h0c0,1.26-1.02,2.27-2.27,2.27h0c-1.26,0-2.27-1.02-2.27-2.27h0c0-1.26,1.02-2.27,2.27-2.27Z"/>
        <path class="cls-2" d="M70.52,84.84h0c1.26,0,2.27,1.02,2.27,2.27h0c0,1.26-1.02,2.27-2.27,2.27h0c-1.26,0-2.27-1.02-2.27-2.27h0c0-1.26,1.02-2.27,2.27-2.27Z"/>
        <path class="cls-2" d="M76.58,84.84h0c1.26,0,2.27,1.02,2.27,2.27h0c0,1.26-1.02,2.27-2.27,2.27h0c-1.26,0-2.27-1.02-2.27-2.27h0c0-1.26,1.02-2.27,2.27-2.27Z"/>
        <path class="cls-2" d="M82.64,84.84h0c1.26,0,2.27,1.02,2.27,2.27h0c0,1.26-1.02,2.27-2.27,2.27h0c-1.26,0-2.27-1.02-2.27-2.27h0c0-1.26,1.02-2.27,2.27-2.27Z"/>
        <path class="cls-2" d="M94.76,84.84h0c1.26,0,2.27,1.02,2.27,2.27h0c0,1.26-1.02,2.27-2.27,2.27h0c-1.26,0-2.27-1.02-2.27-2.27h0c0-1.26,1.02-2.27,2.27-2.27Z"/>
        <path class="cls-2" d="M100.82,84.84h0c1.26,0,2.27,1.02,2.27,2.27h0c0,1.26-1.02,2.27-2.27,2.27h0c-1.26,0-2.27-1.02-2.27-2.27h0c0-1.26,1.02-2.27,2.27-2.27Z"/>
        <path class="cls-2" d="M106.88,84.84h0c1.26,0,2.27,1.02,2.27,2.27h0c0,1.26-1.02,2.27-2.27,2.27h0c-1.26,0-2.27-1.02-2.27-2.27h0c0-1.26,1.02-2.27,2.27-2.27Z"/>
        <path class="cls-2" d="M112.94,84.84h0c1.26,0,2.27,1.02,2.27,2.27h0c0,1.26-1.02,2.27-2.27,2.27h0c-1.26,0-2.27-1.02-2.27-2.27h0c0-1.26,1.02-2.27,2.27-2.27Z"/>
        <path class="cls-2" d="M119,84.84h0c1.26,0,2.27,1.02,2.27,2.27h0c0,1.26-1.02,2.27-2.27,2.27h0c-1.26,0-2.27-1.02-2.27-2.27h0c0-1.26,1.02-2.27,2.27-2.27Z"/>
        <path class="cls-2" d="M197.78,84.84h0c1.26,0,2.27,1.02,2.27,2.27h0c0,1.26-1.02,2.27-2.27,2.27h0c-1.26,0-2.27-1.02-2.27-2.27h0c0-1.26,1.02-2.27,2.27-2.27Z"/>
        <path class="cls-2" d="M209.9,84.84h0c1.26,0,2.27,1.02,2.27,2.27h0c0,1.26-1.02,2.27-2.27,2.27h0c-1.26,0-2.27-1.02-2.27-2.27h0c0-1.26,1.02-2.27,2.27-2.27Z"/>
        <path class="cls-2" d="M215.96,84.84h0c1.26,0,2.27,1.02,2.27,2.27h0c0,1.26-1.02,2.27-2.27,2.27h0c-1.26,0-2.27-1.02-2.27-2.27h0c0-1.26,1.02-2.27,2.27-2.27Z"/>
        <path class="cls-2" d="M222.02,84.84h0c1.26,0,2.27,1.02,2.27,2.27h0c0,1.26-1.02,2.27-2.27,2.27h0c-1.26,0-2.27-1.02-2.27-2.27h0c0-1.26,1.02-2.27,2.27-2.27Z"/>
        <path class="cls-2" d="M228.08,84.84h0c1.26,0,2.27,1.02,2.27,2.27h0c0,1.26-1.02,2.27-2.27,2.27h0c-1.26,0-2.27-1.02-2.27-2.27h0c0-1.26,1.02-2.27,2.27-2.27Z"/>
        <path class="cls-2" d="M246.26,84.84h0c1.26,0,2.27,1.02,2.27,2.27h0c0,1.26-1.02,2.27-2.27,2.27h0c-1.26,0-2.27-1.02-2.27-2.27h0c0-1.26,1.02-2.27,2.27-2.27Z"/>
        <path class="cls-2" d="M252.32,84.84h0c1.26,0,2.27,1.02,2.27,2.27h0c0,1.26-1.02,2.27-2.27,2.27h0c-1.26,0-2.27-1.02-2.27-2.27h0c0-1.26,1.02-2.27,2.27-2.27Z"/>
        <path class="cls-2" d="M64.46,90.9h0c1.26,0,2.27,1.02,2.27,2.27h0c0,1.26-1.02,2.27-2.27,2.27h0c-1.26,0-2.27-1.02-2.27-2.27h0c0-1.26,1.02-2.27,2.27-2.27Z"/>
        <path class="cls-2" d="M70.52,90.9h0c1.26,0,2.27,1.02,2.27,2.27h0c0,1.26-1.02,2.27-2.27,2.27h0c-1.26,0-2.27-1.02-2.27-2.27h0c0-1.26,1.02-2.27,2.27-2.27Z"/>
        <path class="cls-2" d="M82.64,90.9h0c1.26,0,2.27,1.02,2.27,2.27h0c0,1.26-1.02,2.27-2.27,2.27h0c-1.26,0-2.27-1.02-2.27-2.27h0c0-1.26,1.02-2.27,2.27-2.27Z"/>
        <path class="cls-2" d="M203.84,90.9h0c1.26,0,2.27,1.02,2.27,2.27h0c0,1.26-1.02,2.27-2.27,2.27h0c-1.26,0-2.27-1.02-2.27-2.27h0c0-1.26,1.02-2.27,2.27-2.27Z"/>
        <path class="cls-2" d="M209.9,90.9h0c1.26,0,2.27,1.02,2.27,2.27h0c0,1.26-1.02,2.27-2.27,2.27h0c-1.26,0-2.27-1.02-2.27-2.27h0c0-1.26,1.02-2.27,2.27-2.27Z"/>
        <path class="cls-2" d="M215.96,90.9h0c1.26,0,2.27,1.02,2.27,2.27h0c0,1.26-1.02,2.27-2.27,2.27h0c-1.26,0-2.27-1.02-2.27-2.27h0c0-1.26,1.02-2.27,2.27-2.27Z"/>
        <path class="cls-2" d="M246.26,90.9h0c1.26,0,2.27,1.02,2.27,2.27h0c0,1.26-1.02,2.27-2.27,2.27h0c-1.26,0-2.27-1.02-2.27-2.27h0c0-1.26,1.02-2.27,2.27-2.27Z"/>
        <path class="cls-2" d="M252.32,90.9h0c1.26,0,2.27,1.02,2.27,2.27h0c0,1.26-1.02,2.27-2.27,2.27h0c-1.26,0-2.27-1.02-2.27-2.27h0c0-1.26,1.02-2.27,2.27-2.27Z"/>
        <path class="cls-2" d="M258.38,90.9h0c1.26,0,2.27,1.02,2.27,2.27h0c0,1.26-1.02,2.27-2.27,2.27h0c-1.26,0-2.27-1.02-2.27-2.27h0c0-1.26,1.02-2.27,2.27-2.27Z"/>
        <path class="cls-2" d="M64.46,96.96h0c1.26,0,2.27,1.02,2.27,2.27h0c0,1.26-1.02,2.27-2.27,2.27h0c-1.26,0-2.27-1.02-2.27-2.27h0c0-1.26,1.02-2.27,2.27-2.27Z"/>
        <path class="cls-2" d="M76.58,96.96h0c1.26,0,2.27,1.02,2.27,2.27h0c0,1.26-1.02,2.27-2.27,2.27h0c-1.26,0-2.27-1.02-2.27-2.27h0c0-1.26,1.02-2.27,2.27-2.27Z"/>
        <path class="cls-2" d="M88.7,96.96h0c1.26,0,2.27,1.02,2.27,2.27h0c0,1.26-1.02,2.27-2.27,2.27h0c-1.26,0-2.27-1.02-2.27-2.27h0c0-1.26,1.02-2.27,2.27-2.27Z"/>
        <path class="cls-2" d="M94.76,96.96h0c1.26,0,2.27,1.02,2.27,2.27h0c0,1.26-1.02,2.27-2.27,2.27h0c-1.26,0-2.27-1.02-2.27-2.27h0c0-1.26,1.02-2.27,2.27-2.27Z"/>
        <path class="cls-2" d="M100.82,96.96h0c1.26,0,2.27,1.02,2.27,2.27h0c0,1.26-1.02,2.27-2.27,2.27h0c-1.26,0-2.27-1.02-2.27-2.27h0c0-1.26,1.02-2.27,2.27-2.27Z"/>
        <path class="cls-2" d="M125.06,96.96h0c1.26,0,2.27,1.02,2.27,2.27h0c0,1.26-1.02,2.27-2.27,2.27h0c-1.26,0-2.27-1.02-2.27-2.27h0c0-1.26,1.02-2.27,2.27-2.27Z"/>
        <path class="cls-2" d="M203.84,96.96h0c1.26,0,2.27,1.02,2.27,2.27h0c0,1.26-1.02,2.27-2.27,2.27h0c-1.26,0-2.27-1.02-2.27-2.27h0c0-1.26,1.02-2.27,2.27-2.27Z"/>
        <path class="cls-2" d="M215.96,96.96h0c1.26,0,2.27,1.02,2.27,2.27h0c0,1.26-1.02,2.27-2.27,2.27h0c-1.26,0-2.27-1.02-2.27-2.27h0c0-1.26,1.02-2.27,2.27-2.27Z"/>
        <path class="cls-2" d="M228.08,96.96h0c1.26,0,2.27,1.02,2.27,2.27h0c0,1.26-1.02,2.27-2.27,2.27h0c-1.26,0-2.27-1.02-2.27-2.27h0c0-1.26,1.02-2.27,2.27-2.27Z"/>
        <path class="cls-2" d="M240.2,96.96h0c1.26,0,2.27,1.02,2.27,2.27h0c0,1.26-1.02,2.27-2.27,2.27h0c-1.26,0-2.27-1.02-2.27-2.27h0c0-1.26,1.02-2.27,2.27-2.27Z"/>
        <path class="cls-2" d="M64.46,103.02h0c1.26,0,2.27,1.02,2.27,2.27h0c0,1.26-1.02,2.27-2.27,2.27h0c-1.26,0-2.27-1.02-2.27-2.27h0c0-1.26,1.02-2.27,2.27-2.27Z"/>
        <path class="cls-2" d="M70.52,103.02h0c1.26,0,2.27,1.02,2.27,2.27h0c0,1.26-1.02,2.27-2.27,2.27h0c-1.26,0-2.27-1.02-2.27-2.27h0c0-1.26,1.02-2.27,2.27-2.27Z"/>
        <path class="cls-2" d="M76.58,103.02h0c1.26,0,2.27,1.02,2.27,2.27h0c0,1.26-1.02,2.27-2.27,2.27h0c-1.26,0-2.27-1.02-2.27-2.27h0c0-1.26,1.02-2.27,2.27-2.27Z"/>
        <path class="cls-2" d="M82.64,103.02h0c1.26,0,2.27,1.02,2.27,2.27h0c0,1.26-1.02,2.27-2.27,2.27h0c-1.26,0-2.27-1.02-2.27-2.27h0c0-1.26,1.02-2.27,2.27-2.27Z"/>
        <path class="cls-2" d="M112.94,103.02h0c1.26,0,2.27,1.02,2.27,2.27h0c0,1.26-1.02,2.27-2.27,2.27h0c-1.26,0-2.27-1.02-2.27-2.27h0c0-1.26,1.02-2.27,2.27-2.27Z"/>
        <path class="cls-2" d="M203.84,103.02h0c1.26,0,2.27,1.02,2.27,2.27h0c0,1.26-1.02,2.27-2.27,2.27h0c-1.26,0-2.27-1.02-2.27-2.27h0c0-1.26,1.02-2.27,2.27-2.27Z"/>
        <path class="cls-2" d="M209.9,103.02h0c1.26,0,2.27,1.02,2.27,2.27h0c0,1.26-1.02,2.27-2.27,2.27h0c-1.26,0-2.27-1.02-2.27-2.27h0c0-1.26,1.02-2.27,2.27-2.27Z"/>
        <path class="cls-2" d="M215.96,103.02h0c1.26,0,2.27,1.02,2.27,2.27h0c0,1.26-1.02,2.27-2.27,2.27h0c-1.26,0-2.27-1.02-2.27-2.27h0c0-1.26,1.02-2.27,2.27-2.27Z"/>
        <path class="cls-2" d="M228.08,103.02h0c1.26,0,2.27,1.02,2.27,2.27h0c0,1.26-1.02,2.27-2.27,2.27h0c-1.26,0-2.27-1.02-2.27-2.27h0c0-1.26,1.02-2.27,2.27-2.27Z"/>
        <path class="cls-2" d="M252.32,103.02h0c1.26,0,2.27,1.02,2.27,2.27h0c0,1.26-1.02,2.27-2.27,2.27h0c-1.26,0-2.27-1.02-2.27-2.27h0c0-1.26,1.02-2.27,2.27-2.27Z"/>
        <path class="cls-2" d="M258.38,103.02h0c1.26,0,2.27,1.02,2.27,2.27h0c0,1.26-1.02,2.27-2.27,2.27h0c-1.26,0-2.27-1.02-2.27-2.27h0c0-1.26,1.02-2.27,2.27-2.27Z"/>
        <path class="cls-2" d="M64.46,109.08h0c1.26,0,2.27,1.02,2.27,2.27h0c0,1.26-1.02,2.27-2.27,2.27h0c-1.26,0-2.27-1.02-2.27-2.27h0c0-1.26,1.02-2.27,2.27-2.27Z"/>
        <path class="cls-2" d="M76.58,109.08h0c1.26,0,2.27,1.02,2.27,2.27h0c0,1.26-1.02,2.27-2.27,2.27h0c-1.26,0-2.27-1.02-2.27-2.27h0c0-1.26,1.02-2.27,2.27-2.27Z"/>
        <path class="cls-2" d="M100.82,109.08h0c1.26,0,2.27,1.02,2.27,2.27h0c0,1.26-1.02,2.27-2.27,2.27h0c-1.26,0-2.27-1.02-2.27-2.27h0c0-1.26,1.02-2.27,2.27-2.27Z"/>
        <path class="cls-2" d="M203.84,109.08h0c1.26,0,2.27,1.02,2.27,2.27h0c0,1.26-1.02,2.27-2.27,2.27h0c-1.26,0-2.27-1.02-2.27-2.27h0c0-1.26,1.02-2.27,2.27-2.27Z"/>
        <path class="cls-2" d="M222.02,109.08h0c1.26,0,2.27,1.02,2.27,2.27h0c0,1.26-1.02,2.27-2.27,2.27h0c-1.26,0-2.27-1.02-2.27-2.27h0c0-1.26,1.02-2.27,2.27-2.27Z"/>
        <path class="cls-2" d="M228.08,109.08h0c1.26,0,2.27,1.02,2.27,2.27h0c0,1.26-1.02,2.27-2.27,2.27h0c-1.26,0-2.27-1.02-2.27-2.27h0c0-1.26,1.02-2.27,2.27-2.27Z"/>
        <path class="cls-2" d="M240.2,109.08h0c1.26,0,2.27,1.02,2.27,2.27h0c0,1.26-1.02,2.27-2.27,2.27h0c-1.26,0-2.27-1.02-2.27-2.27h0c0-1.26,1.02-2.27,2.27-2.27Z"/>
        <path class="cls-2" d="M246.26,109.08h0c1.26,0,2.27,1.02,2.27,2.27h0c0,1.26-1.02,2.27-2.27,2.27h0c-1.26,0-2.27-1.02-2.27-2.27h0c0-1.26,1.02-2.27,2.27-2.27Z"/>
        <path class="cls-2" d="M258.38,109.08h0c1.26,0,2.27,1.02,2.27,2.27h0c0,1.26-1.02,2.27-2.27,2.27h0c-1.26,0-2.27-1.02-2.27-2.27h0c0-1.26,1.02-2.27,2.27-2.27Z"/>
        <path class="cls-2" d="M88.7,115.14h0c1.26,0,2.27,1.02,2.27,2.27h0c0,1.26-1.02,2.27-2.27,2.27h0c-1.26,0-2.27-1.02-2.27-2.27h0c0-1.26,1.02-2.27,2.27-2.27Z"/>
        <path class="cls-2" d="M94.76,115.14h0c1.26,0,2.27,1.02,2.27,2.27h0c0,1.26-1.02,2.27-2.27,2.27h0c-1.26,0-2.27-1.02-2.27-2.27h0c0-1.26,1.02-2.27,2.27-2.27Z"/>
        <path class="cls-2" d="M106.88,115.14h0c1.26,0,2.27,1.02,2.27,2.27h0c0,1.26-1.02,2.27-2.27,2.27h0c-1.26,0-2.27-1.02-2.27-2.27h0c0-1.26,1.02-2.27,2.27-2.27Z"/>
        <path class="cls-2" d="M112.94,115.14h0c1.26,0,2.27,1.02,2.27,2.27h0c0,1.26-1.02,2.27-2.27,2.27h0c-1.26,0-2.27-1.02-2.27-2.27h0c0-1.26,1.02-2.27,2.27-2.27Z"/>
        <path class="cls-2" d="M119,115.14h0c1.26,0,2.27,1.02,2.27,2.27h0c0,1.26-1.02,2.27-2.27,2.27h0c-1.26,0-2.27-1.02-2.27-2.27h0c0-1.26,1.02-2.27,2.27-2.27Z"/>
        <path class="cls-2" d="M125.06,115.14h0c1.26,0,2.27,1.02,2.27,2.27h0c0,1.26-1.02,2.27-2.27,2.27h0c-1.26,0-2.27-1.02-2.27-2.27h0c0-1.26,1.02-2.27,2.27-2.27Z"/>
        <path class="cls-2" d="M197.78,115.14h0c1.26,0,2.27,1.02,2.27,2.27h0c0,1.26-1.02,2.27-2.27,2.27h0c-1.26,0-2.27-1.02-2.27-2.27h0c0-1.26,1.02-2.27,2.27-2.27Z"/>
        <path class="cls-2" d="M203.84,115.14h0c1.26,0,2.27,1.02,2.27,2.27h0c0,1.26-1.02,2.27-2.27,2.27h0c-1.26,0-2.27-1.02-2.27-2.27h0c0-1.26,1.02-2.27,2.27-2.27Z"/>
        <path class="cls-2" d="M209.9,115.14h0c1.26,0,2.27,1.02,2.27,2.27h0c0,1.26-1.02,2.27-2.27,2.27h0c-1.26,0-2.27-1.02-2.27-2.27h0c0-1.26,1.02-2.27,2.27-2.27Z"/>
        <path class="cls-2" d="M215.96,115.14h0c1.26,0,2.27,1.02,2.27,2.27h0c0,1.26-1.02,2.27-2.27,2.27h0c-1.26,0-2.27-1.02-2.27-2.27h0c0-1.26,1.02-2.27,2.27-2.27Z"/>
        <path class="cls-2" d="M240.2,115.14h0c1.26,0,2.27,1.02,2.27,2.27h0c0,1.26-1.02,2.27-2.27,2.27h0c-1.26,0-2.27-1.02-2.27-2.27h0c0-1.26,1.02-2.27,2.27-2.27Z"/>
        <path class="cls-2" d="M246.26,115.14h0c1.26,0,2.27,1.02,2.27,2.27h0c0,1.26-1.02,2.27-2.27,2.27h0c-1.26,0-2.27-1.02-2.27-2.27h0c0-1.26,1.02-2.27,2.27-2.27Z"/>
        <path class="cls-2" d="M64.46,121.2h0c1.26,0,2.27,1.02,2.27,2.27h0c0,1.26-1.02,2.27-2.27,2.27h0c-1.26,0-2.27-1.02-2.27-2.27h0c0-1.26,1.02-2.27,2.27-2.27Z"/>
        <path class="cls-2" d="M82.64,121.2h0c1.26,0,2.27,1.02,2.27,2.27h0c0,1.26-1.02,2.27-2.27,2.27h0c-1.26,0-2.27-1.02-2.27-2.27h0c0-1.26,1.02-2.27,2.27-2.27Z"/>
        <path class="cls-2" d="M94.76,121.2h0c1.26,0,2.27,1.02,2.27,2.27h0c0,1.26-1.02,2.27-2.27,2.27h0c-1.26,0-2.27-1.02-2.27-2.27h0c0-1.26,1.02-2.27,2.27-2.27Z"/>
        <path class="cls-2" d="M100.82,121.2h0c1.26,0,2.27,1.02,2.27,2.27h0c0,1.26-1.02,2.27-2.27,2.27h0c-1.26,0-2.27-1.02-2.27-2.27h0c0-1.26,1.02-2.27,2.27-2.27Z"/>
        <path class="cls-2" d="M106.88,121.2h0c1.26,0,2.27,1.02,2.27,2.27h0c0,1.26-1.02,2.27-2.27,2.27h0c-1.26,0-2.27-1.02-2.27-2.27h0c0-1.26,1.02-2.27,2.27-2.27Z"/>
        <path class="cls-2" d="M112.94,121.2h0c1.26,0,2.27,1.02,2.27,2.27h0c0,1.26-1.02,2.27-2.27,2.27h0c-1.26,0-2.27-1.02-2.27-2.27h0c0-1.26,1.02-2.27,2.27-2.27Z"/>
        <path class="cls-2" d="M119,121.2h0c1.26,0,2.27,1.02,2.27,2.27h0c0,1.26-1.02,2.27-2.27,2.27h0c-1.26,0-2.27-1.02-2.27-2.27h0c0-1.26,1.02-2.27,2.27-2.27Z"/>
        <path class="cls-2" d="M197.78,121.2h0c1.26,0,2.27,1.02,2.27,2.27h0c0,1.26-1.02,2.27-2.27,2.27h0c-1.26,0-2.27-1.02-2.27-2.27h0c0-1.26,1.02-2.27,2.27-2.27Z"/>
        <path class="cls-2" d="M209.9,121.2h0c1.26,0,2.27,1.02,2.27,2.27h0c0,1.26-1.02,2.27-2.27,2.27h0c-1.26,0-2.27-1.02-2.27-2.27h0c0-1.26,1.02-2.27,2.27-2.27Z"/>
        <path class="cls-2" d="M215.96,121.2h0c1.26,0,2.27,1.02,2.27,2.27h0c0,1.26-1.02,2.27-2.27,2.27h0c-1.26,0-2.27-1.02-2.27-2.27h0c0-1.26,1.02-2.27,2.27-2.27Z"/>
        <path class="cls-2" d="M228.08,121.2h0c1.26,0,2.27,1.02,2.27,2.27h0c0,1.26-1.02,2.27-2.27,2.27h0c-1.26,0-2.27-1.02-2.27-2.27h0c0-1.26,1.02-2.27,2.27-2.27Z"/>
        <path class="cls-2" d="M234.14,121.2h0c1.26,0,2.27,1.02,2.27,2.27h0c0,1.26-1.02,2.27-2.27,2.27h0c-1.26,0-2.27-1.02-2.27-2.27h0c0-1.26,1.02-2.27,2.27-2.27Z"/>
        <path class="cls-2" d="M240.2,121.2h0c1.26,0,2.27,1.02,2.27,2.27h0c0,1.26-1.02,2.27-2.27,2.27h0c-1.26,0-2.27-1.02-2.27-2.27h0c0-1.26,1.02-2.27,2.27-2.27Z"/>
        <path class="cls-2" d="M258.38,121.2h0c1.26,0,2.27,1.02,2.27,2.27h0c0,1.26-1.02,2.27-2.27,2.27h0c-1.26,0-2.27-1.02-2.27-2.27h0c0-1.26,1.02-2.27,2.27-2.27Z"/>
        <path class="cls-2" d="M64.46,127.26h0c1.26,0,2.27,1.02,2.27,2.27h0c0,1.26-1.02,2.27-2.27,2.27h0c-1.26,0-2.27-1.02-2.27-2.27h0c0-1.26,1.02-2.27,2.27-2.27Z"/>
        <path class="cls-2" d="M70.52,127.26h0c1.26,0,2.27,1.02,2.27,2.27h0c0,1.26-1.02,2.27-2.27,2.27h0c-1.26,0-2.27-1.02-2.27-2.27h0c0-1.26,1.02-2.27,2.27-2.27Z"/>
        <path class="cls-2" d="M76.58,127.26h0c1.26,0,2.27,1.02,2.27,2.27h0c0,1.26-1.02,2.27-2.27,2.27h0c-1.26,0-2.27-1.02-2.27-2.27h0c0-1.26,1.02-2.27,2.27-2.27Z"/>
        <path class="cls-2" d="M82.64,127.26h0c1.26,0,2.27,1.02,2.27,2.27h0c0,1.26-1.02,2.27-2.27,2.27h0c-1.26,0-2.27-1.02-2.27-2.27h0c0-1.26,1.02-2.27,2.27-2.27Z"/>
        <path class="cls-2" d="M88.7,127.26h0c1.26,0,2.27,1.02,2.27,2.27h0c0,1.26-1.02,2.27-2.27,2.27h0c-1.26,0-2.27-1.02-2.27-2.27h0c0-1.26,1.02-2.27,2.27-2.27Z"/>
        <path class="cls-2" d="M106.88,127.26h0c1.26,0,2.27,1.02,2.27,2.27h0c0,1.26-1.02,2.27-2.27,2.27h0c-1.26,0-2.27-1.02-2.27-2.27h0c0-1.26,1.02-2.27,2.27-2.27Z"/>
        <path class="cls-2" d="M119,127.26h0c1.26,0,2.27,1.02,2.27,2.27h0c0,1.26-1.02,2.27-2.27,2.27h0c-1.26,0-2.27-1.02-2.27-2.27h0c0-1.26,1.02-2.27,2.27-2.27Z"/>
        <path class="cls-2" d="M137.18,127.26h0c1.26,0,2.27,1.02,2.27,2.27h0c0,1.26-1.02,2.27-2.27,2.27h0c-1.26,0-2.27-1.02-2.27-2.27h0c0-1.26,1.02-2.27,2.27-2.27Z"/>
        <path class="cls-2" d="M149.3,127.26h0c1.26,0,2.27,1.02,2.27,2.27h0c0,1.26-1.02,2.27-2.27,2.27h0c-1.26,0-2.27-1.02-2.27-2.27h0c0-1.26,1.02-2.27,2.27-2.27Z"/>
        <path class="cls-2" d="M155.36,127.26h0c1.26,0,2.27,1.02,2.27,2.27h0c0,1.26-1.02,2.27-2.27,2.27h0c-1.26,0-2.27-1.02-2.27-2.27h0c0-1.26,1.02-2.27,2.27-2.27Z"/>
        <path class="cls-2" d="M179.6,127.26h0c1.26,0,2.27,1.02,2.27,2.27h0c0,1.26-1.02,2.27-2.27,2.27h0c-1.26,0-2.27-1.02-2.27-2.27h0c0-1.26,1.02-2.27,2.27-2.27Z"/>
        <path class="cls-2" d="M185.66,127.26h0c1.26,0,2.27,1.02,2.27,2.27h0c0,1.26-1.02,2.27-2.27,2.27h0c-1.26,0-2.27-1.02-2.27-2.27h0c0-1.26,1.02-2.27,2.27-2.27Z"/>
        <path class="cls-2" d="M197.78,127.26h0c1.26,0,2.27,1.02,2.27,2.27h0c0,1.26-1.02,2.27-2.27,2.27h0c-1.26,0-2.27-1.02-2.27-2.27h0c0-1.26,1.02-2.27,2.27-2.27Z"/>
        <path class="cls-2" d="M203.84,127.26h0c1.26,0,2.27,1.02,2.27,2.27h0c0,1.26-1.02,2.27-2.27,2.27h0c-1.26,0-2.27-1.02-2.27-2.27h0c0-1.26,1.02-2.27,2.27-2.27Z"/>
        <path class="cls-2" d="M228.08,127.26h0c1.26,0,2.27,1.02,2.27,2.27h0c0,1.26-1.02,2.27-2.27,2.27h0c-1.26,0-2.27-1.02-2.27-2.27h0c0-1.26,1.02-2.27,2.27-2.27Z"/>
        <path class="cls-2" d="M234.14,127.26h0c1.26,0,2.27,1.02,2.27,2.27h0c0,1.26-1.02,2.27-2.27,2.27h0c-1.26,0-2.27-1.02-2.27-2.27h0c0-1.26,1.02-2.27,2.27-2.27Z"/>
        <path class="cls-2" d="M240.2,127.26h0c1.26,0,2.27,1.02,2.27,2.27h0c0,1.26-1.02,2.27-2.27,2.27h0c-1.26,0-2.27-1.02-2.27-2.27h0c0-1.26,1.02-2.27,2.27-2.27Z"/>
        <path class="cls-2" d="M258.38,127.26h0c1.26,0,2.27,1.02,2.27,2.27h0c0,1.26-1.02,2.27-2.27,2.27h0c-1.26,0-2.27-1.02-2.27-2.27h0c0-1.26,1.02-2.27,2.27-2.27Z"/>
        <path class="cls-2" d="M64.46,133.32h0c1.26,0,2.27,1.02,2.27,2.27h0c0,1.26-1.02,2.27-2.27,2.27h0c-1.26,0-2.27-1.02-2.27-2.27h0c0-1.26,1.02-2.27,2.27-2.27Z"/>
        <path class="cls-2" d="M76.58,133.32h0c1.26,0,2.27,1.02,2.27,2.27h0c0,1.26-1.02,2.27-2.27,2.27h0c-1.26,0-2.27-1.02-2.27-2.27h0c0-1.26,1.02-2.27,2.27-2.27Z"/>
        <path class="cls-2" d="M94.76,133.32h0c1.26,0,2.27,1.02,2.27,2.27h0c0,1.26-1.02,2.27-2.27,2.27h0c-1.26,0-2.27-1.02-2.27-2.27h0c0-1.26,1.02-2.27,2.27-2.27Z"/>
        <path class="cls-2" d="M100.82,133.32h0c1.26,0,2.27,1.02,2.27,2.27h0c0,1.26-1.02,2.27-2.27,2.27h0c-1.26,0-2.27-1.02-2.27-2.27h0c0-1.26,1.02-2.27,2.27-2.27Z"/>
        <path class="cls-2" d="M119,133.32h0c1.26,0,2.27,1.02,2.27,2.27h0c0,1.26-1.02,2.27-2.27,2.27h0c-1.26,0-2.27-1.02-2.27-2.27h0c0-1.26,1.02-2.27,2.27-2.27Z"/>
        <path class="cls-2" d="M143.24,133.32h0c1.26,0,2.27,1.02,2.27,2.27h0c0,1.26-1.02,2.27-2.27,2.27h0c-1.26,0-2.27-1.02-2.27-2.27h0c0-1.26,1.02-2.27,2.27-2.27Z"/>
        <path class="cls-2" d="M155.36,133.32h0c1.26,0,2.27,1.02,2.27,2.27h0c0,1.26-1.02,2.27-2.27,2.27h0c-1.26,0-2.27-1.02-2.27-2.27h0c0-1.26,1.02-2.27,2.27-2.27Z"/>
        <path class="cls-2" d="M167.48,133.32h0c1.26,0,2.27,1.02,2.27,2.27h0c0,1.26-1.02,2.27-2.27,2.27h0c-1.26,0-2.27-1.02-2.27-2.27h0c0-1.26,1.02-2.27,2.27-2.27Z"/>
        <path class="cls-2" d="M173.54,133.32h0c1.26,0,2.27,1.02,2.27,2.27h0c0,1.26-1.02,2.27-2.27,2.27h0c-1.26,0-2.27-1.02-2.27-2.27h0c0-1.26,1.02-2.27,2.27-2.27Z"/>
        <path class="cls-2" d="M191.72,133.32h0c1.26,0,2.27,1.02,2.27,2.27h0c0,1.26-1.02,2.27-2.27,2.27h0c-1.26,0-2.27-1.02-2.27-2.27h0c0-1.26,1.02-2.27,2.27-2.27Z"/>
        <path class="cls-2" d="M197.78,133.32h0c1.26,0,2.27,1.02,2.27,2.27h0c0,1.26-1.02,2.27-2.27,2.27h0c-1.26,0-2.27-1.02-2.27-2.27h0c0-1.26,1.02-2.27,2.27-2.27Z"/>
        <path class="cls-2" d="M209.9,133.32h0c1.26,0,2.27,1.02,2.27,2.27h0c0,1.26-1.02,2.27-2.27,2.27h0c-1.26,0-2.27-1.02-2.27-2.27h0c0-1.26,1.02-2.27,2.27-2.27Z"/>
        <path class="cls-2" d="M252.32,133.32h0c1.26,0,2.27,1.02,2.27,2.27h0c0,1.26-1.02,2.27-2.27,2.27h0c-1.26,0-2.27-1.02-2.27-2.27h0c0-1.26,1.02-2.27,2.27-2.27Z"/>
        <path class="cls-2" d="M64.46,139.38h0c1.26,0,2.27,1.02,2.27,2.27h0c0,1.26-1.02,2.27-2.27,2.27h0c-1.26,0-2.27-1.02-2.27-2.27h0c0-1.26,1.02-2.27,2.27-2.27Z"/>
        <path class="cls-2" d="M88.7,139.38h0c1.26,0,2.27,1.02,2.27,2.27h0c0,1.26-1.02,2.27-2.27,2.27h0c-1.26,0-2.27-1.02-2.27-2.27h0c0-1.26,1.02-2.27,2.27-2.27Z"/>
        <path class="cls-2" d="M119,139.38h0c1.26,0,2.27,1.02,2.27,2.27h0c0,1.26-1.02,2.27-2.27,2.27h0c-1.26,0-2.27-1.02-2.27-2.27h0c0-1.26,1.02-2.27,2.27-2.27Z"/>
        <path class="cls-2" d="M143.24,139.38h0c1.26,0,2.27,1.02,2.27,2.27h0c0,1.26-1.02,2.27-2.27,2.27h0c-1.26,0-2.27-1.02-2.27-2.27h0c0-1.26,1.02-2.27,2.27-2.27Z"/>
        <path class="cls-2" d="M173.54,139.38h0c1.26,0,2.27,1.02,2.27,2.27h0c0,1.26-1.02,2.27-2.27,2.27h0c-1.26,0-2.27-1.02-2.27-2.27h0c0-1.26,1.02-2.27,2.27-2.27Z"/>
        <path class="cls-2" d="M179.6,139.38h0c1.26,0,2.27,1.02,2.27,2.27h0c0,1.26-1.02,2.27-2.27,2.27h0c-1.26,0-2.27-1.02-2.27-2.27h0c0-1.26,1.02-2.27,2.27-2.27Z"/>
        <path class="cls-2" d="M185.66,139.38h0c1.26,0,2.27,1.02,2.27,2.27h0c0,1.26-1.02,2.27-2.27,2.27h0c-1.26,0-2.27-1.02-2.27-2.27h0c0-1.26,1.02-2.27,2.27-2.27Z"/>
        <path class="cls-2" d="M197.78,139.38h0c1.26,0,2.27,1.02,2.27,2.27h0c0,1.26-1.02,2.27-2.27,2.27h0c-1.26,0-2.27-1.02-2.27-2.27h0c0-1.26,1.02-2.27,2.27-2.27Z"/>
        <path class="cls-2" d="M228.08,139.38h0c1.26,0,2.27,1.02,2.27,2.27h0c0,1.26-1.02,2.27-2.27,2.27h0c-1.26,0-2.27-1.02-2.27-2.27h0c0-1.26,1.02-2.27,2.27-2.27Z"/>
        <path class="cls-2" d="M234.14,139.38h0c1.26,0,2.27,1.02,2.27,2.27h0c0,1.26-1.02,2.27-2.27,2.27h0c-1.26,0-2.27-1.02-2.27-2.27h0c0-1.26,1.02-2.27,2.27-2.27Z"/>
        <path class="cls-2" d="M240.2,139.38h0c1.26,0,2.27,1.02,2.27,2.27h0c0,1.26-1.02,2.27-2.27,2.27h0c-1.26,0-2.27-1.02-2.27-2.27h0c0-1.26,1.02-2.27,2.27-2.27Z"/>
        <path class="cls-2" d="M246.26,139.38h0c1.26,0,2.27,1.02,2.27,2.27h0c0,1.26-1.02,2.27-2.27,2.27h0c-1.26,0-2.27-1.02-2.27-2.27h0c0-1.26,1.02-2.27,2.27-2.27Z"/>
        <path class="cls-2" d="M252.32,139.38h0c1.26,0,2.27,1.02,2.27,2.27h0c0,1.26-1.02,2.27-2.27,2.27h0c-1.26,0-2.27-1.02-2.27-2.27h0c0-1.26,1.02-2.27,2.27-2.27Z"/>
        <path class="cls-2" d="M258.38,139.38h0c1.26,0,2.27,1.02,2.27,2.27h0c0,1.26-1.02,2.27-2.27,2.27h0c-1.26,0-2.27-1.02-2.27-2.27h0c0-1.26,1.02-2.27,2.27-2.27Z"/>
        <path class="cls-2" d="M64.46,145.44h0c1.26,0,2.27,1.02,2.27,2.27h0c0,1.26-1.02,2.27-2.27,2.27h0c-1.26,0-2.27-1.02-2.27-2.27h0c0-1.26,1.02-2.27,2.27-2.27Z"/>
        <path class="cls-2" d="M70.52,145.44h0c1.26,0,2.27,1.02,2.27,2.27h0c0,1.26-1.02,2.27-2.27,2.27h0c-1.26,0-2.27-1.02-2.27-2.27h0c0-1.26,1.02-2.27,2.27-2.27Z"/>
        <path class="cls-2" d="M76.58,145.44h0c1.26,0,2.27,1.02,2.27,2.27h0c0,1.26-1.02,2.27-2.27,2.27h0c-1.26,0-2.27-1.02-2.27-2.27h0c0-1.26,1.02-2.27,2.27-2.27Z"/>
        <path class="cls-2" d="M82.64,145.44h0c1.26,0,2.27,1.02,2.27,2.27h0c0,1.26-1.02,2.27-2.27,2.27h0c-1.26,0-2.27-1.02-2.27-2.27h0c0-1.26,1.02-2.27,2.27-2.27Z"/>
        <path class="cls-2" d="M88.7,145.44h0c1.26,0,2.27,1.02,2.27,2.27h0c0,1.26-1.02,2.27-2.27,2.27h0c-1.26,0-2.27-1.02-2.27-2.27h0c0-1.26,1.02-2.27,2.27-2.27Z"/>
        <path class="cls-2" d="M94.76,145.44h0c1.26,0,2.27,1.02,2.27,2.27h0c0,1.26-1.02,2.27-2.27,2.27h0c-1.26,0-2.27-1.02-2.27-2.27h0c0-1.26,1.02-2.27,2.27-2.27Z"/>
        <path class="cls-2" d="M100.82,145.44h0c1.26,0,2.27,1.02,2.27,2.27h0c0,1.26-1.02,2.27-2.27,2.27h0c-1.26,0-2.27-1.02-2.27-2.27h0c0-1.26,1.02-2.27,2.27-2.27Z"/>
        <path class="cls-2" d="M125.06,145.44h0c1.26,0,2.27,1.02,2.27,2.27h0c0,1.26-1.02,2.27-2.27,2.27h0c-1.26,0-2.27-1.02-2.27-2.27h0c0-1.26,1.02-2.27,2.27-2.27Z"/>
        <path class="cls-2" d="M137.18,145.44h0c1.26,0,2.27,1.02,2.27,2.27h0c0,1.26-1.02,2.27-2.27,2.27h0c-1.26,0-2.27-1.02-2.27-2.27h0c0-1.26,1.02-2.27,2.27-2.27Z"/>
        <path class="cls-2" d="M143.24,145.44h0c1.26,0,2.27,1.02,2.27,2.27h0c0,1.26-1.02,2.27-2.27,2.27h0c-1.26,0-2.27-1.02-2.27-2.27h0c0-1.26,1.02-2.27,2.27-2.27Z"/>
        <path class="cls-2" d="M149.3,145.44h0c1.26,0,2.27,1.02,2.27,2.27h0c0,1.26-1.02,2.27-2.27,2.27h0c-1.26,0-2.27-1.02-2.27-2.27h0c0-1.26,1.02-2.27,2.27-2.27Z"/>
        <path class="cls-2" d="M161.42,145.44h0c1.26,0,2.27,1.02,2.27,2.27h0c0,1.26-1.02,2.27-2.27,2.27h0c-1.26,0-2.27-1.02-2.27-2.27h0c0-1.26,1.02-2.27,2.27-2.27Z"/>
        <path class="cls-2" d="M167.48,145.44h0c1.26,0,2.27,1.02,2.27,2.27h0c0,1.26-1.02,2.27-2.27,2.27h0c-1.26,0-2.27-1.02-2.27-2.27h0c0-1.26,1.02-2.27,2.27-2.27Z"/>
        <path class="cls-2" d="M173.54,145.44h0c1.26,0,2.27,1.02,2.27,2.27h0c0,1.26-1.02,2.27-2.27,2.27h0c-1.26,0-2.27-1.02-2.27-2.27h0c0-1.26,1.02-2.27,2.27-2.27Z"/>
        <path class="cls-2" d="M179.6,145.44h0c1.26,0,2.27,1.02,2.27,2.27h0c0,1.26-1.02,2.27-2.27,2.27h0c-1.26,0-2.27-1.02-2.27-2.27h0c0-1.26,1.02-2.27,2.27-2.27Z"/>
        <path class="cls-2" d="M185.66,145.44h0c1.26,0,2.27,1.02,2.27,2.27h0c0,1.26-1.02,2.27-2.27,2.27h0c-1.26,0-2.27-1.02-2.27-2.27h0c0-1.26,1.02-2.27,2.27-2.27Z"/>
        <path class="cls-2" d="M209.9,145.44h0c1.26,0,2.27,1.02,2.27,2.27h0c0,1.26-1.02,2.27-2.27,2.27h0c-1.26,0-2.27-1.02-2.27-2.27h0c0-1.26,1.02-2.27,2.27-2.27Z"/>
        <path class="cls-2" d="M215.96,145.44h0c1.26,0,2.27,1.02,2.27,2.27h0c0,1.26-1.02,2.27-2.27,2.27h0c-1.26,0-2.27-1.02-2.27-2.27h0c0-1.26,1.02-2.27,2.27-2.27Z"/>
        <path class="cls-2" d="M222.02,145.44h0c1.26,0,2.27,1.02,2.27,2.27h0c0,1.26-1.02,2.27-2.27,2.27h0c-1.26,0-2.27-1.02-2.27-2.27h0c0-1.26,1.02-2.27,2.27-2.27Z"/>
        <path class="cls-2" d="M228.08,145.44h0c1.26,0,2.27,1.02,2.27,2.27h0c0,1.26-1.02,2.27-2.27,2.27h0c-1.26,0-2.27-1.02-2.27-2.27h0c0-1.26,1.02-2.27,2.27-2.27Z"/>
        <path class="cls-2" d="M234.14,145.44h0c1.26,0,2.27,1.02,2.27,2.27h0c0,1.26-1.02,2.27-2.27,2.27h0c-1.26,0-2.27-1.02-2.27-2.27h0c0-1.26,1.02-2.27,2.27-2.27Z"/>
        <path class="cls-2" d="M240.2,145.44h0c1.26,0,2.27,1.02,2.27,2.27h0c0,1.26-1.02,2.27-2.27,2.27h0c-1.26,0-2.27-1.02-2.27-2.27h0c0-1.26,1.02-2.27,2.27-2.27Z"/>
        <path class="cls-2" d="M112.94,151.5h0c1.26,0,2.27,1.02,2.27,2.27h0c0,1.26-1.02,2.27-2.27,2.27h0c-1.26,0-2.27-1.02-2.27-2.27h0c0-1.26,1.02-2.27,2.27-2.27Z"/>
        <path class="cls-2" d="M119,151.5h0c1.26,0,2.27,1.02,2.27,2.27h0c0,1.26-1.02,2.27-2.27,2.27h0c-1.26,0-2.27-1.02-2.27-2.27h0c0-1.26,1.02-2.27,2.27-2.27Z"/>
        <path class="cls-2" d="M125.06,151.5h0c1.26,0,2.27,1.02,2.27,2.27h0c0,1.26-1.02,2.27-2.27,2.27h0c-1.26,0-2.27-1.02-2.27-2.27h0c0-1.26,1.02-2.27,2.27-2.27Z"/>
        <path class="cls-2" d="M143.24,151.5h0c1.26,0,2.27,1.02,2.27,2.27h0c0,1.26-1.02,2.27-2.27,2.27h0c-1.26,0-2.27-1.02-2.27-2.27h0c0-1.26,1.02-2.27,2.27-2.27Z"/>
        <path class="cls-2" d="M149.3,151.5h0c1.26,0,2.27,1.02,2.27,2.27h0c0,1.26-1.02,2.27-2.27,2.27h0c-1.26,0-2.27-1.02-2.27-2.27h0c0-1.26,1.02-2.27,2.27-2.27Z"/>
        <path class="cls-2" d="M179.6,151.5h0c1.26,0,2.27,1.02,2.27,2.27h0c0,1.26-1.02,2.27-2.27,2.27h0c-1.26,0-2.27-1.02-2.27-2.27h0c0-1.26,1.02-2.27,2.27-2.27Z"/>
        <path class="cls-2" d="M185.66,151.5h0c1.26,0,2.27,1.02,2.27,2.27h0c0,1.26-1.02,2.27-2.27,2.27h0c-1.26,0-2.27-1.02-2.27-2.27h0c0-1.26,1.02-2.27,2.27-2.27Z"/>
        <path class="cls-2" d="M191.72,151.5h0c1.26,0,2.27,1.02,2.27,2.27h0c0,1.26-1.02,2.27-2.27,2.27h0c-1.26,0-2.27-1.02-2.27-2.27h0c0-1.26,1.02-2.27,2.27-2.27Z"/>
        <path class="cls-2" d="M197.78,151.5h0c1.26,0,2.27,1.02,2.27,2.27h0c0,1.26-1.02,2.27-2.27,2.27h0c-1.26,0-2.27-1.02-2.27-2.27h0c0-1.26,1.02-2.27,2.27-2.27Z"/>
        <path class="cls-2" d="M203.84,151.5h0c1.26,0,2.27,1.02,2.27,2.27h0c0,1.26-1.02,2.27-2.27,2.27h0c-1.26,0-2.27-1.02-2.27-2.27h0c0-1.26,1.02-2.27,2.27-2.27Z"/>
        <path class="cls-2" d="M209.9,151.5h0c1.26,0,2.27,1.02,2.27,2.27h0c0,1.26-1.02,2.27-2.27,2.27h0c-1.26,0-2.27-1.02-2.27-2.27h0c0-1.26,1.02-2.27,2.27-2.27Z"/>
        <path class="cls-2" d="M234.14,151.5h0c1.26,0,2.27,1.02,2.27,2.27h0c0,1.26-1.02,2.27-2.27,2.27h0c-1.26,0-2.27-1.02-2.27-2.27h0c0-1.26,1.02-2.27,2.27-2.27Z"/>
        <path class="cls-2" d="M252.32,151.5h0c1.26,0,2.27,1.02,2.27,2.27h0c0,1.26-1.02,2.27-2.27,2.27h0c-1.26,0-2.27-1.02-2.27-2.27h0c0-1.26,1.02-2.27,2.27-2.27Z"/>
        <path class="cls-2" d="M258.38,151.5h0c1.26,0,2.27,1.02,2.27,2.27h0c0,1.26-1.02,2.27-2.27,2.27h0c-1.26,0-2.27-1.02-2.27-2.27h0c0-1.26,1.02-2.27,2.27-2.27Z"/>
        <path class="cls-2" d="M143.24,157.56h0c1.26,0,2.27,1.02,2.27,2.27h0c0,1.26-1.02,2.27-2.27,2.27h0c-1.26,0-2.27-1.02-2.27-2.27h0c0-1.26,1.02-2.27,2.27-2.27Z"/>
        <path class="cls-2" d="M149.3,157.56h0c1.26,0,2.27,1.02,2.27,2.27h0c0,1.26-1.02,2.27-2.27,2.27h0c-1.26,0-2.27-1.02-2.27-2.27h0c0-1.26,1.02-2.27,2.27-2.27Z"/>
        <path class="cls-2" d="M167.48,157.56h0c1.26,0,2.27,1.02,2.27,2.27h0c0,1.26-1.02,2.27-2.27,2.27h0c-1.26,0-2.27-1.02-2.27-2.27h0c0-1.26,1.02-2.27,2.27-2.27Z"/>
        <path class="cls-2" d="M173.54,157.56h0c1.26,0,2.27,1.02,2.27,2.27h0c0,1.26-1.02,2.27-2.27,2.27h0c-1.26,0-2.27-1.02-2.27-2.27h0c0-1.26,1.02-2.27,2.27-2.27Z"/>
        <path class="cls-2" d="M185.66,157.56h0c1.26,0,2.27,1.02,2.27,2.27h0c0,1.26-1.02,2.27-2.27,2.27h0c-1.26,0-2.27-1.02-2.27-2.27h0c0-1.26,1.02-2.27,2.27-2.27Z"/>
        <path class="cls-2" d="M197.78,157.56h0c1.26,0,2.27,1.02,2.27,2.27h0c0,1.26-1.02,2.27-2.27,2.27h0c-1.26,0-2.27-1.02-2.27-2.27h0c0-1.26,1.02-2.27,2.27-2.27Z"/>
        <path class="cls-2" d="M203.84,157.56h0c1.26,0,2.27,1.02,2.27,2.27h0c0,1.26-1.02,2.27-2.27,2.27h0c-1.26,0-2.27-1.02-2.27-2.27h0c0-1.26,1.02-2.27,2.27-2.27Z"/>
        <path class="cls-2" d="M209.9,157.56h0c1.26,0,2.27,1.02,2.27,2.27h0c0,1.26-1.02,2.27-2.27,2.27h0c-1.26,0-2.27-1.02-2.27-2.27h0c0-1.26,1.02-2.27,2.27-2.27Z"/>
        <path class="cls-2" d="M222.02,157.56h0c1.26,0,2.27,1.02,2.27,2.27h0c0,1.26-1.02,2.27-2.27,2.27h0c-1.26,0-2.27-1.02-2.27-2.27h0c0-1.26,1.02-2.27,2.27-2.27Z"/>
        <path class="cls-2" d="M234.14,157.56h0c1.26,0,2.27,1.02,2.27,2.27h0c0,1.26-1.02,2.27-2.27,2.27h0c-1.26,0-2.27-1.02-2.27-2.27h0c0-1.26,1.02-2.27,2.27-2.27Z"/>
        <path class="cls-2" d="M240.2,157.56h0c1.26,0,2.27,1.02,2.27,2.27h0c0,1.26-1.02,2.27-2.27,2.27h0c-1.26,0-2.27-1.02-2.27-2.27h0c0-1.26,1.02-2.27,2.27-2.27Z"/>
        <path class="cls-2" d="M246.26,157.56h0c1.26,0,2.27,1.02,2.27,2.27h0c0,1.26-1.02,2.27-2.27,2.27h0c-1.26,0-2.27-1.02-2.27-2.27h0c0-1.26,1.02-2.27,2.27-2.27Z"/>
        <path class="cls-2" d="M252.32,157.56h0c1.26,0,2.27,1.02,2.27,2.27h0c0,1.26-1.02,2.27-2.27,2.27h0c-1.26,0-2.27-1.02-2.27-2.27h0c0-1.26,1.02-2.27,2.27-2.27Z"/>
        <path class="cls-2" d="M112.94,163.62h0c1.26,0,2.27,1.02,2.27,2.27h0c0,1.26-1.02,2.27-2.27,2.27h0c-1.26,0-2.27-1.02-2.27-2.27h0c0-1.26,1.02-2.27,2.27-2.27Z"/>
        <path class="cls-2" d="M119,163.62h0c1.26,0,2.27,1.02,2.27,2.27h0c0,1.26-1.02,2.27-2.27,2.27h0c-1.26,0-2.27-1.02-2.27-2.27h0c0-1.26,1.02-2.27,2.27-2.27Z"/>
        <path class="cls-2" d="M125.06,163.62h0c1.26,0,2.27,1.02,2.27,2.27h0c0,1.26-1.02,2.27-2.27,2.27h0c-1.26,0-2.27-1.02-2.27-2.27h0c0-1.26,1.02-2.27,2.27-2.27Z"/>
        <path class="cls-2" d="M131.12,163.62h0c1.26,0,2.27,1.02,2.27,2.27h0c0,1.26-1.02,2.27-2.27,2.27h0c-1.26,0-2.27-1.02-2.27-2.27h0c0-1.26,1.02-2.27,2.27-2.27Z"/>
        <path class="cls-2" d="M149.3,163.62h0c1.26,0,2.27,1.02,2.27,2.27h0c0,1.26-1.02,2.27-2.27,2.27h0c-1.26,0-2.27-1.02-2.27-2.27h0c0-1.26,1.02-2.27,2.27-2.27Z"/>
        <path class="cls-2" d="M155.36,163.62h0c1.26,0,2.27,1.02,2.27,2.27h0c0,1.26-1.02,2.27-2.27,2.27h0c-1.26,0-2.27-1.02-2.27-2.27h0c0-1.26,1.02-2.27,2.27-2.27Z"/>
        <path class="cls-2" d="M191.72,163.62h0c1.26,0,2.27,1.02,2.27,2.27h0c0,1.26-1.02,2.27-2.27,2.27h0c-1.26,0-2.27-1.02-2.27-2.27h0c0-1.26,1.02-2.27,2.27-2.27Z"/>
        <path class="cls-2" d="M197.78,163.62h0c1.26,0,2.27,1.02,2.27,2.27h0c0,1.26-1.02,2.27-2.27,2.27h0c-1.26,0-2.27-1.02-2.27-2.27h0c0-1.26,1.02-2.27,2.27-2.27Z"/>
        <path class="cls-2" d="M209.9,163.62h0c1.26,0,2.27,1.02,2.27,2.27h0c0,1.26-1.02,2.27-2.27,2.27h0c-1.26,0-2.27-1.02-2.27-2.27h0c0-1.26,1.02-2.27,2.27-2.27Z"/>
        <path class="cls-2" d="M234.14,163.62h0c1.26,0,2.27,1.02,2.27,2.27h0c0,1.26-1.02,2.27-2.27,2.27h0c-1.26,0-2.27-1.02-2.27-2.27h0c0-1.26,1.02-2.27,2.27-2.27Z"/>
        <path class="cls-2" d="M240.2,163.62h0c1.26,0,2.27,1.02,2.27,2.27h0c0,1.26-1.02,2.27-2.27,2.27h0c-1.26,0-2.27-1.02-2.27-2.27h0c0-1.26,1.02-2.27,2.27-2.27Z"/>
        <path class="cls-2" d="M246.26,163.62h0c1.26,0,2.27,1.02,2.27,2.27h0c0,1.26-1.02,2.27-2.27,2.27h0c-1.26,0-2.27-1.02-2.27-2.27h0c0-1.26,1.02-2.27,2.27-2.27Z"/>
        <path class="cls-2" d="M252.32,163.62h0c1.26,0,2.27,1.02,2.27,2.27h0c0,1.26-1.02,2.27-2.27,2.27h0c-1.26,0-2.27-1.02-2.27-2.27h0c0-1.26,1.02-2.27,2.27-2.27Z"/>
        <path class="cls-2" d="M119,169.68h0c1.26,0,2.27,1.02,2.27,2.27h0c0,1.26-1.02,2.27-2.27,2.27h0c-1.26,0-2.27-1.02-2.27-2.27h0c0-1.26,1.02-2.27,2.27-2.27Z"/>
        <path class="cls-2" d="M137.18,169.68h0c1.26,0,2.27,1.02,2.27,2.27h0c0,1.26-1.02,2.27-2.27,2.27h0c-1.26,0-2.27-1.02-2.27-2.27h0c0-1.26,1.02-2.27,2.27-2.27Z"/>
        <path class="cls-2" d="M149.3,169.68h0c1.26,0,2.27,1.02,2.27,2.27h0c0,1.26-1.02,2.27-2.27,2.27h0c-1.26,0-2.27-1.02-2.27-2.27h0c0-1.26,1.02-2.27,2.27-2.27Z"/>
        <path class="cls-2" d="M161.42,169.68h0c1.26,0,2.27,1.02,2.27,2.27h0c0,1.26-1.02,2.27-2.27,2.27h0c-1.26,0-2.27-1.02-2.27-2.27h0c0-1.26,1.02-2.27,2.27-2.27Z"/>
        <path class="cls-2" d="M179.6,169.68h0c1.26,0,2.27,1.02,2.27,2.27h0c0,1.26-1.02,2.27-2.27,2.27h0c-1.26,0-2.27-1.02-2.27-2.27h0c0-1.26,1.02-2.27,2.27-2.27Z"/>
        <path class="cls-2" d="M191.72,169.68h0c1.26,0,2.27,1.02,2.27,2.27h0c0,1.26-1.02,2.27-2.27,2.27h0c-1.26,0-2.27-1.02-2.27-2.27h0c0-1.26,1.02-2.27,2.27-2.27Z"/>
        <path class="cls-2" d="M197.78,169.68h0c1.26,0,2.27,1.02,2.27,2.27h0c0,1.26-1.02,2.27-2.27,2.27h0c-1.26,0-2.27-1.02-2.27-2.27h0c0-1.26,1.02-2.27,2.27-2.27Z"/>
        <path class="cls-2" d="M209.9,169.68h0c1.26,0,2.27,1.02,2.27,2.27h0c0,1.26-1.02,2.27-2.27,2.27h0c-1.26,0-2.27-1.02-2.27-2.27h0c0-1.26,1.02-2.27,2.27-2.27Z"/>
        <path class="cls-2" d="M215.96,169.68h0c1.26,0,2.27,1.02,2.27,2.27h0c0,1.26-1.02,2.27-2.27,2.27h0c-1.26,0-2.27-1.02-2.27-2.27h0c0-1.26,1.02-2.27,2.27-2.27Z"/>
        <path class="cls-2" d="M222.02,169.68h0c1.26,0,2.27,1.02,2.27,2.27h0c0,1.26-1.02,2.27-2.27,2.27h0c-1.26,0-2.27-1.02-2.27-2.27h0c0-1.26,1.02-2.27,2.27-2.27Z"/>
        <path class="cls-2" d="M228.08,169.68h0c1.26,0,2.27,1.02,2.27,2.27h0c0,1.26-1.02,2.27-2.27,2.27h0c-1.26,0-2.27-1.02-2.27-2.27h0c0-1.26,1.02-2.27,2.27-2.27Z"/>
        <path class="cls-2" d="M234.14,169.68h0c1.26,0,2.27,1.02,2.27,2.27h0c0,1.26-1.02,2.27-2.27,2.27h0c-1.26,0-2.27-1.02-2.27-2.27h0c0-1.26,1.02-2.27,2.27-2.27Z"/>
        <path class="cls-2" d="M246.26,169.68h0c1.26,0,2.27,1.02,2.27,2.27h0c0,1.26-1.02,2.27-2.27,2.27h0c-1.26,0-2.27-1.02-2.27-2.27h0c0-1.26,1.02-2.27,2.27-2.27Z"/>
        <path class="cls-2" d="M252.32,169.68h0c1.26,0,2.27,1.02,2.27,2.27h0c0,1.26-1.02,2.27-2.27,2.27h0c-1.26,0-2.27-1.02-2.27-2.27h0c0-1.26,1.02-2.27,2.27-2.27Z"/>
        <path class="cls-2" d="M258.38,169.68h0c1.26,0,2.27,1.02,2.27,2.27h0c0,1.26-1.02,2.27-2.27,2.27h0c-1.26,0-2.27-1.02-2.27-2.27h0c0-1.26,1.02-2.27,2.27-2.27Z"/>
        <path class="cls-2" d="M125.06,175.74h0c1.26,0,2.27,1.02,2.27,2.27h0c0,1.26-1.02,2.27-2.27,2.27h0c-1.26,0-2.27-1.02-2.27-2.27h0c0-1.26,1.02-2.27,2.27-2.27Z"/>
        <path class="cls-2" d="M131.12,175.74h0c1.26,0,2.27,1.02,2.27,2.27h0c0,1.26-1.02,2.27-2.27,2.27h0c-1.26,0-2.27-1.02-2.27-2.27h0c0-1.26,1.02-2.27,2.27-2.27Z"/>
        <path class="cls-2" d="M149.3,175.74h0c1.26,0,2.27,1.02,2.27,2.27h0c0,1.26-1.02,2.27-2.27,2.27h0c-1.26,0-2.27-1.02-2.27-2.27h0c0-1.26,1.02-2.27,2.27-2.27Z"/>
        <path class="cls-2" d="M179.6,175.74h0c1.26,0,2.27,1.02,2.27,2.27h0c0,1.26-1.02,2.27-2.27,2.27h0c-1.26,0-2.27-1.02-2.27-2.27h0c0-1.26,1.02-2.27,2.27-2.27Z"/>
        <path class="cls-2" d="M209.9,175.74h0c1.26,0,2.27,1.02,2.27,2.27h0c0,1.26-1.02,2.27-2.27,2.27h0c-1.26,0-2.27-1.02-2.27-2.27h0c0-1.26,1.02-2.27,2.27-2.27Z"/>
        <path class="cls-2" d="M215.96,175.74h0c1.26,0,2.27,1.02,2.27,2.27h0c0,1.26-1.02,2.27-2.27,2.27h0c-1.26,0-2.27-1.02-2.27-2.27h0c0-1.26,1.02-2.27,2.27-2.27Z"/>
        <path class="cls-2" d="M228.08,175.74h0c1.26,0,2.27,1.02,2.27,2.27h0c0,1.26-1.02,2.27-2.27,2.27h0c-1.26,0-2.27-1.02-2.27-2.27h0c0-1.26,1.02-2.27,2.27-2.27Z"/>
        <path class="cls-2" d="M234.14,175.74h0c1.26,0,2.27,1.02,2.27,2.27h0c0,1.26-1.02,2.27-2.27,2.27h0c-1.26,0-2.27-1.02-2.27-2.27h0c0-1.26,1.02-2.27,2.27-2.27Z"/>
        <path class="cls-2" d="M240.2,175.74h0c1.26,0,2.27,1.02,2.27,2.27h0c0,1.26-1.02,2.27-2.27,2.27h0c-1.26,0-2.27-1.02-2.27-2.27h0c0-1.26,1.02-2.27,2.27-2.27Z"/>
        <path class="cls-2" d="M258.38,175.74h0c1.26,0,2.27,1.02,2.27,2.27h0c0,1.26-1.02,2.27-2.27,2.27h0c-1.26,0-2.27-1.02-2.27-2.27h0c0-1.26,1.02-2.27,2.27-2.27Z"/>
        <path class="cls-2" d="M119,181.8h0c1.26,0,2.27,1.02,2.27,2.27h0c0,1.26-1.02,2.27-2.27,2.27h0c-1.26,0-2.27-1.02-2.27-2.27h0c0-1.26,1.02-2.27,2.27-2.27Z"/>
        <path class="cls-2" d="M131.12,181.8h0c1.26,0,2.27,1.02,2.27,2.27h0c0,1.26-1.02,2.27-2.27,2.27h0c-1.26,0-2.27-1.02-2.27-2.27h0c0-1.26,1.02-2.27,2.27-2.27Z"/>
        <path class="cls-2" d="M137.18,181.8h0c1.26,0,2.27,1.02,2.27,2.27h0c0,1.26-1.02,2.27-2.27,2.27h0c-1.26,0-2.27-1.02-2.27-2.27h0c0-1.26,1.02-2.27,2.27-2.27Z"/>
        <path class="cls-2" d="M143.24,181.8h0c1.26,0,2.27,1.02,2.27,2.27h0c0,1.26-1.02,2.27-2.27,2.27h0c-1.26,0-2.27-1.02-2.27-2.27h0c0-1.26,1.02-2.27,2.27-2.27Z"/>
        <path class="cls-2" d="M155.36,181.8h0c1.26,0,2.27,1.02,2.27,2.27h0c0,1.26-1.02,2.27-2.27,2.27h0c-1.26,0-2.27-1.02-2.27-2.27h0c0-1.26,1.02-2.27,2.27-2.27Z"/>
        <path class="cls-2" d="M161.42,181.8h0c1.26,0,2.27,1.02,2.27,2.27h0c0,1.26-1.02,2.27-2.27,2.27h0c-1.26,0-2.27-1.02-2.27-2.27h0c0-1.26,1.02-2.27,2.27-2.27Z"/>
        <path class="cls-2" d="M167.48,181.8h0c1.26,0,2.27,1.02,2.27,2.27h0c0,1.26-1.02,2.27-2.27,2.27h0c-1.26,0-2.27-1.02-2.27-2.27h0c0-1.26,1.02-2.27,2.27-2.27Z"/>
        <path class="cls-2" d="M173.54,181.8h0c1.26,0,2.27,1.02,2.27,2.27h0c0,1.26-1.02,2.27-2.27,2.27h0c-1.26,0-2.27-1.02-2.27-2.27h0c0-1.26,1.02-2.27,2.27-2.27Z"/>
        <path class="cls-2" d="M185.66,181.8h0c1.26,0,2.27,1.02,2.27,2.27h0c0,1.26-1.02,2.27-2.27,2.27h0c-1.26,0-2.27-1.02-2.27-2.27h0c0-1.26,1.02-2.27,2.27-2.27Z"/>
        <path class="cls-2" d="M191.72,181.8h0c1.26,0,2.27,1.02,2.27,2.27h0c0,1.26-1.02,2.27-2.27,2.27h0c-1.26,0-2.27-1.02-2.27-2.27h0c0-1.26,1.02-2.27,2.27-2.27Z"/>
        <path class="cls-2" d="M209.9,181.8h0c1.26,0,2.27,1.02,2.27,2.27h0c0,1.26-1.02,2.27-2.27,2.27h0c-1.26,0-2.27-1.02-2.27-2.27h0c0-1.26,1.02-2.27,2.27-2.27Z"/>
        <path class="cls-2" d="M234.14,181.8h0c1.26,0,2.27,1.02,2.27,2.27h0c0,1.26-1.02,2.27-2.27,2.27h0c-1.26,0-2.27-1.02-2.27-2.27h0c0-1.26,1.02-2.27,2.27-2.27Z"/>
        <path class="cls-2" d="M246.26,181.8h0c1.26,0,2.27,1.02,2.27,2.27h0c0,1.26-1.02,2.27-2.27,2.27h0c-1.26,0-2.27-1.02-2.27-2.27h0c0-1.26,1.02-2.27,2.27-2.27Z"/>
        <path class="cls-2" d="M252.32,181.8h0c1.26,0,2.27,1.02,2.27,2.27h0c0,1.26-1.02,2.27-2.27,2.27h0c-1.26,0-2.27-1.02-2.27-2.27h0c0-1.26,1.02-2.27,2.27-2.27Z"/>
        <path class="cls-2" d="M258.38,181.8h0c1.26,0,2.27,1.02,2.27,2.27h0c0,1.26-1.02,2.27-2.27,2.27h0c-1.26,0-2.27-1.02-2.27-2.27h0c0-1.26,1.02-2.27,2.27-2.27Z"/>
        <path class="cls-2" d="M125.06,187.86h0c1.26,0,2.27,1.02,2.27,2.27h0c0,1.26-1.02,2.27-2.27,2.27h0c-1.26,0-2.27-1.02-2.27-2.27h0c0-1.26,1.02-2.27,2.27-2.27Z"/>
        <path class="cls-2" d="M131.12,187.86h0c1.26,0,2.27,1.02,2.27,2.27h0c0,1.26-1.02,2.27-2.27,2.27h0c-1.26,0-2.27-1.02-2.27-2.27h0c0-1.26,1.02-2.27,2.27-2.27Z"/>
        <path class="cls-2" d="M143.24,187.86h0c1.26,0,2.27,1.02,2.27,2.27h0c0,1.26-1.02,2.27-2.27,2.27h0c-1.26,0-2.27-1.02-2.27-2.27h0c0-1.26,1.02-2.27,2.27-2.27Z"/>
        <path class="cls-2" d="M149.3,187.86h0c1.26,0,2.27,1.02,2.27,2.27h0c0,1.26-1.02,2.27-2.27,2.27h0c-1.26,0-2.27-1.02-2.27-2.27h0c0-1.26,1.02-2.27,2.27-2.27Z"/>
        <path class="cls-2" d="M161.42,187.86h0c1.26,0,2.27,1.02,2.27,2.27h0c0,1.26-1.02,2.27-2.27,2.27h0c-1.26,0-2.27-1.02-2.27-2.27h0c0-1.26,1.02-2.27,2.27-2.27Z"/>
        <path class="cls-2" d="M167.48,187.86h0c1.26,0,2.27,1.02,2.27,2.27h0c0,1.26-1.02,2.27-2.27,2.27h0c-1.26,0-2.27-1.02-2.27-2.27h0c0-1.26,1.02-2.27,2.27-2.27Z"/>
        <path class="cls-2" d="M173.54,187.86h0c1.26,0,2.27,1.02,2.27,2.27h0c0,1.26-1.02,2.27-2.27,2.27h0c-1.26,0-2.27-1.02-2.27-2.27h0c0-1.26,1.02-2.27,2.27-2.27Z"/>
        <path class="cls-2" d="M179.6,187.86h0c1.26,0,2.27,1.02,2.27,2.27h0c0,1.26-1.02,2.27-2.27,2.27h0c-1.26,0-2.27-1.02-2.27-2.27h0c0-1.26,1.02-2.27,2.27-2.27Z"/>
        <path class="cls-2" d="M191.72,187.86h0c1.26,0,2.27,1.02,2.27,2.27h0c0,1.26-1.02,2.27-2.27,2.27h0c-1.26,0-2.27-1.02-2.27-2.27h0c0-1.26,1.02-2.27,2.27-2.27Z"/>
        <path class="cls-2" d="M203.84,187.86h0c1.26,0,2.27,1.02,2.27,2.27h0c0,1.26-1.02,2.27-2.27,2.27h0c-1.26,0-2.27-1.02-2.27-2.27h0c0-1.26,1.02-2.27,2.27-2.27Z"/>
        <path class="cls-2" d="M209.9,187.86h0c1.26,0,2.27,1.02,2.27,2.27h0c0,1.26-1.02,2.27-2.27,2.27h0c-1.26,0-2.27-1.02-2.27-2.27h0c0-1.26,1.02-2.27,2.27-2.27Z"/>
        <path class="cls-2" d="M215.96,187.86h0c1.26,0,2.27,1.02,2.27,2.27h0c0,1.26-1.02,2.27-2.27,2.27h0c-1.26,0-2.27-1.02-2.27-2.27h0c0-1.26,1.02-2.27,2.27-2.27Z"/>
        <path class="cls-2" d="M222.02,187.86h0c1.26,0,2.27,1.02,2.27,2.27h0c0,1.26-1.02,2.27-2.27,2.27h0c-1.26,0-2.27-1.02-2.27-2.27h0c0-1.26,1.02-2.27,2.27-2.27Z"/>
        <path class="cls-2" d="M240.2,187.86h0c1.26,0,2.27,1.02,2.27,2.27h0c0,1.26-1.02,2.27-2.27,2.27h0c-1.26,0-2.27-1.02-2.27-2.27h0c0-1.26,1.02-2.27,2.27-2.27Z"/>
        <path class="cls-2" d="M246.26,187.86h0c1.26,0,2.27,1.02,2.27,2.27h0c0,1.26-1.02,2.27-2.27,2.27h0c-1.26,0-2.27-1.02-2.27-2.27h0c0-1.26,1.02-2.27,2.27-2.27Z"/>
        <path class="cls-2" d="M119,193.92h0c1.26,0,2.27,1.02,2.27,2.27h0c0,1.26-1.02,2.27-2.27,2.27h0c-1.26,0-2.27-1.02-2.27-2.27h0c0-1.26,1.02-2.27,2.27-2.27Z"/>
        <path class="cls-2" d="M149.3,193.92h0c1.26,0,2.27,1.02,2.27,2.27h0c0,1.26-1.02,2.27-2.27,2.27h0c-1.26,0-2.27-1.02-2.27-2.27h0c0-1.26,1.02-2.27,2.27-2.27Z"/>
        <path class="cls-2" d="M167.48,193.92h0c1.26,0,2.27,1.02,2.27,2.27h0c0,1.26-1.02,2.27-2.27,2.27h0c-1.26,0-2.27-1.02-2.27-2.27h0c0-1.26,1.02-2.27,2.27-2.27Z"/>
        <path class="cls-2" d="M185.66,193.92h0c1.26,0,2.27,1.02,2.27,2.27h0c0,1.26-1.02,2.27-2.27,2.27h0c-1.26,0-2.27-1.02-2.27-2.27h0c0-1.26,1.02-2.27,2.27-2.27Z"/>
        <path class="cls-2" d="M203.84,193.92h0c1.26,0,2.27,1.02,2.27,2.27h0c0,1.26-1.02,2.27-2.27,2.27h0c-1.26,0-2.27-1.02-2.27-2.27h0c0-1.26,1.02-2.27,2.27-2.27Z"/>
        <path class="cls-2" d="M209.9,193.92h0c1.26,0,2.27,1.02,2.27,2.27h0c0,1.26-1.02,2.27-2.27,2.27h0c-1.26,0-2.27-1.02-2.27-2.27h0c0-1.26,1.02-2.27,2.27-2.27Z"/>
        <path class="cls-2" d="M215.96,193.92h0c1.26,0,2.27,1.02,2.27,2.27h0c0,1.26-1.02,2.27-2.27,2.27h0c-1.26,0-2.27-1.02-2.27-2.27h0c0-1.26,1.02-2.27,2.27-2.27Z"/>
        <path class="cls-2" d="M222.02,193.92h0c1.26,0,2.27,1.02,2.27,2.27h0c0,1.26-1.02,2.27-2.27,2.27h0c-1.26,0-2.27-1.02-2.27-2.27h0c0-1.26,1.02-2.27,2.27-2.27Z"/>
        <path class="cls-2" d="M246.26,193.92h0c1.26,0,2.27,1.02,2.27,2.27h0c0,1.26-1.02,2.27-2.27,2.27h0c-1.26,0-2.27-1.02-2.27-2.27h0c0-1.26,1.02-2.27,2.27-2.27Z"/>
        <path class="cls-2" d="M252.32,193.92h0c1.26,0,2.27,1.02,2.27,2.27h0c0,1.26-1.02,2.27-2.27,2.27h0c-1.26,0-2.27-1.02-2.27-2.27h0c0-1.26,1.02-2.27,2.27-2.27Z"/>
      </g>
    </g>
  </g>
</svg>