<?xml version="1.0" encoding="UTF-8"?>
<svg id="Layer_1" data-name="Layer 1" xmlns="http://www.w3.org/2000/svg" viewBox="0 0 262.19 200">
  <defs>
    <style>
      .cls-1 {
        fill: #fff;
        stroke-width: 0px;
      }
    </style>
  </defs>
  <g>
    <path class="cls-1" d="M44.71,173.07c-1.36-1.37-2.97-2.42-4.81-3.13-1.84-.71-3.82-1.07-5.92-1.07-1.99,0-3.67.33-5.03.99-1.36.66-2.51,1.53-3.45,2.62-.94,1.08-1.72,2.31-2.33,3.68-.61,1.37-1.17,2.78-1.66,4.22-.49,1.44-.97,2.85-1.43,4.22-.46,1.37-1,2.6-1.63,3.69-.62,1.08-1.38,1.96-2.26,2.61-.88.66-1.99.99-3.34.99-1.05,0-2.03-.19-2.93-.57s-1.69-.94-2.36-1.69c-.67-.75-1.2-1.68-1.59-2.8-.39-1.12-.59-2.4-.59-3.85,0-1.54.19-2.85.57-3.94.38-1.08.8-2.01,1.26-2.78.46-.77.88-1.41,1.26-1.91.38-.5.57-.94.57-1.33,0-.35-.08-.65-.25-.87-.17-.22-.42-.44-.75-.64l-3.08-1.57c-1.61,1.65-2.84,3.59-3.68,5.8-.85,2.21-1.27,4.66-1.27,7.34,0,2.39.37,4.51,1.1,6.35.74,1.84,1.72,3.39,2.95,4.64,1.23,1.25,2.63,2.21,4.22,2.87,1.59.66,3.23.99,4.93.99,2.12,0,3.91-.33,5.35-.99,1.44-.66,2.64-1.52,3.6-2.6.96-1.07,1.74-2.3,2.35-3.67.6-1.37,1.13-2.78,1.59-4.22.46-1.44.91-2.85,1.34-4.22.44-1.37.97-2.6,1.59-3.67.63-1.07,1.4-1.94,2.33-2.6.93-.66,2.12-.99,3.57-.99,1.32,0,2.51.22,3.59.67,1.07.45,1.99,1.09,2.76,1.93.77.84,1.37,1.86,1.79,3.07.42,1.21.64,2.58.64,4.12,0,1.85-.25,3.43-.75,4.71-.5,1.28-1.06,2.38-1.66,3.28-.61.91-1.16,1.66-1.66,2.26-.5.61-.75,1.14-.75,1.61,0,.31.08.6.25.86.17.26.37.47.62.65l3.08,1.88c1.92-1.81,3.44-3.99,4.57-6.55,1.13-2.56,1.69-5.39,1.69-8.5,0-2.55-.39-4.82-1.17-6.82-.78-2-1.85-3.68-3.22-5.06Z"/>
    <path class="cls-1" d="M41.86,113.17l-2.78,2.55c-.29.29-.43.61-.43.97s.17.73.5,1.11c.76.85,1.41,1.69,1.96,2.53.55.84,1,1.74,1.36,2.72.36.97.62,2.03.79,3.17.17,1.14.25,2.42.25,3.85,0,2.35-.43,4.54-1.27,6.57-.85,2.03-2.08,3.79-3.7,5.28-1.62,1.49-3.6,2.66-5.95,3.52-2.35.86-5.02,1.29-8.01,1.29s-5.53-.43-7.88-1.29c-2.35-.86-4.33-2.06-5.96-3.6-1.63-1.54-2.89-3.38-3.77-5.51-.88-2.14-1.32-4.49-1.32-7.06,0-1.43.11-2.69.32-3.79.21-1.09.47-2.05.79-2.88.31-.83.65-1.54,1-2.15.36-.6.69-1.13,1.01-1.57.31-.45.58-.83.79-1.16.21-.32.32-.63.32-.92,0-.38-.07-.67-.22-.87-.14-.2-.33-.38-.55-.53l-2.98-2.11c-1.88,1.99-3.36,4.26-4.46,6.82-1.09,2.56-1.64,5.6-1.64,9.13s.6,6.84,1.79,9.8c1.19,2.96,2.88,5.5,5.04,7.62,2.17,2.12,4.76,3.77,7.78,4.94,3.02,1.17,6.34,1.76,9.95,1.76s6.94-.55,9.95-1.64c3.02-1.09,5.6-2.64,7.76-4.63,2.16-1.99,3.83-4.39,5.03-7.21,1.2-2.81,1.79-5.95,1.79-9.42,0-3.95-.64-7.33-1.91-10.14-1.27-2.8-3.05-5.19-5.33-7.15Z"/>
    <path class="cls-1" d="M48.56,95.04c0-.56-.16-1.03-.47-1.41-.31-.38-.67-.65-1.07-.8l-11.6-4.49v-21.55l11.6-4.49c.45-.18.82-.45,1.1-.8.29-.36.44-.83.44-1.41v-5.03L.53,74.26v6.6l48.02,19.2v-5.03ZM30.73,86.53l-19.51-7.54c-.58-.22-1.26-.45-2.03-.69-.77-.23-1.61-.47-2.53-.72,1.81-.47,3.32-.95,4.52-1.44l19.54-7.54v17.93Z"/>
    <path class="cls-1" d="M48.56,33.25H14.34c-.45,0-.94.01-1.48.03-.53.02-1.08.06-1.64.1L47.39,5.6c.43-.34.73-.67.91-1.02.18-.35.27-.78.27-1.29V0H.53v5.7h34.02c.51,0,1.04-.01,1.59-.03.55-.02,1.11-.07,1.69-.13L1.64,33.35c-.45.36-.74.68-.89.95-.14.28-.22.71-.22,1.29v3.35h48.02v-5.7Z"/>
  </g>
  <g>
    <g>
      <g>
        <path class="cls-1" d="M163.73,106.97c.9.39,1.82.73,2.74,1.04.26.09.52.18.78.26,1.26.38,2.59.47,3.89.25,1.74-.35,3.25-1.42,4.17-2.94.4-.92.53-1.94.36-2.94-.15-.26-.57-.41-1.18-.72h0c-.22-.11-.74-.37-1.34-.67-.65-.32-1.39-.68-1.98-.95-.42-.19-.75-.35-.91-.4-.57-.21-.98-.31-1.39.31-.02.03-.04.06-.07.09-.46.65-1.55,1.94-1.89,2.33-.36.41-.72.46-1.34.15-1.82-.73-3.5-1.76-4.97-3.07-1.35-1.25-2.51-2.69-3.44-4.28-.36-.62-.04-.95.27-1.26.15-.15.32-.35.5-.56.14-.17.29-.36.43-.52.25-.31.46-.66.62-1.03.17-.35.15-.75-.05-1.08-.15-.31-1.39-3.35-1.91-4.59-.5-1.2-1.01-1.04-1.39-1.06-.38-.02-.77-.02-1.18-.02-.51.01-1,.21-1.39.53-.09.08-.18.15-.26.24-1.41,1.34-2.2,3.21-2.16,5.15.2,2.33,1.08,4.55,2.52,6.39.31.41,4.36,6.65,10.56,9.33Z"/>
        <path class="cls-1" d="M153.15,119.32c2.13.96,4.39,1.61,6.7,1.94,1.14.16,2.28.25,3.44.25h0c1.1,0,2.17-.08,3.23-.22,5.13-.67,9.76-2.9,13.4-6.22,2.46-2.24,4.47-4.98,5.87-8.05.31-.67.59-1.36.83-2.06.52-1.48.9-3.02,1.13-4.62.17-1.17.26-2.36.26-3.58,0-6.12-2.27-12-6.34-16.52-.29-.32-.59-.64-.9-.95-2.24-2.25-4.82-3.97-7.56-5.17-.47-.21-.95-.4-1.44-.58-1.71-.63-3.48-1.06-5.27-1.29-2.22-.29-4.48-.29-6.7.03-5.13.72-10.08,3.05-14.02,6.99-2.26,2.26-3.99,4.87-5.2,7.67-.93,2.15-1.56,4.4-1.85,6.7-.57,4.48.09,9.12,2.03,13.38.32.71.67,1.41,1.07,2.1l-1.26,4.6-2.25,8.21,13.12-3.44c.55.3,1.11.57,1.68.83ZM145.89,107.69c-.14-.22-.25-.45-.38-.67-2.42-4.2-3.2-8.91-2.51-13.38.36-2.34,1.12-4.61,2.26-6.7.37-.67.76-1.33,1.2-1.96,1.25-1.79,2.82-3.38,4.66-4.74.41-.3.82-.61,1.26-.88,4.39-2.76,9.42-3.63,14.17-2.87,2.34.37,4.61,1.14,6.7,2.29.78.43,1.54.93,2.26,1.46,2.02,1.49,3.8,3.35,5.21,5.6,1.54,2.45,2.49,5.11,2.9,7.8.34,2.23.29,4.49-.09,6.68-.41,2.35-1.21,4.62-2.41,6.7-1.5,2.61-3.6,4.9-6.23,6.7-.22.15-.43.32-.66.46-2.35,1.48-4.97,2.44-7.69,2.88-1.07.17-2.15.27-3.23.27h-.01c-1.16,0-2.3-.11-3.44-.3-2.35-.4-4.62-1.2-6.7-2.39-.11-.06-.22-.12-.33-.18l-.75-.44-7.78,2.04.64-2.34,1.44-5.25-.49-.78Z"/>
      </g>
      <path class="cls-1" d="M107.77,0c-1.13,0-2.04.91-2.04,2.04s.91,2.04,2.04,2.04,2.04-.91,2.04-2.04-.91-2.04-2.04-2.04Z"/>
      <path class="cls-1" d="M118.65,0c-1.13,0-2.04.91-2.04,2.04s.91,2.04,2.04,2.04,2.04-.91,2.04-2.04-.91-2.04-2.04-2.04Z"/>
      <path class="cls-1" d="M129.54,0c-1.13,0-2.04.91-2.04,2.04s.91,2.04,2.04,2.04,2.04-.91,2.04-2.04-.91-2.04-2.04-2.04Z"/>
      <path class="cls-1" d="M134.98,0c-1.13,0-2.04.91-2.04,2.04s.91,2.04,2.04,2.04,2.04-.91,2.04-2.04-.91-2.04-2.04-2.04Z"/>
      <path class="cls-1" d="M151.31,0c-1.13,0-2.04.91-2.04,2.04s.91,2.04,2.04,2.04,2.04-.91,2.04-2.04-.91-2.04-2.04-2.04Z"/>
      <path class="cls-1" d="M156.75,0c-1.13,0-2.04.91-2.04,2.04s.91,2.04,2.04,2.04,2.04-.91,2.04-2.04-.91-2.04-2.04-2.04Z"/>
      <path class="cls-1" d="M167.63,0c-1.13,0-2.04.91-2.04,2.04s.91,2.04,2.04,2.04,2.04-.91,2.04-2.04-.91-2.04-2.04-2.04Z"/>
      <path class="cls-1" d="M173.07,0c-1.13,0-2.04.91-2.04,2.04s.91,2.04,2.04,2.04,2.04-.91,2.04-2.04-.91-2.04-2.04-2.04Z"/>
      <path class="cls-1" d="M178.52,0c-1.13,0-2.04.91-2.04,2.04s.91,2.04,2.04,2.04,2.04-.91,2.04-2.04-.91-2.04-2.04-2.04Z"/>
      <path class="cls-1" d="M189.4,0c-1.13,0-2.04.91-2.04,2.04s.91,2.04,2.04,2.04,2.04-.91,2.04-2.04-.91-2.04-2.04-2.04Z"/>
      <path class="cls-1" d="M205.73,0c-1.13,0-2.04.91-2.04,2.04s.91,2.04,2.04,2.04,2.04-.91,2.04-2.04-.91-2.04-2.04-2.04Z"/>
      <path class="cls-1" d="M107.77,5.44c-1.13,0-2.04.91-2.04,2.04s.91,2.04,2.04,2.04,2.04-.91,2.04-2.04-.91-2.04-2.04-2.04Z"/>
      <path class="cls-1" d="M113.21,5.44c-1.13,0-2.04.91-2.04,2.04s.91,2.04,2.04,2.04,2.04-.91,2.04-2.04-.91-2.04-2.04-2.04Z"/>
      <path class="cls-1" d="M118.65,5.44c-1.13,0-2.04.91-2.04,2.04s.91,2.04,2.04,2.04,2.04-.91,2.04-2.04-.91-2.04-2.04-2.04Z"/>
      <path class="cls-1" d="M129.54,5.44c-1.13,0-2.04.91-2.04,2.04s.91,2.04,2.04,2.04,2.04-.91,2.04-2.04-.91-2.04-2.04-2.04Z"/>
      <path class="cls-1" d="M140.42,5.44c-1.13,0-2.04.91-2.04,2.04s.91,2.04,2.04,2.04,2.04-.91,2.04-2.04-.91-2.04-2.04-2.04Z"/>
      <path class="cls-1" d="M151.31,5.44c-1.13,0-2.04.91-2.04,2.04s.91,2.04,2.04,2.04,2.04-.91,2.04-2.04-.91-2.04-2.04-2.04Z"/>
      <path class="cls-1" d="M167.63,5.44c-1.13,0-2.04.91-2.04,2.04s.91,2.04,2.04,2.04,2.04-.91,2.04-2.04-.91-2.04-2.04-2.04Z"/>
      <path class="cls-1" d="M173.07,5.44c-1.13,0-2.04.91-2.04,2.04s.91,2.04,2.04,2.04,2.04-.91,2.04-2.04-.91-2.04-2.04-2.04Z"/>
      <path class="cls-1" d="M189.4,5.44c-1.13,0-2.04.91-2.04,2.04s.91,2.04,2.04,2.04,2.04-.91,2.04-2.04-.91-2.04-2.04-2.04Z"/>
      <path class="cls-1" d="M205.73,5.44c-1.13,0-2.04.91-2.04,2.04s.91,2.04,2.04,2.04,2.04-.91,2.04-2.04-.91-2.04-2.04-2.04Z"/>
      <path class="cls-1" d="M211.17,5.44c-1.13,0-2.04.91-2.04,2.04s.91,2.04,2.04,2.04,2.04-.91,2.04-2.04-.91-2.04-2.04-2.04Z"/>
      <path class="cls-1" d="M216.61,5.44c-1.13,0-2.04.91-2.04,2.04s.91,2.04,2.04,2.04,2.04-.91,2.04-2.04-.91-2.04-2.04-2.04Z"/>
      <path class="cls-1" d="M107.77,10.88c-1.13,0-2.04.91-2.04,2.04s.91,2.04,2.04,2.04,2.04-.91,2.04-2.04-.91-2.04-2.04-2.04Z"/>
      <path class="cls-1" d="M118.65,10.88c-1.13,0-2.04.91-2.04,2.04s.91,2.04,2.04,2.04,2.04-.91,2.04-2.04-.91-2.04-2.04-2.04Z"/>
      <path class="cls-1" d="M124.09,10.88c-1.13,0-2.04.91-2.04,2.04s.91,2.04,2.04,2.04,2.04-.91,2.04-2.04-.91-2.04-2.04-2.04Z"/>
      <path class="cls-1" d="M129.54,10.88c-1.13,0-2.04.91-2.04,2.04s.91,2.04,2.04,2.04,2.04-.91,2.04-2.04-.91-2.04-2.04-2.04Z"/>
      <path class="cls-1" d="M134.98,10.88c-1.13,0-2.04.91-2.04,2.04s.91,2.04,2.04,2.04,2.04-.91,2.04-2.04-.91-2.04-2.04-2.04Z"/>
      <path class="cls-1" d="M145.86,10.88c-1.13,0-2.04.91-2.04,2.04s.91,2.04,2.04,2.04,2.04-.91,2.04-2.04-.91-2.04-2.04-2.04Z"/>
      <path class="cls-1" d="M156.75,10.88c-1.13,0-2.04.91-2.04,2.04s.91,2.04,2.04,2.04,2.04-.91,2.04-2.04-.91-2.04-2.04-2.04Z"/>
      <path class="cls-1" d="M162.19,10.88c-1.13,0-2.04.91-2.04,2.04s.91,2.04,2.04,2.04,2.04-.91,2.04-2.04-.91-2.04-2.04-2.04Z"/>
      <path class="cls-1" d="M167.63,10.88c-1.13,0-2.04.91-2.04,2.04s.91,2.04,2.04,2.04,2.04-.91,2.04-2.04-.91-2.04-2.04-2.04Z"/>
      <path class="cls-1" d="M173.07,10.88c-1.13,0-2.04.91-2.04,2.04s.91,2.04,2.04,2.04,2.04-.91,2.04-2.04-.91-2.04-2.04-2.04Z"/>
      <path class="cls-1" d="M183.96,10.88c-1.13,0-2.04.91-2.04,2.04s.91,2.04,2.04,2.04,2.04-.91,2.04-2.04-.91-2.04-2.04-2.04Z"/>
      <path class="cls-1" d="M216.61,10.88c-1.13,0-2.04.91-2.04,2.04s.91,2.04,2.04,2.04,2.04-.91,2.04-2.04-.91-2.04-2.04-2.04Z"/>
      <path class="cls-1" d="M113.21,16.33c-1.13,0-2.04.91-2.04,2.04s.91,2.04,2.04,2.04,2.04-.91,2.04-2.04-.91-2.04-2.04-2.04Z"/>
      <path class="cls-1" d="M124.09,16.33c-1.13,0-2.04.91-2.04,2.04s.91,2.04,2.04,2.04,2.04-.91,2.04-2.04-.91-2.04-2.04-2.04Z"/>
      <path class="cls-1" d="M134.98,16.33c-1.13,0-2.04.91-2.04,2.04s.91,2.04,2.04,2.04,2.04-.91,2.04-2.04-.91-2.04-2.04-2.04Z"/>
      <path class="cls-1" d="M140.42,16.33c-1.13,0-2.04.91-2.04,2.04s.91,2.04,2.04,2.04,2.04-.91,2.04-2.04-.91-2.04-2.04-2.04Z"/>
      <path class="cls-1" d="M162.19,16.33c-1.13,0-2.04.91-2.04,2.04s.91,2.04,2.04,2.04,2.04-.91,2.04-2.04-.91-2.04-2.04-2.04Z"/>
      <path class="cls-1" d="M167.63,16.33c-1.13,0-2.04.91-2.04,2.04s.91,2.04,2.04,2.04,2.04-.91,2.04-2.04-.91-2.04-2.04-2.04Z"/>
      <path class="cls-1" d="M173.07,16.33c-1.13,0-2.04.91-2.04,2.04s.91,2.04,2.04,2.04,2.04-.91,2.04-2.04-.91-2.04-2.04-2.04Z"/>
      <path class="cls-1" d="M178.52,16.33c-1.13,0-2.04.91-2.04,2.04s.91,2.04,2.04,2.04,2.04-.91,2.04-2.04-.91-2.04-2.04-2.04Z"/>
      <path class="cls-1" d="M183.96,16.33c-1.13,0-2.04.91-2.04,2.04s.91,2.04,2.04,2.04,2.04-.91,2.04-2.04-.91-2.04-2.04-2.04Z"/>
      <path class="cls-1" d="M194.84,16.33c-1.13,0-2.04.91-2.04,2.04s.91,2.04,2.04,2.04,2.04-.91,2.04-2.04-.91-2.04-2.04-2.04Z"/>
      <path class="cls-1" d="M200.28,16.33c-1.13,0-2.04.91-2.04,2.04s.91,2.04,2.04,2.04,2.04-.91,2.04-2.04-.91-2.04-2.04-2.04Z"/>
      <path class="cls-1" d="M205.73,16.33c-1.13,0-2.04.91-2.04,2.04s.91,2.04,2.04,2.04,2.04-.91,2.04-2.04-.91-2.04-2.04-2.04Z"/>
      <path class="cls-1" d="M211.17,16.33c-1.13,0-2.04.91-2.04,2.04s.91,2.04,2.04,2.04,2.04-.91,2.04-2.04-.91-2.04-2.04-2.04Z"/>
      <path class="cls-1" d="M113.21,21.77c-1.13,0-2.04.91-2.04,2.04s.91,2.04,2.04,2.04,2.04-.91,2.04-2.04-.91-2.04-2.04-2.04Z"/>
      <path class="cls-1" d="M140.42,21.77c-1.13,0-2.04.91-2.04,2.04s.91,2.04,2.04,2.04,2.04-.91,2.04-2.04-.91-2.04-2.04-2.04Z"/>
      <path class="cls-1" d="M145.86,21.77c-1.13,0-2.04.91-2.04,2.04s.91,2.04,2.04,2.04,2.04-.91,2.04-2.04-.91-2.04-2.04-2.04Z"/>
      <path class="cls-1" d="M156.75,21.77c-1.13,0-2.04.91-2.04,2.04s.91,2.04,2.04,2.04,2.04-.91,2.04-2.04-.91-2.04-2.04-2.04Z"/>
      <path class="cls-1" d="M162.19,21.77c-1.13,0-2.04.91-2.04,2.04s.91,2.04,2.04,2.04,2.04-.91,2.04-2.04-.91-2.04-2.04-2.04Z"/>
      <path class="cls-1" d="M167.63,21.77c-1.13,0-2.04.91-2.04,2.04s.91,2.04,2.04,2.04,2.04-.91,2.04-2.04-.91-2.04-2.04-2.04Z"/>
      <path class="cls-1" d="M173.07,21.77c-1.13,0-2.04.91-2.04,2.04s.91,2.04,2.04,2.04,2.04-.91,2.04-2.04-.91-2.04-2.04-2.04Z"/>
      <path class="cls-1" d="M183.96,21.77c-1.13,0-2.04.91-2.04,2.04s.91,2.04,2.04,2.04,2.04-.91,2.04-2.04-.91-2.04-2.04-2.04Z"/>
      <path class="cls-1" d="M189.4,21.77c-1.13,0-2.04.91-2.04,2.04s.91,2.04,2.04,2.04,2.04-.91,2.04-2.04-.91-2.04-2.04-2.04Z"/>
      <path class="cls-1" d="M200.28,21.77c-1.13,0-2.04.91-2.04,2.04s.91,2.04,2.04,2.04,2.04-.91,2.04-2.04-.91-2.04-2.04-2.04Z"/>
      <path class="cls-1" d="M107.77,27.21c-1.13,0-2.04.91-2.04,2.04s.91,2.04,2.04,2.04,2.04-.91,2.04-2.04-.91-2.04-2.04-2.04Z"/>
      <path class="cls-1" d="M113.21,27.21c-1.13,0-2.04.91-2.04,2.04s.91,2.04,2.04,2.04,2.04-.91,2.04-2.04-.91-2.04-2.04-2.04Z"/>
      <path class="cls-1" d="M129.54,27.21c-1.13,0-2.04.91-2.04,2.04s.91,2.04,2.04,2.04,2.04-.91,2.04-2.04-.91-2.04-2.04-2.04Z"/>
      <path class="cls-1" d="M140.42,27.21c-1.13,0-2.04.91-2.04,2.04s.91,2.04,2.04,2.04,2.04-.91,2.04-2.04-.91-2.04-2.04-2.04Z"/>
      <path class="cls-1" d="M145.86,27.21c-1.13,0-2.04.91-2.04,2.04s.91,2.04,2.04,2.04,2.04-.91,2.04-2.04-.91-2.04-2.04-2.04Z"/>
      <path class="cls-1" d="M151.31,27.21c-1.13,0-2.04.91-2.04,2.04s.91,2.04,2.04,2.04,2.04-.91,2.04-2.04-.91-2.04-2.04-2.04Z"/>
      <path class="cls-1" d="M173.07,27.21c-1.13,0-2.04.91-2.04,2.04s.91,2.04,2.04,2.04,2.04-.91,2.04-2.04-.91-2.04-2.04-2.04Z"/>
      <path class="cls-1" d="M178.52,27.21c-1.13,0-2.04.91-2.04,2.04s.91,2.04,2.04,2.04,2.04-.91,2.04-2.04-.91-2.04-2.04-2.04Z"/>
      <path class="cls-1" d="M200.28,27.21c-1.13,0-2.04.91-2.04,2.04s.91,2.04,2.04,2.04,2.04-.91,2.04-2.04-.91-2.04-2.04-2.04Z"/>
      <path class="cls-1" d="M205.73,27.21c-1.13,0-2.04.91-2.04,2.04s.91,2.04,2.04,2.04,2.04-.91,2.04-2.04-.91-2.04-2.04-2.04Z"/>
      <path class="cls-1" d="M211.17,27.21c-1.13,0-2.04.91-2.04,2.04s.91,2.04,2.04,2.04,2.04-.91,2.04-2.04-.91-2.04-2.04-2.04Z"/>
      <path class="cls-1" d="M216.61,27.21c-1.13,0-2.04.91-2.04,2.04s.91,2.04,2.04,2.04,2.04-.91,2.04-2.04-.91-2.04-2.04-2.04Z"/>
      <path class="cls-1" d="M107.77,32.65c-1.13,0-2.04.91-2.04,2.04s.91,2.04,2.04,2.04,2.04-.91,2.04-2.04-.91-2.04-2.04-2.04Z"/>
      <path class="cls-1" d="M118.65,32.65c-1.13,0-2.04.91-2.04,2.04s.91,2.04,2.04,2.04,2.04-.91,2.04-2.04-.91-2.04-2.04-2.04Z"/>
      <path class="cls-1" d="M129.54,32.65c-1.13,0-2.04.91-2.04,2.04s.91,2.04,2.04,2.04,2.04-.91,2.04-2.04-.91-2.04-2.04-2.04Z"/>
      <path class="cls-1" d="M140.42,32.65c-1.13,0-2.04.91-2.04,2.04s.91,2.04,2.04,2.04,2.04-.91,2.04-2.04-.91-2.04-2.04-2.04Z"/>
      <path class="cls-1" d="M151.31,32.65c-1.13,0-2.04.91-2.04,2.04s.91,2.04,2.04,2.04,2.04-.91,2.04-2.04-.91-2.04-2.04-2.04Z"/>
      <path class="cls-1" d="M162.19,32.65c-1.13,0-2.04.91-2.04,2.04s.91,2.04,2.04,2.04,2.04-.91,2.04-2.04-.91-2.04-2.04-2.04Z"/>
      <path class="cls-1" d="M173.07,32.65c-1.13,0-2.04.91-2.04,2.04s.91,2.04,2.04,2.04,2.04-.91,2.04-2.04-.91-2.04-2.04-2.04Z"/>
      <path class="cls-1" d="M183.96,32.65c-1.13,0-2.04.91-2.04,2.04s.91,2.04,2.04,2.04,2.04-.91,2.04-2.04-.91-2.04-2.04-2.04Z"/>
      <path class="cls-1" d="M194.84,32.65c-1.13,0-2.04.91-2.04,2.04s.91,2.04,2.04,2.04,2.04-.91,2.04-2.04-.91-2.04-2.04-2.04Z"/>
      <path class="cls-1" d="M205.73,32.65c-1.13,0-2.04.91-2.04,2.04s.91,2.04,2.04,2.04,2.04-.91,2.04-2.04-.91-2.04-2.04-2.04Z"/>
      <path class="cls-1" d="M216.61,32.65c-1.13,0-2.04.91-2.04,2.04s.91,2.04,2.04,2.04,2.04-.91,2.04-2.04-.91-2.04-2.04-2.04Z"/>
      <path class="cls-1" d="M107.77,38.1c-1.13,0-2.04.91-2.04,2.04s.91,2.04,2.04,2.04,2.04-.91,2.04-2.04-.91-2.04-2.04-2.04Z"/>
      <path class="cls-1" d="M113.21,38.1c-1.13,0-2.04.91-2.04,2.04s.91,2.04,2.04,2.04,2.04-.91,2.04-2.04-.91-2.04-2.04-2.04Z"/>
      <path class="cls-1" d="M124.09,38.1c-1.13,0-2.04.91-2.04,2.04s.91,2.04,2.04,2.04,2.04-.91,2.04-2.04-.91-2.04-2.04-2.04Z"/>
      <path class="cls-1" d="M134.98,38.1c-1.13,0-2.04.91-2.04,2.04s.91,2.04,2.04,2.04,2.04-.91,2.04-2.04-.91-2.04-2.04-2.04Z"/>
      <path class="cls-1" d="M145.86,38.1c-1.13,0-2.04.91-2.04,2.04s.91,2.04,2.04,2.04,2.04-.91,2.04-2.04-.91-2.04-2.04-2.04Z"/>
      <path class="cls-1" d="M151.31,38.1c-1.13,0-2.04.91-2.04,2.04s.91,2.04,2.04,2.04,2.04-.91,2.04-2.04-.91-2.04-2.04-2.04Z"/>
      <path class="cls-1" d="M156.75,38.1c-1.13,0-2.04.91-2.04,2.04s.91,2.04,2.04,2.04,2.04-.91,2.04-2.04-.91-2.04-2.04-2.04Z"/>
      <path class="cls-1" d="M162.19,38.1c-1.13,0-2.04.91-2.04,2.04s.91,2.04,2.04,2.04,2.04-.91,2.04-2.04-.91-2.04-2.04-2.04Z"/>
      <path class="cls-1" d="M173.07,38.1c-1.13,0-2.04.91-2.04,2.04s.91,2.04,2.04,2.04,2.04-.91,2.04-2.04-.91-2.04-2.04-2.04Z"/>
      <path class="cls-1" d="M178.52,38.1c-1.13,0-2.04.91-2.04,2.04s.91,2.04,2.04,2.04,2.04-.91,2.04-2.04-.91-2.04-2.04-2.04Z"/>
      <path class="cls-1" d="M189.4,38.1c-1.13,0-2.04.91-2.04,2.04s.91,2.04,2.04,2.04,2.04-.91,2.04-2.04-.91-2.04-2.04-2.04Z"/>
      <path class="cls-1" d="M200.28,38.1c-1.13,0-2.04.91-2.04,2.04s.91,2.04,2.04,2.04,2.04-.91,2.04-2.04-.91-2.04-2.04-2.04Z"/>
      <path class="cls-1" d="M216.61,38.1c-1.13,0-2.04.91-2.04,2.04s.91,2.04,2.04,2.04,2.04-.91,2.04-2.04-.91-2.04-2.04-2.04Z"/>
      <path class="cls-1" d="M75.12,43.54c-1.13,0-2.04.91-2.04,2.04s.91,2.04,2.04,2.04,2.04-.91,2.04-2.04-.91-2.04-2.04-2.04Z"/>
      <path class="cls-1" d="M80.56,43.54c-1.13,0-2.04.91-2.04,2.04s.91,2.04,2.04,2.04,2.04-.91,2.04-2.04-.91-2.04-2.04-2.04Z"/>
      <path class="cls-1" d="M86,43.54c-1.13,0-2.04.91-2.04,2.04s.91,2.04,2.04,2.04,2.04-.91,2.04-2.04-.91-2.04-2.04-2.04Z"/>
      <path class="cls-1" d="M96.88,43.54c-1.13,0-2.04.91-2.04,2.04s.91,2.04,2.04,2.04,2.04-.91,2.04-2.04-.91-2.04-2.04-2.04Z"/>
      <path class="cls-1" d="M107.77,43.54c-1.13,0-2.04.91-2.04,2.04s.91,2.04,2.04,2.04,2.04-.91,2.04-2.04-.91-2.04-2.04-2.04Z"/>
      <path class="cls-1" d="M124.09,43.54c-1.13,0-2.04.91-2.04,2.04s.91,2.04,2.04,2.04,2.04-.91,2.04-2.04-.91-2.04-2.04-2.04Z"/>
      <path class="cls-1" d="M129.54,43.54c-1.13,0-2.04.91-2.04,2.04s.91,2.04,2.04,2.04,2.04-.91,2.04-2.04-.91-2.04-2.04-2.04Z"/>
      <path class="cls-1" d="M140.42,43.54c-1.13,0-2.04.91-2.04,2.04s.91,2.04,2.04,2.04,2.04-.91,2.04-2.04-.91-2.04-2.04-2.04Z"/>
      <path class="cls-1" d="M156.75,43.54c-1.13,0-2.04.91-2.04,2.04s.91,2.04,2.04,2.04,2.04-.91,2.04-2.04-.91-2.04-2.04-2.04Z"/>
      <path class="cls-1" d="M162.19,43.54c-1.13,0-2.04.91-2.04,2.04s.91,2.04,2.04,2.04,2.04-.91,2.04-2.04-.91-2.04-2.04-2.04Z"/>
      <path class="cls-1" d="M173.07,43.54c-1.13,0-2.04.91-2.04,2.04s.91,2.04,2.04,2.04,2.04-.91,2.04-2.04-.91-2.04-2.04-2.04Z"/>
      <path class="cls-1" d="M183.96,43.54c-1.13,0-2.04.91-2.04,2.04s.91,2.04,2.04,2.04,2.04-.91,2.04-2.04-.91-2.04-2.04-2.04Z"/>
      <path class="cls-1" d="M194.84,43.54c-1.13,0-2.04.91-2.04,2.04s.91,2.04,2.04,2.04,2.04-.91,2.04-2.04-.91-2.04-2.04-2.04Z"/>
      <path class="cls-1" d="M205.73,43.54c-1.13,0-2.04.91-2.04,2.04s.91,2.04,2.04,2.04,2.04-.91,2.04-2.04-.91-2.04-2.04-2.04Z"/>
      <path class="cls-1" d="M216.61,43.54c-1.13,0-2.04.91-2.04,2.04s.91,2.04,2.04,2.04,2.04-.91,2.04-2.04-.91-2.04-2.04-2.04Z"/>
      <path class="cls-1" d="M222.05,43.54c-1.13,0-2.04.91-2.04,2.04s.91,2.04,2.04,2.04,2.04-.91,2.04-2.04-.91-2.04-2.04-2.04Z"/>
      <path class="cls-1" d="M227.5,43.54c-1.13,0-2.04.91-2.04,2.04s.91,2.04,2.04,2.04,2.04-.91,2.04-2.04-.91-2.04-2.04-2.04Z"/>
      <path class="cls-1" d="M232.94,43.54c-1.13,0-2.04.91-2.04,2.04s.91,2.04,2.04,2.04,2.04-.91,2.04-2.04-.91-2.04-2.04-2.04Z"/>
      <path class="cls-1" d="M249.26,43.54c-1.13,0-2.04.91-2.04,2.04s.91,2.04,2.04,2.04,2.04-.91,2.04-2.04-.91-2.04-2.04-2.04Z"/>
      <path class="cls-1" d="M254.71,43.54c-1.13,0-2.04.91-2.04,2.04s.91,2.04,2.04,2.04,2.04-.91,2.04-2.04-.91-2.04-2.04-2.04Z"/>
      <path class="cls-1" d="M258.11,45.58c0,1.13.91,2.04,2.04,2.04s2.04-.91,2.04-2.04-.91-2.04-2.04-2.04-2.04.91-2.04,2.04Z"/>
      <path class="cls-1" d="M75.12,48.98c-1.13,0-2.04.91-2.04,2.04s.91,2.04,2.04,2.04,2.04-.91,2.04-2.04-.91-2.04-2.04-2.04Z"/>
      <path class="cls-1" d="M80.56,48.98c-1.13,0-2.04.91-2.04,2.04s.91,2.04,2.04,2.04,2.04-.91,2.04-2.04-.91-2.04-2.04-2.04Z"/>
      <path class="cls-1" d="M86,48.98c-1.13,0-2.04.91-2.04,2.04s.91,2.04,2.04,2.04,2.04-.91,2.04-2.04-.91-2.04-2.04-2.04Z"/>
      <path class="cls-1" d="M107.77,48.98c-1.13,0-2.04.91-2.04,2.04s.91,2.04,2.04,2.04,2.04-.91,2.04-2.04-.91-2.04-2.04-2.04Z"/>
      <path class="cls-1" d="M113.21,48.98c-1.13,0-2.04.91-2.04,2.04s.91,2.04,2.04,2.04,2.04-.91,2.04-2.04-.91-2.04-2.04-2.04Z"/>
      <path class="cls-1" d="M129.54,48.98c-1.13,0-2.04.91-2.04,2.04s.91,2.04,2.04,2.04,2.04-.91,2.04-2.04-.91-2.04-2.04-2.04Z"/>
      <path class="cls-1" d="M134.98,48.98c-1.13,0-2.04.91-2.04,2.04s.91,2.04,2.04,2.04,2.04-.91,2.04-2.04-.91-2.04-2.04-2.04Z"/>
      <path class="cls-1" d="M140.42,48.98c-1.13,0-2.04.91-2.04,2.04s.91,2.04,2.04,2.04,2.04-.91,2.04-2.04-.91-2.04-2.04-2.04Z"/>
      <path class="cls-1" d="M151.31,48.98c-1.13,0-2.04.91-2.04,2.04s.91,2.04,2.04,2.04,2.04-.91,2.04-2.04-.91-2.04-2.04-2.04Z"/>
      <path class="cls-1" d="M156.75,48.98c-1.13,0-2.04.91-2.04,2.04s.91,2.04,2.04,2.04,2.04-.91,2.04-2.04-.91-2.04-2.04-2.04Z"/>
      <path class="cls-1" d="M162.19,48.98c-1.13,0-2.04.91-2.04,2.04s.91,2.04,2.04,2.04,2.04-.91,2.04-2.04-.91-2.04-2.04-2.04Z"/>
      <path class="cls-1" d="M173.07,48.98c-1.13,0-2.04.91-2.04,2.04s.91,2.04,2.04,2.04,2.04-.91,2.04-2.04-.91-2.04-2.04-2.04Z"/>
      <path class="cls-1" d="M194.84,48.98c-1.13,0-2.04.91-2.04,2.04s.91,2.04,2.04,2.04,2.04-.91,2.04-2.04-.91-2.04-2.04-2.04Z"/>
      <path class="cls-1" d="M200.28,48.98c-1.13,0-2.04.91-2.04,2.04s.91,2.04,2.04,2.04,2.04-.91,2.04-2.04-.91-2.04-2.04-2.04Z"/>
      <path class="cls-1" d="M211.17,48.98c-1.13,0-2.04.91-2.04,2.04s.91,2.04,2.04,2.04,2.04-.91,2.04-2.04-.91-2.04-2.04-2.04Z"/>
      <path class="cls-1" d="M232.94,48.98c-1.13,0-2.04.91-2.04,2.04s.91,2.04,2.04,2.04,2.04-.91,2.04-2.04-.91-2.04-2.04-2.04Z"/>
      <path class="cls-1" d="M243.82,48.98c-1.13,0-2.04.91-2.04,2.04s.91,2.04,2.04,2.04,2.04-.91,2.04-2.04-.91-2.04-2.04-2.04Z"/>
      <path class="cls-1" d="M249.26,48.98c-1.13,0-2.04.91-2.04,2.04s.91,2.04,2.04,2.04,2.04-.91,2.04-2.04-.91-2.04-2.04-2.04Z"/>
      <path class="cls-1" d="M254.71,48.98c-1.13,0-2.04.91-2.04,2.04s.91,2.04,2.04,2.04,2.04-.91,2.04-2.04-.91-2.04-2.04-2.04Z"/>
      <path class="cls-1" d="M64.23,58.5c1.13,0,2.04-.91,2.04-2.04s-.91-2.04-2.04-2.04-2.04.91-2.04,2.04.91,2.04,2.04,2.04Z"/>
      <path class="cls-1" d="M69.67,54.42c-1.13,0-2.04.91-2.04,2.04s.91,2.04,2.04,2.04,2.04-.91,2.04-2.04-.91-2.04-2.04-2.04Z"/>
      <path class="cls-1" d="M80.56,54.42c-1.13,0-2.04.91-2.04,2.04s.91,2.04,2.04,2.04,2.04-.91,2.04-2.04-.91-2.04-2.04-2.04Z"/>
      <path class="cls-1" d="M91.44,54.42c-1.13,0-2.04.91-2.04,2.04s.91,2.04,2.04,2.04,2.04-.91,2.04-2.04-.91-2.04-2.04-2.04Z"/>
      <path class="cls-1" d="M96.88,54.42c-1.13,0-2.04.91-2.04,2.04s.91,2.04,2.04,2.04,2.04-.91,2.04-2.04-.91-2.04-2.04-2.04Z"/>
      <path class="cls-1" d="M113.21,54.42c-1.13,0-2.04.91-2.04,2.04s.91,2.04,2.04,2.04,2.04-.91,2.04-2.04-.91-2.04-2.04-2.04Z"/>
      <path class="cls-1" d="M118.65,54.42c-1.13,0-2.04.91-2.04,2.04s.91,2.04,2.04,2.04,2.04-.91,2.04-2.04-.91-2.04-2.04-2.04Z"/>
      <path class="cls-1" d="M124.09,54.42c-1.13,0-2.04.91-2.04,2.04s.91,2.04,2.04,2.04,2.04-.91,2.04-2.04-.91-2.04-2.04-2.04Z"/>
      <path class="cls-1" d="M129.54,54.42c-1.13,0-2.04.91-2.04,2.04s.91,2.04,2.04,2.04,2.04-.91,2.04-2.04-.91-2.04-2.04-2.04Z"/>
      <path class="cls-1" d="M140.42,54.42c-1.13,0-2.04.91-2.04,2.04s.91,2.04,2.04,2.04,2.04-.91,2.04-2.04-.91-2.04-2.04-2.04Z"/>
      <path class="cls-1" d="M145.86,54.42c-1.13,0-2.04.91-2.04,2.04s.91,2.04,2.04,2.04,2.04-.91,2.04-2.04-.91-2.04-2.04-2.04Z"/>
      <path class="cls-1" d="M156.75,54.42c-1.13,0-2.04.91-2.04,2.04s.91,2.04,2.04,2.04,2.04-.91,2.04-2.04-.91-2.04-2.04-2.04Z"/>
      <path class="cls-1" d="M167.63,54.42c-1.13,0-2.04.91-2.04,2.04s.91,2.04,2.04,2.04,2.04-.91,2.04-2.04-.91-2.04-2.04-2.04Z"/>
      <path class="cls-1" d="M183.96,54.42c-1.13,0-2.04.91-2.04,2.04s.91,2.04,2.04,2.04,2.04-.91,2.04-2.04-.91-2.04-2.04-2.04Z"/>
      <path class="cls-1" d="M189.4,54.42c-1.13,0-2.04.91-2.04,2.04s.91,2.04,2.04,2.04,2.04-.91,2.04-2.04-.91-2.04-2.04-2.04Z"/>
      <path class="cls-1" d="M200.28,54.42c-1.13,0-2.04.91-2.04,2.04s.91,2.04,2.04,2.04,2.04-.91,2.04-2.04-.91-2.04-2.04-2.04Z"/>
      <path class="cls-1" d="M205.73,54.42c-1.13,0-2.04.91-2.04,2.04s.91,2.04,2.04,2.04,2.04-.91,2.04-2.04-.91-2.04-2.04-2.04Z"/>
      <path class="cls-1" d="M211.17,54.42c-1.13,0-2.04.91-2.04,2.04s.91,2.04,2.04,2.04,2.04-.91,2.04-2.04-.91-2.04-2.04-2.04Z"/>
      <path class="cls-1" d="M216.61,54.42c-1.13,0-2.04.91-2.04,2.04s.91,2.04,2.04,2.04,2.04-.91,2.04-2.04-.91-2.04-2.04-2.04Z"/>
      <path class="cls-1" d="M227.5,54.42c-1.13,0-2.04.91-2.04,2.04s.91,2.04,2.04,2.04,2.04-.91,2.04-2.04-.91-2.04-2.04-2.04Z"/>
      <path class="cls-1" d="M243.82,54.42c-1.13,0-2.04.91-2.04,2.04s.91,2.04,2.04,2.04,2.04-.91,2.04-2.04-.91-2.04-2.04-2.04Z"/>
      <path class="cls-1" d="M260.15,54.42c-1.13,0-2.04.91-2.04,2.04s.91,2.04,2.04,2.04,2.04-.91,2.04-2.04-.91-2.04-2.04-2.04Z"/>
      <path class="cls-1" d="M75.12,59.86c-1.13,0-2.04.91-2.04,2.04s.91,2.04,2.04,2.04,2.04-.91,2.04-2.04-.91-2.04-2.04-2.04Z"/>
      <path class="cls-1" d="M80.56,59.86c-1.13,0-2.04.91-2.04,2.04s.91,2.04,2.04,2.04,2.04-.91,2.04-2.04-.91-2.04-2.04-2.04Z"/>
      <path class="cls-1" d="M107.77,59.86c-1.13,0-2.04.91-2.04,2.04s.91,2.04,2.04,2.04,2.04-.91,2.04-2.04-.91-2.04-2.04-2.04Z"/>
      <path class="cls-1" d="M113.21,59.86c-1.13,0-2.04.91-2.04,2.04s.91,2.04,2.04,2.04,2.04-.91,2.04-2.04-.91-2.04-2.04-2.04Z"/>
      <path class="cls-1" d="M118.65,59.86c-1.13,0-2.04.91-2.04,2.04s.91,2.04,2.04,2.04,2.04-.91,2.04-2.04-.91-2.04-2.04-2.04Z"/>
      <path class="cls-1" d="M124.09,59.86c-1.13,0-2.04.91-2.04,2.04s.91,2.04,2.04,2.04,2.04-.91,2.04-2.04-.91-2.04-2.04-2.04Z"/>
      <path class="cls-1" d="M140.42,59.86c-1.13,0-2.04.91-2.04,2.04s.91,2.04,2.04,2.04,2.04-.91,2.04-2.04-.91-2.04-2.04-2.04Z"/>
      <path class="cls-1" d="M145.86,59.86c-1.13,0-2.04.91-2.04,2.04s.91,2.04,2.04,2.04,2.04-.91,2.04-2.04-.91-2.04-2.04-2.04Z"/>
      <path class="cls-1" d="M151.31,59.86c-1.13,0-2.04.91-2.04,2.04s.91,2.04,2.04,2.04,2.04-.91,2.04-2.04-.91-2.04-2.04-2.04Z"/>
      <path class="cls-1" d="M156.75,59.86c-1.13,0-2.04.91-2.04,2.04s.91,2.04,2.04,2.04,2.04-.91,2.04-2.04-.91-2.04-2.04-2.04Z"/>
      <path class="cls-1" d="M173.07,59.86c-1.13,0-2.04.91-2.04,2.04s.91,2.04,2.04,2.04,2.04-.91,2.04-2.04-.91-2.04-2.04-2.04Z"/>
      <path class="cls-1" d="M178.52,59.86c-1.13,0-2.04.91-2.04,2.04s.91,2.04,2.04,2.04,2.04-.91,2.04-2.04-.91-2.04-2.04-2.04Z"/>
      <path class="cls-1" d="M189.4,59.86c-1.13,0-2.04.91-2.04,2.04s.91,2.04,2.04,2.04,2.04-.91,2.04-2.04-.91-2.04-2.04-2.04Z"/>
      <path class="cls-1" d="M205.73,59.86c-1.13,0-2.04.91-2.04,2.04s.91,2.04,2.04,2.04,2.04-.91,2.04-2.04-.91-2.04-2.04-2.04Z"/>
      <path class="cls-1" d="M211.17,59.86c-1.13,0-2.04.91-2.04,2.04s.91,2.04,2.04,2.04,2.04-.91,2.04-2.04-.91-2.04-2.04-2.04Z"/>
      <path class="cls-1" d="M227.5,59.86c-1.13,0-2.04.91-2.04,2.04s.91,2.04,2.04,2.04,2.04-.91,2.04-2.04-.91-2.04-2.04-2.04Z"/>
      <path class="cls-1" d="M232.94,59.86c-1.13,0-2.04.91-2.04,2.04s.91,2.04,2.04,2.04,2.04-.91,2.04-2.04-.91-2.04-2.04-2.04Z"/>
      <path class="cls-1" d="M238.38,59.86c-1.13,0-2.04.91-2.04,2.04s.91,2.04,2.04,2.04,2.04-.91,2.04-2.04-.91-2.04-2.04-2.04Z"/>
      <path class="cls-1" d="M64.23,69.39c1.13,0,2.04-.91,2.04-2.04s-.91-2.04-2.04-2.04-2.04.91-2.04,2.04.91,2.04,2.04,2.04Z"/>
      <path class="cls-1" d="M69.67,65.31c-1.13,0-2.04.91-2.04,2.04s.91,2.04,2.04,2.04,2.04-.91,2.04-2.04-.91-2.04-2.04-2.04Z"/>
      <path class="cls-1" d="M75.12,65.31c-1.13,0-2.04.91-2.04,2.04s.91,2.04,2.04,2.04,2.04-.91,2.04-2.04-.91-2.04-2.04-2.04Z"/>
      <path class="cls-1" d="M80.56,65.31c-1.13,0-2.04.91-2.04,2.04s.91,2.04,2.04,2.04,2.04-.91,2.04-2.04-.91-2.04-2.04-2.04Z"/>
      <path class="cls-1" d="M86,65.31c-1.13,0-2.04.91-2.04,2.04s.91,2.04,2.04,2.04,2.04-.91,2.04-2.04-.91-2.04-2.04-2.04Z"/>
      <path class="cls-1" d="M91.44,65.31c-1.13,0-2.04.91-2.04,2.04s.91,2.04,2.04,2.04,2.04-.91,2.04-2.04-.91-2.04-2.04-2.04Z"/>
      <path class="cls-1" d="M96.88,65.31c-1.13,0-2.04.91-2.04,2.04s.91,2.04,2.04,2.04,2.04-.91,2.04-2.04-.91-2.04-2.04-2.04Z"/>
      <path class="cls-1" d="M118.65,65.31c-1.13,0-2.04.91-2.04,2.04s.91,2.04,2.04,2.04,2.04-.91,2.04-2.04-.91-2.04-2.04-2.04Z"/>
      <path class="cls-1" d="M124.09,65.31c-1.13,0-2.04.91-2.04,2.04s.91,2.04,2.04,2.04,2.04-.91,2.04-2.04-.91-2.04-2.04-2.04Z"/>
      <path class="cls-1" d="M129.54,65.31c-1.13,0-2.04.91-2.04,2.04s.91,2.04,2.04,2.04,2.04-.91,2.04-2.04-.91-2.04-2.04-2.04Z"/>
      <path class="cls-1" d="M134.98,65.31c-1.13,0-2.04.91-2.04,2.04s.91,2.04,2.04,2.04,2.04-.91,2.04-2.04-.91-2.04-2.04-2.04Z"/>
      <path class="cls-1" d="M145.86,65.31c-1.13,0-2.04.91-2.04,2.04s.91,2.04,2.04,2.04,2.04-.91,2.04-2.04-.91-2.04-2.04-2.04Z"/>
      <path class="cls-1" d="M200.28,65.31c-1.13,0-2.04.91-2.04,2.04s.91,2.04,2.04,2.04,2.04-.91,2.04-2.04-.91-2.04-2.04-2.04Z"/>
      <path class="cls-1" d="M205.73,65.31c-1.13,0-2.04.91-2.04,2.04s.91,2.04,2.04,2.04,2.04-.91,2.04-2.04-.91-2.04-2.04-2.04Z"/>
      <path class="cls-1" d="M211.17,65.31c-1.13,0-2.04.91-2.04,2.04s.91,2.04,2.04,2.04,2.04-.91,2.04-2.04-.91-2.04-2.04-2.04Z"/>
      <path class="cls-1" d="M216.61,65.31c-1.13,0-2.04.91-2.04,2.04s.91,2.04,2.04,2.04,2.04-.91,2.04-2.04-.91-2.04-2.04-2.04Z"/>
      <path class="cls-1" d="M222.05,65.31c-1.13,0-2.04.91-2.04,2.04s.91,2.04,2.04,2.04,2.04-.91,2.04-2.04-.91-2.04-2.04-2.04Z"/>
      <path class="cls-1" d="M227.5,65.31c-1.13,0-2.04.91-2.04,2.04s.91,2.04,2.04,2.04,2.04-.91,2.04-2.04-.91-2.04-2.04-2.04Z"/>
      <path class="cls-1" d="M232.94,65.31c-1.13,0-2.04.91-2.04,2.04s.91,2.04,2.04,2.04,2.04-.91,2.04-2.04-.91-2.04-2.04-2.04Z"/>
      <path class="cls-1" d="M238.38,65.31c-1.13,0-2.04.91-2.04,2.04s.91,2.04,2.04,2.04,2.04-.91,2.04-2.04-.91-2.04-2.04-2.04Z"/>
      <path class="cls-1" d="M243.82,65.31c-1.13,0-2.04.91-2.04,2.04s.91,2.04,2.04,2.04,2.04-.91,2.04-2.04-.91-2.04-2.04-2.04Z"/>
      <path class="cls-1" d="M249.26,65.31c-1.13,0-2.04.91-2.04,2.04s.91,2.04,2.04,2.04,2.04-.91,2.04-2.04-.91-2.04-2.04-2.04Z"/>
      <path class="cls-1" d="M254.71,65.31c-1.13,0-2.04.91-2.04,2.04s.91,2.04,2.04,2.04,2.04-.91,2.04-2.04-.91-2.04-2.04-2.04Z"/>
      <path class="cls-1" d="M260.15,65.31c-1.13,0-2.04.91-2.04,2.04s.91,2.04,2.04,2.04,2.04-.91,2.04-2.04-.91-2.04-2.04-2.04Z"/>
      <path class="cls-1" d="M69.67,70.75c-1.13,0-2.04.91-2.04,2.04s.91,2.04,2.04,2.04,2.04-.91,2.04-2.04-.91-2.04-2.04-2.04Z"/>
      <path class="cls-1" d="M75.12,70.75c-1.13,0-2.04.91-2.04,2.04s.91,2.04,2.04,2.04,2.04-.91,2.04-2.04-.91-2.04-2.04-2.04Z"/>
      <path class="cls-1" d="M80.56,70.75c-1.13,0-2.04.91-2.04,2.04s.91,2.04,2.04,2.04,2.04-.91,2.04-2.04-.91-2.04-2.04-2.04Z"/>
      <path class="cls-1" d="M86,70.75c-1.13,0-2.04.91-2.04,2.04s.91,2.04,2.04,2.04,2.04-.91,2.04-2.04-.91-2.04-2.04-2.04Z"/>
      <path class="cls-1" d="M102.33,70.75c-1.13,0-2.04.91-2.04,2.04s.91,2.04,2.04,2.04,2.04-.91,2.04-2.04-.91-2.04-2.04-2.04Z"/>
      <path class="cls-1" d="M113.21,70.75c-1.13,0-2.04.91-2.04,2.04s.91,2.04,2.04,2.04,2.04-.91,2.04-2.04-.91-2.04-2.04-2.04Z"/>
      <path class="cls-1" d="M129.54,70.75c-1.13,0-2.04.91-2.04,2.04s.91,2.04,2.04,2.04,2.04-.91,2.04-2.04-.91-2.04-2.04-2.04Z"/>
      <path class="cls-1" d="M134.98,70.75c-1.13,0-2.04.91-2.04,2.04s.91,2.04,2.04,2.04,2.04-.91,2.04-2.04-.91-2.04-2.04-2.04Z"/>
      <path class="cls-1" d="M178.52,70.75c-1.13,0-2.04.91-2.04,2.04s.91,2.04,2.04,2.04,2.04-.91,2.04-2.04-.91-2.04-2.04-2.04Z"/>
      <path class="cls-1" d="M183.96,70.75c-1.13,0-2.04.91-2.04,2.04s.91,2.04,2.04,2.04,2.04-.91,2.04-2.04-.91-2.04-2.04-2.04Z"/>
      <path class="cls-1" d="M205.73,70.75c-1.13,0-2.04.91-2.04,2.04s.91,2.04,2.04,2.04,2.04-.91,2.04-2.04-.91-2.04-2.04-2.04Z"/>
      <path class="cls-1" d="M216.61,70.75c-1.13,0-2.04.91-2.04,2.04s.91,2.04,2.04,2.04,2.04-.91,2.04-2.04-.91-2.04-2.04-2.04Z"/>
      <path class="cls-1" d="M222.05,70.75c-1.13,0-2.04.91-2.04,2.04s.91,2.04,2.04,2.04,2.04-.91,2.04-2.04-.91-2.04-2.04-2.04Z"/>
      <path class="cls-1" d="M243.82,70.75c-1.13,0-2.04.91-2.04,2.04s.91,2.04,2.04,2.04,2.04-.91,2.04-2.04-.91-2.04-2.04-2.04Z"/>
      <path class="cls-1" d="M249.26,70.75c-1.13,0-2.04.91-2.04,2.04s.91,2.04,2.04,2.04,2.04-.91,2.04-2.04-.91-2.04-2.04-2.04Z"/>
      <path class="cls-1" d="M64.23,80.27c1.13,0,2.04-.91,2.04-2.04s-.91-2.04-2.04-2.04-2.04.91-2.04,2.04.91,2.04,2.04,2.04Z"/>
      <path class="cls-1" d="M80.56,76.19c-1.13,0-2.04.91-2.04,2.04s.91,2.04,2.04,2.04,2.04-.91,2.04-2.04-.91-2.04-2.04-2.04Z"/>
      <path class="cls-1" d="M96.88,76.19c-1.13,0-2.04.91-2.04,2.04s.91,2.04,2.04,2.04,2.04-.91,2.04-2.04-.91-2.04-2.04-2.04Z"/>
      <path class="cls-1" d="M102.33,76.19c-1.13,0-2.04.91-2.04,2.04s.91,2.04,2.04,2.04,2.04-.91,2.04-2.04-.91-2.04-2.04-2.04Z"/>
      <path class="cls-1" d="M113.21,76.19c-1.13,0-2.04.91-2.04,2.04s.91,2.04,2.04,2.04,2.04-.91,2.04-2.04-.91-2.04-2.04-2.04Z"/>
      <path class="cls-1" d="M124.09,76.19c-1.13,0-2.04.91-2.04,2.04s.91,2.04,2.04,2.04,2.04-.91,2.04-2.04-.91-2.04-2.04-2.04Z"/>
      <path class="cls-1" d="M129.54,76.19c-1.13,0-2.04.91-2.04,2.04s.91,2.04,2.04,2.04,2.04-.91,2.04-2.04-.91-2.04-2.04-2.04Z"/>
      <path class="cls-1" d="M189.4,76.19c-1.13,0-2.04.91-2.04,2.04s.91,2.04,2.04,2.04,2.04-.91,2.04-2.04-.91-2.04-2.04-2.04Z"/>
      <path class="cls-1" d="M194.84,76.19c-1.13,0-2.04.91-2.04,2.04s.91,2.04,2.04,2.04,2.04-.91,2.04-2.04-.91-2.04-2.04-2.04Z"/>
      <path class="cls-1" d="M205.73,76.19c-1.13,0-2.04.91-2.04,2.04s.91,2.04,2.04,2.04,2.04-.91,2.04-2.04-.91-2.04-2.04-2.04Z"/>
      <path class="cls-1" d="M211.17,76.19c-1.13,0-2.04.91-2.04,2.04s.91,2.04,2.04,2.04,2.04-.91,2.04-2.04-.91-2.04-2.04-2.04Z"/>
      <path class="cls-1" d="M216.61,76.19c-1.13,0-2.04.91-2.04,2.04s.91,2.04,2.04,2.04,2.04-.91,2.04-2.04-.91-2.04-2.04-2.04Z"/>
      <path class="cls-1" d="M232.94,76.19c-1.13,0-2.04.91-2.04,2.04s.91,2.04,2.04,2.04,2.04-.91,2.04-2.04-.91-2.04-2.04-2.04Z"/>
      <path class="cls-1" d="M238.38,76.19c-1.13,0-2.04.91-2.04,2.04s.91,2.04,2.04,2.04,2.04-.91,2.04-2.04-.91-2.04-2.04-2.04Z"/>
      <path class="cls-1" d="M243.82,76.19c-1.13,0-2.04.91-2.04,2.04s.91,2.04,2.04,2.04,2.04-.91,2.04-2.04-.91-2.04-2.04-2.04Z"/>
      <path class="cls-1" d="M254.71,76.19c-1.13,0-2.04.91-2.04,2.04s.91,2.04,2.04,2.04,2.04-.91,2.04-2.04-.91-2.04-2.04-2.04Z"/>
      <path class="cls-1" d="M260.15,76.19c-1.13,0-2.04.91-2.04,2.04s.91,2.04,2.04,2.04,2.04-.91,2.04-2.04-.91-2.04-2.04-2.04Z"/>
      <path class="cls-1" d="M64.23,85.71c1.13,0,2.04-.91,2.04-2.04s-.91-2.04-2.04-2.04-2.04.91-2.04,2.04.91,2.04,2.04,2.04Z"/>
      <path class="cls-1" d="M69.67,81.63c-1.13,0-2.04.91-2.04,2.04s.91,2.04,2.04,2.04,2.04-.91,2.04-2.04-.91-2.04-2.04-2.04Z"/>
      <path class="cls-1" d="M80.56,81.63c-1.13,0-2.04.91-2.04,2.04s.91,2.04,2.04,2.04,2.04-.91,2.04-2.04-.91-2.04-2.04-2.04Z"/>
      <path class="cls-1" d="M91.44,81.63c-1.13,0-2.04.91-2.04,2.04s.91,2.04,2.04,2.04,2.04-.91,2.04-2.04-.91-2.04-2.04-2.04Z"/>
      <path class="cls-1" d="M102.33,81.63c-1.13,0-2.04.91-2.04,2.04s.91,2.04,2.04,2.04,2.04-.91,2.04-2.04-.91-2.04-2.04-2.04Z"/>
      <path class="cls-1" d="M118.65,81.63c-1.13,0-2.04.91-2.04,2.04s.91,2.04,2.04,2.04,2.04-.91,2.04-2.04-.91-2.04-2.04-2.04Z"/>
      <path class="cls-1" d="M124.09,81.63c-1.13,0-2.04.91-2.04,2.04s.91,2.04,2.04,2.04,2.04-.91,2.04-2.04-.91-2.04-2.04-2.04Z"/>
      <path class="cls-1" d="M129.54,81.63c-1.13,0-2.04.91-2.04,2.04s.91,2.04,2.04,2.04,2.04-.91,2.04-2.04-.91-2.04-2.04-2.04Z"/>
      <path class="cls-1" d="M194.84,81.63c-1.13,0-2.04.91-2.04,2.04s.91,2.04,2.04,2.04,2.04-.91,2.04-2.04-.91-2.04-2.04-2.04Z"/>
      <path class="cls-1" d="M216.61,81.63c-1.13,0-2.04.91-2.04,2.04s.91,2.04,2.04,2.04,2.04-.91,2.04-2.04-.91-2.04-2.04-2.04Z"/>
      <path class="cls-1" d="M222.05,81.63c-1.13,0-2.04.91-2.04,2.04s.91,2.04,2.04,2.04,2.04-.91,2.04-2.04-.91-2.04-2.04-2.04Z"/>
      <path class="cls-1" d="M232.94,81.63c-1.13,0-2.04.91-2.04,2.04s.91,2.04,2.04,2.04,2.04-.91,2.04-2.04-.91-2.04-2.04-2.04Z"/>
      <path class="cls-1" d="M64.23,91.16c1.13,0,2.04-.91,2.04-2.04s-.91-2.04-2.04-2.04-2.04.91-2.04,2.04.91,2.04,2.04,2.04Z"/>
      <path class="cls-1" d="M75.12,87.07c-1.13,0-2.04.91-2.04,2.04s.91,2.04,2.04,2.04,2.04-.91,2.04-2.04-.91-2.04-2.04-2.04Z"/>
      <path class="cls-1" d="M80.56,87.07c-1.13,0-2.04.91-2.04,2.04s.91,2.04,2.04,2.04,2.04-.91,2.04-2.04-.91-2.04-2.04-2.04Z"/>
      <path class="cls-1" d="M91.44,87.07c-1.13,0-2.04.91-2.04,2.04s.91,2.04,2.04,2.04,2.04-.91,2.04-2.04-.91-2.04-2.04-2.04Z"/>
      <path class="cls-1" d="M96.88,87.07c-1.13,0-2.04.91-2.04,2.04s.91,2.04,2.04,2.04,2.04-.91,2.04-2.04-.91-2.04-2.04-2.04Z"/>
      <path class="cls-1" d="M107.77,87.07c-1.13,0-2.04.91-2.04,2.04s.91,2.04,2.04,2.04,2.04-.91,2.04-2.04-.91-2.04-2.04-2.04Z"/>
      <path class="cls-1" d="M118.65,87.07c-1.13,0-2.04.91-2.04,2.04s.91,2.04,2.04,2.04,2.04-.91,2.04-2.04-.91-2.04-2.04-2.04Z"/>
      <path class="cls-1" d="M129.54,87.07c-1.13,0-2.04.91-2.04,2.04s.91,2.04,2.04,2.04,2.04-.91,2.04-2.04-.91-2.04-2.04-2.04Z"/>
      <path class="cls-1" d="M200.28,87.07c-1.13,0-2.04.91-2.04,2.04s.91,2.04,2.04,2.04,2.04-.91,2.04-2.04-.91-2.04-2.04-2.04Z"/>
      <path class="cls-1" d="M216.61,87.07c-1.13,0-2.04.91-2.04,2.04s.91,2.04,2.04,2.04,2.04-.91,2.04-2.04-.91-2.04-2.04-2.04Z"/>
      <path class="cls-1" d="M227.5,87.07c-1.13,0-2.04.91-2.04,2.04s.91,2.04,2.04,2.04,2.04-.91,2.04-2.04-.91-2.04-2.04-2.04Z"/>
      <path class="cls-1" d="M238.38,87.07c-1.13,0-2.04.91-2.04,2.04s.91,2.04,2.04,2.04,2.04-.91,2.04-2.04-.91-2.04-2.04-2.04Z"/>
      <path class="cls-1" d="M249.26,87.07c-1.13,0-2.04.91-2.04,2.04s.91,2.04,2.04,2.04,2.04-.91,2.04-2.04-.91-2.04-2.04-2.04Z"/>
      <path class="cls-1" d="M254.71,87.07c-1.13,0-2.04.91-2.04,2.04s.91,2.04,2.04,2.04,2.04-.91,2.04-2.04-.91-2.04-2.04-2.04Z"/>
      <path class="cls-1" d="M64.23,96.6c1.13,0,2.04-.91,2.04-2.04s-.91-2.04-2.04-2.04-2.04.91-2.04,2.04.91,2.04,2.04,2.04Z"/>
      <path class="cls-1" d="M69.67,92.52c-1.13,0-2.04.91-2.04,2.04s.91,2.04,2.04,2.04,2.04-.91,2.04-2.04-.91-2.04-2.04-2.04Z"/>
      <path class="cls-1" d="M75.12,92.52c-1.13,0-2.04.91-2.04,2.04s.91,2.04,2.04,2.04,2.04-.91,2.04-2.04-.91-2.04-2.04-2.04Z"/>
      <path class="cls-1" d="M86,92.52c-1.13,0-2.04.91-2.04,2.04s.91,2.04,2.04,2.04,2.04-.91,2.04-2.04-.91-2.04-2.04-2.04Z"/>
      <path class="cls-1" d="M118.65,92.52c-1.13,0-2.04.91-2.04,2.04s.91,2.04,2.04,2.04,2.04-.91,2.04-2.04-.91-2.04-2.04-2.04Z"/>
      <path class="cls-1" d="M124.09,92.52c-1.13,0-2.04.91-2.04,2.04s.91,2.04,2.04,2.04,2.04-.91,2.04-2.04-.91-2.04-2.04-2.04Z"/>
      <path class="cls-1" d="M194.84,92.52c-1.13,0-2.04.91-2.04,2.04s.91,2.04,2.04,2.04,2.04-.91,2.04-2.04-.91-2.04-2.04-2.04Z"/>
      <path class="cls-1" d="M205.73,92.52c-1.13,0-2.04.91-2.04,2.04s.91,2.04,2.04,2.04,2.04-.91,2.04-2.04-.91-2.04-2.04-2.04Z"/>
      <path class="cls-1" d="M222.05,92.52c-1.13,0-2.04.91-2.04,2.04s.91,2.04,2.04,2.04,2.04-.91,2.04-2.04-.91-2.04-2.04-2.04Z"/>
      <path class="cls-1" d="M249.26,92.52c-1.13,0-2.04.91-2.04,2.04s.91,2.04,2.04,2.04,2.04-.91,2.04-2.04-.91-2.04-2.04-2.04Z"/>
      <path class="cls-1" d="M64.23,102.04c1.13,0,2.04-.91,2.04-2.04s-.91-2.04-2.04-2.04-2.04.91-2.04,2.04.91,2.04,2.04,2.04Z"/>
      <path class="cls-1" d="M69.67,97.96c-1.13,0-2.04.91-2.04,2.04s.91,2.04,2.04,2.04,2.04-.91,2.04-2.04-.91-2.04-2.04-2.04Z"/>
      <path class="cls-1" d="M75.12,97.96c-1.13,0-2.04.91-2.04,2.04s.91,2.04,2.04,2.04,2.04-.91,2.04-2.04-.91-2.04-2.04-2.04Z"/>
      <path class="cls-1" d="M86,97.96c-1.13,0-2.04.91-2.04,2.04s.91,2.04,2.04,2.04,2.04-.91,2.04-2.04-.91-2.04-2.04-2.04Z"/>
      <path class="cls-1" d="M96.88,97.96c-1.13,0-2.04.91-2.04,2.04s.91,2.04,2.04,2.04,2.04-.91,2.04-2.04-.91-2.04-2.04-2.04Z"/>
      <path class="cls-1" d="M129.54,97.96c-1.13,0-2.04.91-2.04,2.04s.91,2.04,2.04,2.04,2.04-.91,2.04-2.04-.91-2.04-2.04-2.04Z"/>
      <path class="cls-1" d="M205.73,97.96c-1.13,0-2.04.91-2.04,2.04s.91,2.04,2.04,2.04,2.04-.91,2.04-2.04-.91-2.04-2.04-2.04Z"/>
      <path class="cls-1" d="M211.17,97.96c-1.13,0-2.04.91-2.04,2.04s.91,2.04,2.04,2.04,2.04-.91,2.04-2.04-.91-2.04-2.04-2.04Z"/>
      <path class="cls-1" d="M227.5,97.96c-1.13,0-2.04.91-2.04,2.04s.91,2.04,2.04,2.04,2.04-.91,2.04-2.04-.91-2.04-2.04-2.04Z"/>
      <path class="cls-1" d="M232.94,97.96c-1.13,0-2.04.91-2.04,2.04s.91,2.04,2.04,2.04,2.04-.91,2.04-2.04-.91-2.04-2.04-2.04Z"/>
      <path class="cls-1" d="M238.38,97.96c-1.13,0-2.04.91-2.04,2.04s.91,2.04,2.04,2.04,2.04-.91,2.04-2.04-.91-2.04-2.04-2.04Z"/>
      <path class="cls-1" d="M254.71,97.96c-1.13,0-2.04.91-2.04,2.04s.91,2.04,2.04,2.04,2.04-.91,2.04-2.04-.91-2.04-2.04-2.04Z"/>
      <path class="cls-1" d="M260.15,97.96c-1.13,0-2.04.91-2.04,2.04s.91,2.04,2.04,2.04,2.04-.91,2.04-2.04-.91-2.04-2.04-2.04Z"/>
      <path class="cls-1" d="M75.12,103.4c-1.13,0-2.04.91-2.04,2.04s.91,2.04,2.04,2.04,2.04-.91,2.04-2.04-.91-2.04-2.04-2.04Z"/>
      <path class="cls-1" d="M80.56,103.4c-1.13,0-2.04.91-2.04,2.04s.91,2.04,2.04,2.04,2.04-.91,2.04-2.04-.91-2.04-2.04-2.04Z"/>
      <path class="cls-1" d="M86,103.4c-1.13,0-2.04.91-2.04,2.04s.91,2.04,2.04,2.04,2.04-.91,2.04-2.04-.91-2.04-2.04-2.04Z"/>
      <path class="cls-1" d="M107.77,103.4c-1.13,0-2.04.91-2.04,2.04s.91,2.04,2.04,2.04,2.04-.91,2.04-2.04-.91-2.04-2.04-2.04Z"/>
      <path class="cls-1" d="M118.65,103.4c-1.13,0-2.04.91-2.04,2.04s.91,2.04,2.04,2.04,2.04-.91,2.04-2.04-.91-2.04-2.04-2.04Z"/>
      <path class="cls-1" d="M124.09,103.4c-1.13,0-2.04.91-2.04,2.04s.91,2.04,2.04,2.04,2.04-.91,2.04-2.04-.91-2.04-2.04-2.04Z"/>
      <path class="cls-1" d="M129.54,103.4c-1.13,0-2.04.91-2.04,2.04s.91,2.04,2.04,2.04,2.04-.91,2.04-2.04-.91-2.04-2.04-2.04Z"/>
      <path class="cls-1" d="M205.73,103.4c-1.13,0-2.04.91-2.04,2.04s.91,2.04,2.04,2.04,2.04-.91,2.04-2.04-.91-2.04-2.04-2.04Z"/>
      <path class="cls-1" d="M211.17,103.4c-1.13,0-2.04.91-2.04,2.04s.91,2.04,2.04,2.04,2.04-.91,2.04-2.04-.91-2.04-2.04-2.04Z"/>
      <path class="cls-1" d="M216.61,103.4c-1.13,0-2.04.91-2.04,2.04s.91,2.04,2.04,2.04,2.04-.91,2.04-2.04-.91-2.04-2.04-2.04Z"/>
      <path class="cls-1" d="M222.05,103.4c-1.13,0-2.04.91-2.04,2.04s.91,2.04,2.04,2.04,2.04-.91,2.04-2.04-.91-2.04-2.04-2.04Z"/>
      <path class="cls-1" d="M232.94,103.4c-1.13,0-2.04.91-2.04,2.04s.91,2.04,2.04,2.04,2.04-.91,2.04-2.04-.91-2.04-2.04-2.04Z"/>
      <path class="cls-1" d="M238.38,103.4c-1.13,0-2.04.91-2.04,2.04s.91,2.04,2.04,2.04,2.04-.91,2.04-2.04-.91-2.04-2.04-2.04Z"/>
      <path class="cls-1" d="M75.12,108.84c-1.13,0-2.04.91-2.04,2.04s.91,2.04,2.04,2.04,2.04-.91,2.04-2.04-.91-2.04-2.04-2.04Z"/>
      <path class="cls-1" d="M86,108.84c-1.13,0-2.04.91-2.04,2.04s.91,2.04,2.04,2.04,2.04-.91,2.04-2.04-.91-2.04-2.04-2.04Z"/>
      <path class="cls-1" d="M96.88,108.84c-1.13,0-2.04.91-2.04,2.04s.91,2.04,2.04,2.04,2.04-.91,2.04-2.04-.91-2.04-2.04-2.04Z"/>
      <path class="cls-1" d="M107.77,108.84c-1.13,0-2.04.91-2.04,2.04s.91,2.04,2.04,2.04,2.04-.91,2.04-2.04-.91-2.04-2.04-2.04Z"/>
      <path class="cls-1" d="M118.65,108.84c-1.13,0-2.04.91-2.04,2.04s.91,2.04,2.04,2.04,2.04-.91,2.04-2.04-.91-2.04-2.04-2.04Z"/>
      <path class="cls-1" d="M194.84,108.84c-1.13,0-2.04.91-2.04,2.04s.91,2.04,2.04,2.04,2.04-.91,2.04-2.04-.91-2.04-2.04-2.04Z"/>
      <path class="cls-1" d="M200.28,108.84c-1.13,0-2.04.91-2.04,2.04s.91,2.04,2.04,2.04,2.04-.91,2.04-2.04-.91-2.04-2.04-2.04Z"/>
      <path class="cls-1" d="M205.73,108.84c-1.13,0-2.04.91-2.04,2.04s.91,2.04,2.04,2.04,2.04-.91,2.04-2.04-.91-2.04-2.04-2.04Z"/>
      <path class="cls-1" d="M211.17,108.84c-1.13,0-2.04.91-2.04,2.04s.91,2.04,2.04,2.04,2.04-.91,2.04-2.04-.91-2.04-2.04-2.04Z"/>
      <path class="cls-1" d="M227.5,108.84c-1.13,0-2.04.91-2.04,2.04s.91,2.04,2.04,2.04,2.04-.91,2.04-2.04-.91-2.04-2.04-2.04Z"/>
      <path class="cls-1" d="M232.94,108.84c-1.13,0-2.04.91-2.04,2.04s.91,2.04,2.04,2.04,2.04-.91,2.04-2.04-.91-2.04-2.04-2.04Z"/>
      <path class="cls-1" d="M238.38,108.84c-1.13,0-2.04.91-2.04,2.04s.91,2.04,2.04,2.04,2.04-.91,2.04-2.04-.91-2.04-2.04-2.04Z"/>
      <path class="cls-1" d="M243.82,108.84c-1.13,0-2.04.91-2.04,2.04s.91,2.04,2.04,2.04,2.04-.91,2.04-2.04-.91-2.04-2.04-2.04Z"/>
      <path class="cls-1" d="M249.26,108.84c-1.13,0-2.04.91-2.04,2.04s.91,2.04,2.04,2.04,2.04-.91,2.04-2.04-.91-2.04-2.04-2.04Z"/>
      <path class="cls-1" d="M254.71,108.84c-1.13,0-2.04.91-2.04,2.04s.91,2.04,2.04,2.04,2.04-.91,2.04-2.04-.91-2.04-2.04-2.04Z"/>
      <path class="cls-1" d="M260.15,108.84c-1.13,0-2.04.91-2.04,2.04s.91,2.04,2.04,2.04,2.04-.91,2.04-2.04-.91-2.04-2.04-2.04Z"/>
      <path class="cls-1" d="M69.67,114.29c-1.13,0-2.04.91-2.04,2.04s.91,2.04,2.04,2.04,2.04-.91,2.04-2.04-.91-2.04-2.04-2.04Z"/>
      <path class="cls-1" d="M75.12,114.29c-1.13,0-2.04.91-2.04,2.04s.91,2.04,2.04,2.04,2.04-.91,2.04-2.04-.91-2.04-2.04-2.04Z"/>
      <path class="cls-1" d="M80.56,114.29c-1.13,0-2.04.91-2.04,2.04s.91,2.04,2.04,2.04,2.04-.91,2.04-2.04-.91-2.04-2.04-2.04Z"/>
      <path class="cls-1" d="M91.44,114.29c-1.13,0-2.04.91-2.04,2.04s.91,2.04,2.04,2.04,2.04-.91,2.04-2.04-.91-2.04-2.04-2.04Z"/>
      <path class="cls-1" d="M102.33,114.29c-1.13,0-2.04.91-2.04,2.04s.91,2.04,2.04,2.04,2.04-.91,2.04-2.04-.91-2.04-2.04-2.04Z"/>
      <path class="cls-1" d="M107.77,114.29c-1.13,0-2.04.91-2.04,2.04s.91,2.04,2.04,2.04,2.04-.91,2.04-2.04-.91-2.04-2.04-2.04Z"/>
      <path class="cls-1" d="M113.21,114.29c-1.13,0-2.04.91-2.04,2.04s.91,2.04,2.04,2.04,2.04-.91,2.04-2.04-.91-2.04-2.04-2.04Z"/>
      <path class="cls-1" d="M134.98,114.29c-1.13,0-2.04.91-2.04,2.04s.91,2.04,2.04,2.04,2.04-.91,2.04-2.04-.91-2.04-2.04-2.04Z"/>
      <path class="cls-1" d="M194.84,114.29c-1.13,0-2.04.91-2.04,2.04s.91,2.04,2.04,2.04,2.04-.91,2.04-2.04-.91-2.04-2.04-2.04Z"/>
      <path class="cls-1" d="M205.73,114.29c-1.13,0-2.04.91-2.04,2.04s.91,2.04,2.04,2.04,2.04-.91,2.04-2.04-.91-2.04-2.04-2.04Z"/>
      <path class="cls-1" d="M222.05,114.29c-1.13,0-2.04.91-2.04,2.04s.91,2.04,2.04,2.04,2.04-.91,2.04-2.04-.91-2.04-2.04-2.04Z"/>
      <path class="cls-1" d="M232.94,114.29c-1.13,0-2.04.91-2.04,2.04s.91,2.04,2.04,2.04,2.04-.91,2.04-2.04-.91-2.04-2.04-2.04Z"/>
      <path class="cls-1" d="M260.15,114.29c-1.13,0-2.04.91-2.04,2.04s.91,2.04,2.04,2.04,2.04-.91,2.04-2.04-.91-2.04-2.04-2.04Z"/>
      <path class="cls-1" d="M69.67,119.73c-1.13,0-2.04.91-2.04,2.04s.91,2.04,2.04,2.04,2.04-.91,2.04-2.04-.91-2.04-2.04-2.04Z"/>
      <path class="cls-1" d="M80.56,119.73c-1.13,0-2.04.91-2.04,2.04s.91,2.04,2.04,2.04,2.04-.91,2.04-2.04-.91-2.04-2.04-2.04Z"/>
      <path class="cls-1" d="M86,119.73c-1.13,0-2.04.91-2.04,2.04s.91,2.04,2.04,2.04,2.04-.91,2.04-2.04-.91-2.04-2.04-2.04Z"/>
      <path class="cls-1" d="M96.88,119.73c-1.13,0-2.04.91-2.04,2.04s.91,2.04,2.04,2.04,2.04-.91,2.04-2.04-.91-2.04-2.04-2.04Z"/>
      <path class="cls-1" d="M118.65,119.73c-1.13,0-2.04.91-2.04,2.04s.91,2.04,2.04,2.04,2.04-.91,2.04-2.04-.91-2.04-2.04-2.04Z"/>
      <path class="cls-1" d="M124.09,119.73c-1.13,0-2.04.91-2.04,2.04s.91,2.04,2.04,2.04,2.04-.91,2.04-2.04-.91-2.04-2.04-2.04Z"/>
      <path class="cls-1" d="M189.4,119.73c-1.13,0-2.04.91-2.04,2.04s.91,2.04,2.04,2.04,2.04-.91,2.04-2.04-.91-2.04-2.04-2.04Z"/>
      <path class="cls-1" d="M194.84,119.73c-1.13,0-2.04.91-2.04,2.04s.91,2.04,2.04,2.04,2.04-.91,2.04-2.04-.91-2.04-2.04-2.04Z"/>
      <path class="cls-1" d="M211.17,119.73c-1.13,0-2.04.91-2.04,2.04s.91,2.04,2.04,2.04,2.04-.91,2.04-2.04-.91-2.04-2.04-2.04Z"/>
      <path class="cls-1" d="M222.05,119.73c-1.13,0-2.04.91-2.04,2.04s.91,2.04,2.04,2.04,2.04-.91,2.04-2.04-.91-2.04-2.04-2.04Z"/>
      <path class="cls-1" d="M243.82,119.73c-1.13,0-2.04.91-2.04,2.04s.91,2.04,2.04,2.04,2.04-.91,2.04-2.04-.91-2.04-2.04-2.04Z"/>
      <path class="cls-1" d="M254.71,119.73c-1.13,0-2.04.91-2.04,2.04s.91,2.04,2.04,2.04,2.04-.91,2.04-2.04-.91-2.04-2.04-2.04Z"/>
      <path class="cls-1" d="M260.15,119.73c-1.13,0-2.04.91-2.04,2.04s.91,2.04,2.04,2.04,2.04-.91,2.04-2.04-.91-2.04-2.04-2.04Z"/>
      <path class="cls-1" d="M64.23,129.25c1.13,0,2.04-.91,2.04-2.04s-.91-2.04-2.04-2.04-2.04.91-2.04,2.04.91,2.04,2.04,2.04Z"/>
      <path class="cls-1" d="M75.12,125.17c-1.13,0-2.04.91-2.04,2.04s.91,2.04,2.04,2.04,2.04-.91,2.04-2.04-.91-2.04-2.04-2.04Z"/>
      <path class="cls-1" d="M80.56,125.17c-1.13,0-2.04.91-2.04,2.04s.91,2.04,2.04,2.04,2.04-.91,2.04-2.04-.91-2.04-2.04-2.04Z"/>
      <path class="cls-1" d="M86,125.17c-1.13,0-2.04.91-2.04,2.04s.91,2.04,2.04,2.04,2.04-.91,2.04-2.04-.91-2.04-2.04-2.04Z"/>
      <path class="cls-1" d="M107.77,125.17c-1.13,0-2.04.91-2.04,2.04s.91,2.04,2.04,2.04,2.04-.91,2.04-2.04-.91-2.04-2.04-2.04Z"/>
      <path class="cls-1" d="M124.09,125.17c-1.13,0-2.04.91-2.04,2.04s.91,2.04,2.04,2.04,2.04-.91,2.04-2.04-.91-2.04-2.04-2.04Z"/>
      <path class="cls-1" d="M129.54,125.17c-1.13,0-2.04.91-2.04,2.04s.91,2.04,2.04,2.04,2.04-.91,2.04-2.04-.91-2.04-2.04-2.04Z"/>
      <path class="cls-1" d="M140.42,125.17c-1.13,0-2.04.91-2.04,2.04s.91,2.04,2.04,2.04,2.04-.91,2.04-2.04-.91-2.04-2.04-2.04Z"/>
      <path class="cls-1" d="M145.86,125.17c-1.13,0-2.04.91-2.04,2.04s.91,2.04,2.04,2.04,2.04-.91,2.04-2.04-.91-2.04-2.04-2.04Z"/>
      <path class="cls-1" d="M178.52,125.17c-1.13,0-2.04.91-2.04,2.04s.91,2.04,2.04,2.04,2.04-.91,2.04-2.04-.91-2.04-2.04-2.04Z"/>
      <path class="cls-1" d="M183.96,125.17c-1.13,0-2.04.91-2.04,2.04s.91,2.04,2.04,2.04,2.04-.91,2.04-2.04-.91-2.04-2.04-2.04Z"/>
      <path class="cls-1" d="M194.84,125.17c-1.13,0-2.04.91-2.04,2.04s.91,2.04,2.04,2.04,2.04-.91,2.04-2.04-.91-2.04-2.04-2.04Z"/>
      <path class="cls-1" d="M205.73,125.17c-1.13,0-2.04.91-2.04,2.04s.91,2.04,2.04,2.04,2.04-.91,2.04-2.04-.91-2.04-2.04-2.04Z"/>
      <path class="cls-1" d="M222.05,125.17c-1.13,0-2.04.91-2.04,2.04s.91,2.04,2.04,2.04,2.04-.91,2.04-2.04-.91-2.04-2.04-2.04Z"/>
      <path class="cls-1" d="M232.94,125.17c-1.13,0-2.04.91-2.04,2.04s.91,2.04,2.04,2.04,2.04-.91,2.04-2.04-.91-2.04-2.04-2.04Z"/>
      <path class="cls-1" d="M243.82,125.17c-1.13,0-2.04.91-2.04,2.04s.91,2.04,2.04,2.04,2.04-.91,2.04-2.04-.91-2.04-2.04-2.04Z"/>
      <path class="cls-1" d="M254.71,125.17c-1.13,0-2.04.91-2.04,2.04s.91,2.04,2.04,2.04,2.04-.91,2.04-2.04-.91-2.04-2.04-2.04Z"/>
      <path class="cls-1" d="M260.15,125.17c-1.13,0-2.04.91-2.04,2.04s.91,2.04,2.04,2.04,2.04-.91,2.04-2.04-.91-2.04-2.04-2.04Z"/>
      <path class="cls-1" d="M69.67,130.61c-1.13,0-2.04.91-2.04,2.04s.91,2.04,2.04,2.04,2.04-.91,2.04-2.04-.91-2.04-2.04-2.04Z"/>
      <path class="cls-1" d="M75.12,130.61c-1.13,0-2.04.91-2.04,2.04s.91,2.04,2.04,2.04,2.04-.91,2.04-2.04-.91-2.04-2.04-2.04Z"/>
      <path class="cls-1" d="M80.56,130.61c-1.13,0-2.04.91-2.04,2.04s.91,2.04,2.04,2.04,2.04-.91,2.04-2.04-.91-2.04-2.04-2.04Z"/>
      <path class="cls-1" d="M96.88,130.61c-1.13,0-2.04.91-2.04,2.04s.91,2.04,2.04,2.04,2.04-.91,2.04-2.04-.91-2.04-2.04-2.04Z"/>
      <path class="cls-1" d="M107.77,130.61c-1.13,0-2.04.91-2.04,2.04s.91,2.04,2.04,2.04,2.04-.91,2.04-2.04-.91-2.04-2.04-2.04Z"/>
      <path class="cls-1" d="M118.65,130.61c-1.13,0-2.04.91-2.04,2.04s.91,2.04,2.04,2.04,2.04-.91,2.04-2.04-.91-2.04-2.04-2.04Z"/>
      <path class="cls-1" d="M124.09,130.61c-1.13,0-2.04.91-2.04,2.04s.91,2.04,2.04,2.04,2.04-.91,2.04-2.04-.91-2.04-2.04-2.04Z"/>
      <path class="cls-1" d="M129.54,130.61c-1.13,0-2.04.91-2.04,2.04s.91,2.04,2.04,2.04,2.04-.91,2.04-2.04-.91-2.04-2.04-2.04Z"/>
      <path class="cls-1" d="M140.42,130.61c-1.13,0-2.04.91-2.04,2.04s.91,2.04,2.04,2.04,2.04-.91,2.04-2.04-.91-2.04-2.04-2.04Z"/>
      <path class="cls-1" d="M151.31,130.61c-1.13,0-2.04.91-2.04,2.04s.91,2.04,2.04,2.04,2.04-.91,2.04-2.04-.91-2.04-2.04-2.04Z"/>
      <path class="cls-1" d="M156.75,130.61c-1.13,0-2.04.91-2.04,2.04s.91,2.04,2.04,2.04,2.04-.91,2.04-2.04-.91-2.04-2.04-2.04Z"/>
      <path class="cls-1" d="M227.5,130.61c-1.13,0-2.04.91-2.04,2.04s.91,2.04,2.04,2.04,2.04-.91,2.04-2.04-.91-2.04-2.04-2.04Z"/>
      <path class="cls-1" d="M238.38,130.61c-1.13,0-2.04.91-2.04,2.04s.91,2.04,2.04,2.04,2.04-.91,2.04-2.04-.91-2.04-2.04-2.04Z"/>
      <path class="cls-1" d="M249.26,130.61c-1.13,0-2.04.91-2.04,2.04s.91,2.04,2.04,2.04,2.04-.91,2.04-2.04-.91-2.04-2.04-2.04Z"/>
      <path class="cls-1" d="M254.71,130.61c-1.13,0-2.04.91-2.04,2.04s.91,2.04,2.04,2.04,2.04-.91,2.04-2.04-.91-2.04-2.04-2.04Z"/>
      <path class="cls-1" d="M64.23,140.14c1.13,0,2.04-.91,2.04-2.04s-.91-2.04-2.04-2.04-2.04.91-2.04,2.04.91,2.04,2.04,2.04Z"/>
      <path class="cls-1" d="M69.67,136.05c-1.13,0-2.04.91-2.04,2.04s.91,2.04,2.04,2.04,2.04-.91,2.04-2.04-.91-2.04-2.04-2.04Z"/>
      <path class="cls-1" d="M75.12,136.05c-1.13,0-2.04.91-2.04,2.04s.91,2.04,2.04,2.04,2.04-.91,2.04-2.04-.91-2.04-2.04-2.04Z"/>
      <path class="cls-1" d="M102.33,136.05c-1.13,0-2.04.91-2.04,2.04s.91,2.04,2.04,2.04,2.04-.91,2.04-2.04-.91-2.04-2.04-2.04Z"/>
      <path class="cls-1" d="M124.09,136.05c-1.13,0-2.04.91-2.04,2.04s.91,2.04,2.04,2.04,2.04-.91,2.04-2.04-.91-2.04-2.04-2.04Z"/>
      <path class="cls-1" d="M140.42,136.05c-1.13,0-2.04.91-2.04,2.04s.91,2.04,2.04,2.04,2.04-.91,2.04-2.04-.91-2.04-2.04-2.04Z"/>
      <path class="cls-1" d="M151.31,136.05c-1.13,0-2.04.91-2.04,2.04s.91,2.04,2.04,2.04,2.04-.91,2.04-2.04-.91-2.04-2.04-2.04Z"/>
      <path class="cls-1" d="M156.75,136.05c-1.13,0-2.04.91-2.04,2.04s.91,2.04,2.04,2.04,2.04-.91,2.04-2.04-.91-2.04-2.04-2.04Z"/>
      <path class="cls-1" d="M173.07,136.05c-1.13,0-2.04.91-2.04,2.04s.91,2.04,2.04,2.04,2.04-.91,2.04-2.04-.91-2.04-2.04-2.04Z"/>
      <path class="cls-1" d="M194.84,136.05c-1.13,0-2.04.91-2.04,2.04s.91,2.04,2.04,2.04,2.04-.91,2.04-2.04-.91-2.04-2.04-2.04Z"/>
      <path class="cls-1" d="M205.73,136.05c-1.13,0-2.04.91-2.04,2.04s.91,2.04,2.04,2.04,2.04-.91,2.04-2.04-.91-2.04-2.04-2.04Z"/>
      <path class="cls-1" d="M211.17,136.05c-1.13,0-2.04.91-2.04,2.04s.91,2.04,2.04,2.04,2.04-.91,2.04-2.04-.91-2.04-2.04-2.04Z"/>
      <path class="cls-1" d="M216.61,136.05c-1.13,0-2.04.91-2.04,2.04s.91,2.04,2.04,2.04,2.04-.91,2.04-2.04-.91-2.04-2.04-2.04Z"/>
      <path class="cls-1" d="M227.5,136.05c-1.13,0-2.04.91-2.04,2.04s.91,2.04,2.04,2.04,2.04-.91,2.04-2.04-.91-2.04-2.04-2.04Z"/>
      <path class="cls-1" d="M232.94,136.05c-1.13,0-2.04.91-2.04,2.04s.91,2.04,2.04,2.04,2.04-.91,2.04-2.04-.91-2.04-2.04-2.04Z"/>
      <path class="cls-1" d="M254.71,136.05c-1.13,0-2.04.91-2.04,2.04s.91,2.04,2.04,2.04,2.04-.91,2.04-2.04-.91-2.04-2.04-2.04Z"/>
      <path class="cls-1" d="M64.23,145.58c1.13,0,2.04-.91,2.04-2.04s-.91-2.04-2.04-2.04-2.04.91-2.04,2.04.91,2.04,2.04,2.04Z"/>
      <path class="cls-1" d="M80.56,141.5c-1.13,0-2.04.91-2.04,2.04s.91,2.04,2.04,2.04,2.04-.91,2.04-2.04-.91-2.04-2.04-2.04Z"/>
      <path class="cls-1" d="M91.44,141.5c-1.13,0-2.04.91-2.04,2.04s.91,2.04,2.04,2.04,2.04-.91,2.04-2.04-.91-2.04-2.04-2.04Z"/>
      <path class="cls-1" d="M96.88,141.5c-1.13,0-2.04.91-2.04,2.04s.91,2.04,2.04,2.04,2.04-.91,2.04-2.04-.91-2.04-2.04-2.04Z"/>
      <path class="cls-1" d="M102.33,141.5c-1.13,0-2.04.91-2.04,2.04s.91,2.04,2.04,2.04,2.04-.91,2.04-2.04-.91-2.04-2.04-2.04Z"/>
      <path class="cls-1" d="M134.98,141.5c-1.13,0-2.04.91-2.04,2.04s.91,2.04,2.04,2.04,2.04-.91,2.04-2.04-.91-2.04-2.04-2.04Z"/>
      <path class="cls-1" d="M145.86,141.5c-1.13,0-2.04.91-2.04,2.04s.91,2.04,2.04,2.04,2.04-.91,2.04-2.04-.91-2.04-2.04-2.04Z"/>
      <path class="cls-1" d="M156.75,141.5c-1.13,0-2.04.91-2.04,2.04s.91,2.04,2.04,2.04,2.04-.91,2.04-2.04-.91-2.04-2.04-2.04Z"/>
      <path class="cls-1" d="M167.63,141.5c-1.13,0-2.04.91-2.04,2.04s.91,2.04,2.04,2.04,2.04-.91,2.04-2.04-.91-2.04-2.04-2.04Z"/>
      <path class="cls-1" d="M173.07,141.5c-1.13,0-2.04.91-2.04,2.04s.91,2.04,2.04,2.04,2.04-.91,2.04-2.04-.91-2.04-2.04-2.04Z"/>
      <path class="cls-1" d="M200.28,141.5c-1.13,0-2.04.91-2.04,2.04s.91,2.04,2.04,2.04,2.04-.91,2.04-2.04-.91-2.04-2.04-2.04Z"/>
      <path class="cls-1" d="M205.73,141.5c-1.13,0-2.04.91-2.04,2.04s.91,2.04,2.04,2.04,2.04-.91,2.04-2.04-.91-2.04-2.04-2.04Z"/>
      <path class="cls-1" d="M227.5,141.5c-1.13,0-2.04.91-2.04,2.04s.91,2.04,2.04,2.04,2.04-.91,2.04-2.04-.91-2.04-2.04-2.04Z"/>
      <path class="cls-1" d="M260.15,141.5c-1.13,0-2.04.91-2.04,2.04s.91,2.04,2.04,2.04,2.04-.91,2.04-2.04-.91-2.04-2.04-2.04Z"/>
      <path class="cls-1" d="M64.23,151.02c1.13,0,2.04-.91,2.04-2.04s-.91-2.04-2.04-2.04-2.04.91-2.04,2.04.91,2.04,2.04,2.04Z"/>
      <path class="cls-1" d="M107.77,146.94c-1.13,0-2.04.91-2.04,2.04s.91,2.04,2.04,2.04,2.04-.91,2.04-2.04-.91-2.04-2.04-2.04Z"/>
      <path class="cls-1" d="M118.65,146.94c-1.13,0-2.04.91-2.04,2.04s.91,2.04,2.04,2.04,2.04-.91,2.04-2.04-.91-2.04-2.04-2.04Z"/>
      <path class="cls-1" d="M129.54,146.94c-1.13,0-2.04.91-2.04,2.04s.91,2.04,2.04,2.04,2.04-.91,2.04-2.04-.91-2.04-2.04-2.04Z"/>
      <path class="cls-1" d="M145.86,146.94c-1.13,0-2.04.91-2.04,2.04s.91,2.04,2.04,2.04,2.04-.91,2.04-2.04-.91-2.04-2.04-2.04Z"/>
      <path class="cls-1" d="M151.31,146.94c-1.13,0-2.04.91-2.04,2.04s.91,2.04,2.04,2.04,2.04-.91,2.04-2.04-.91-2.04-2.04-2.04Z"/>
      <path class="cls-1" d="M156.75,146.94c-1.13,0-2.04.91-2.04,2.04s.91,2.04,2.04,2.04,2.04-.91,2.04-2.04-.91-2.04-2.04-2.04Z"/>
      <path class="cls-1" d="M162.19,146.94c-1.13,0-2.04.91-2.04,2.04s.91,2.04,2.04,2.04,2.04-.91,2.04-2.04-.91-2.04-2.04-2.04Z"/>
      <path class="cls-1" d="M167.63,146.94c-1.13,0-2.04.91-2.04,2.04s.91,2.04,2.04,2.04,2.04-.91,2.04-2.04-.91-2.04-2.04-2.04Z"/>
      <path class="cls-1" d="M194.84,146.94c-1.13,0-2.04.91-2.04,2.04s.91,2.04,2.04,2.04,2.04-.91,2.04-2.04-.91-2.04-2.04-2.04Z"/>
      <path class="cls-1" d="M205.73,146.94c-1.13,0-2.04.91-2.04,2.04s.91,2.04,2.04,2.04,2.04-.91,2.04-2.04-.91-2.04-2.04-2.04Z"/>
      <path class="cls-1" d="M216.61,146.94c-1.13,0-2.04.91-2.04,2.04s.91,2.04,2.04,2.04,2.04-.91,2.04-2.04-.91-2.04-2.04-2.04Z"/>
      <path class="cls-1" d="M222.05,146.94c-1.13,0-2.04.91-2.04,2.04s.91,2.04,2.04,2.04,2.04-.91,2.04-2.04-.91-2.04-2.04-2.04Z"/>
      <path class="cls-1" d="M232.94,146.94c-1.13,0-2.04.91-2.04,2.04s.91,2.04,2.04,2.04,2.04-.91,2.04-2.04-.91-2.04-2.04-2.04Z"/>
      <path class="cls-1" d="M238.38,146.94c-1.13,0-2.04.91-2.04,2.04s.91,2.04,2.04,2.04,2.04-.91,2.04-2.04-.91-2.04-2.04-2.04Z"/>
      <path class="cls-1" d="M260.15,146.94c-1.13,0-2.04.91-2.04,2.04s.91,2.04,2.04,2.04,2.04-.91,2.04-2.04-.91-2.04-2.04-2.04Z"/>
      <path class="cls-1" d="M66.27,154.42c0-1.13-.91-2.04-2.04-2.04s-2.04.91-2.04,2.04.91,2.04,2.04,2.04,2.04-.91,2.04-2.04Z"/>
      <path class="cls-1" d="M75.12,152.38c-1.13,0-2.04.91-2.04,2.04s.91,2.04,2.04,2.04,2.04-.91,2.04-2.04-.91-2.04-2.04-2.04Z"/>
      <path class="cls-1" d="M80.56,152.38c-1.13,0-2.04.91-2.04,2.04s.91,2.04,2.04,2.04,2.04-.91,2.04-2.04-.91-2.04-2.04-2.04Z"/>
      <path class="cls-1" d="M96.88,152.38c-1.13,0-2.04.91-2.04,2.04s.91,2.04,2.04,2.04,2.04-.91,2.04-2.04-.91-2.04-2.04-2.04Z"/>
      <path class="cls-1" d="M118.65,152.38c-1.13,0-2.04.91-2.04,2.04s.91,2.04,2.04,2.04,2.04-.91,2.04-2.04-.91-2.04-2.04-2.04Z"/>
      <path class="cls-1" d="M124.09,152.38c-1.13,0-2.04.91-2.04,2.04s.91,2.04,2.04,2.04,2.04-.91,2.04-2.04-.91-2.04-2.04-2.04Z"/>
      <path class="cls-1" d="M134.98,152.38c-1.13,0-2.04.91-2.04,2.04s.91,2.04,2.04,2.04,2.04-.91,2.04-2.04-.91-2.04-2.04-2.04Z"/>
      <path class="cls-1" d="M140.42,152.38c-1.13,0-2.04.91-2.04,2.04s.91,2.04,2.04,2.04,2.04-.91,2.04-2.04-.91-2.04-2.04-2.04Z"/>
      <path class="cls-1" d="M156.75,152.38c-1.13,0-2.04.91-2.04,2.04s.91,2.04,2.04,2.04,2.04-.91,2.04-2.04-.91-2.04-2.04-2.04Z"/>
      <path class="cls-1" d="M178.52,152.38c-1.13,0-2.04.91-2.04,2.04s.91,2.04,2.04,2.04,2.04-.91,2.04-2.04-.91-2.04-2.04-2.04Z"/>
      <path class="cls-1" d="M183.96,152.38c-1.13,0-2.04.91-2.04,2.04s.91,2.04,2.04,2.04,2.04-.91,2.04-2.04-.91-2.04-2.04-2.04Z"/>
      <path class="cls-1" d="M200.28,152.38c-1.13,0-2.04.91-2.04,2.04s.91,2.04,2.04,2.04,2.04-.91,2.04-2.04-.91-2.04-2.04-2.04Z"/>
      <path class="cls-1" d="M205.73,152.38c-1.13,0-2.04.91-2.04,2.04s.91,2.04,2.04,2.04,2.04-.91,2.04-2.04-.91-2.04-2.04-2.04Z"/>
      <path class="cls-1" d="M216.61,152.38c-1.13,0-2.04.91-2.04,2.04s.91,2.04,2.04,2.04,2.04-.91,2.04-2.04-.91-2.04-2.04-2.04Z"/>
      <path class="cls-1" d="M222.05,152.38c-1.13,0-2.04.91-2.04,2.04s.91,2.04,2.04,2.04,2.04-.91,2.04-2.04-.91-2.04-2.04-2.04Z"/>
      <path class="cls-1" d="M227.5,152.38c-1.13,0-2.04.91-2.04,2.04s.91,2.04,2.04,2.04,2.04-.91,2.04-2.04-.91-2.04-2.04-2.04Z"/>
      <path class="cls-1" d="M232.94,152.38c-1.13,0-2.04.91-2.04,2.04s.91,2.04,2.04,2.04,2.04-.91,2.04-2.04-.91-2.04-2.04-2.04Z"/>
      <path class="cls-1" d="M238.38,152.38c-1.13,0-2.04.91-2.04,2.04s.91,2.04,2.04,2.04,2.04-.91,2.04-2.04-.91-2.04-2.04-2.04Z"/>
      <path class="cls-1" d="M243.82,152.38c-1.13,0-2.04.91-2.04,2.04s.91,2.04,2.04,2.04,2.04-.91,2.04-2.04-.91-2.04-2.04-2.04Z"/>
      <path class="cls-1" d="M249.26,152.38c-1.13,0-2.04.91-2.04,2.04s.91,2.04,2.04,2.04,2.04-.91,2.04-2.04-.91-2.04-2.04-2.04Z"/>
      <path class="cls-1" d="M254.71,152.38c-1.13,0-2.04.91-2.04,2.04s.91,2.04,2.04,2.04,2.04-.91,2.04-2.04-.91-2.04-2.04-2.04Z"/>
      <path class="cls-1" d="M260.15,152.38c-1.13,0-2.04.91-2.04,2.04s.91,2.04,2.04,2.04,2.04-.91,2.04-2.04-.91-2.04-2.04-2.04Z"/>
      <path class="cls-1" d="M107.77,157.82c-1.13,0-2.04.91-2.04,2.04s.91,2.04,2.04,2.04,2.04-.91,2.04-2.04-.91-2.04-2.04-2.04Z"/>
      <path class="cls-1" d="M113.21,157.82c-1.13,0-2.04.91-2.04,2.04s.91,2.04,2.04,2.04,2.04-.91,2.04-2.04-.91-2.04-2.04-2.04Z"/>
      <path class="cls-1" d="M118.65,157.82c-1.13,0-2.04.91-2.04,2.04s.91,2.04,2.04,2.04,2.04-.91,2.04-2.04-.91-2.04-2.04-2.04Z"/>
      <path class="cls-1" d="M140.42,157.82c-1.13,0-2.04.91-2.04,2.04s.91,2.04,2.04,2.04,2.04-.91,2.04-2.04-.91-2.04-2.04-2.04Z"/>
      <path class="cls-1" d="M151.31,157.82c-1.13,0-2.04.91-2.04,2.04s.91,2.04,2.04,2.04,2.04-.91,2.04-2.04-.91-2.04-2.04-2.04Z"/>
      <path class="cls-1" d="M156.75,157.82c-1.13,0-2.04.91-2.04,2.04s.91,2.04,2.04,2.04,2.04-.91,2.04-2.04-.91-2.04-2.04-2.04Z"/>
      <path class="cls-1" d="M162.19,157.82c-1.13,0-2.04.91-2.04,2.04s.91,2.04,2.04,2.04,2.04-.91,2.04-2.04-.91-2.04-2.04-2.04Z"/>
      <path class="cls-1" d="M167.63,157.82c-1.13,0-2.04.91-2.04,2.04s.91,2.04,2.04,2.04,2.04-.91,2.04-2.04-.91-2.04-2.04-2.04Z"/>
      <path class="cls-1" d="M183.96,157.82c-1.13,0-2.04.91-2.04,2.04s.91,2.04,2.04,2.04,2.04-.91,2.04-2.04-.91-2.04-2.04-2.04Z"/>
      <path class="cls-1" d="M189.4,157.82c-1.13,0-2.04.91-2.04,2.04s.91,2.04,2.04,2.04,2.04-.91,2.04-2.04-.91-2.04-2.04-2.04Z"/>
      <path class="cls-1" d="M194.84,157.82c-1.13,0-2.04.91-2.04,2.04s.91,2.04,2.04,2.04,2.04-.91,2.04-2.04-.91-2.04-2.04-2.04Z"/>
      <path class="cls-1" d="M200.28,157.82c-1.13,0-2.04.91-2.04,2.04s.91,2.04,2.04,2.04,2.04-.91,2.04-2.04-.91-2.04-2.04-2.04Z"/>
      <path class="cls-1" d="M216.61,157.82c-1.13,0-2.04.91-2.04,2.04s.91,2.04,2.04,2.04,2.04-.91,2.04-2.04-.91-2.04-2.04-2.04Z"/>
      <path class="cls-1" d="M238.38,157.82c-1.13,0-2.04.91-2.04,2.04s.91,2.04,2.04,2.04,2.04-.91,2.04-2.04-.91-2.04-2.04-2.04Z"/>
      <path class="cls-1" d="M113.21,163.27c-1.13,0-2.04.91-2.04,2.04s.91,2.04,2.04,2.04,2.04-.91,2.04-2.04-.91-2.04-2.04-2.04Z"/>
      <path class="cls-1" d="M124.09,163.27c-1.13,0-2.04.91-2.04,2.04s.91,2.04,2.04,2.04,2.04-.91,2.04-2.04-.91-2.04-2.04-2.04Z"/>
      <path class="cls-1" d="M151.31,163.27c-1.13,0-2.04.91-2.04,2.04s.91,2.04,2.04,2.04,2.04-.91,2.04-2.04-.91-2.04-2.04-2.04Z"/>
      <path class="cls-1" d="M167.63,163.27c-1.13,0-2.04.91-2.04,2.04s.91,2.04,2.04,2.04,2.04-.91,2.04-2.04-.91-2.04-2.04-2.04Z"/>
      <path class="cls-1" d="M173.07,163.27c-1.13,0-2.04.91-2.04,2.04s.91,2.04,2.04,2.04,2.04-.91,2.04-2.04-.91-2.04-2.04-2.04Z"/>
      <path class="cls-1" d="M178.52,163.27c-1.13,0-2.04.91-2.04,2.04s.91,2.04,2.04,2.04,2.04-.91,2.04-2.04-.91-2.04-2.04-2.04Z"/>
      <path class="cls-1" d="M183.96,163.27c-1.13,0-2.04.91-2.04,2.04s.91,2.04,2.04,2.04,2.04-.91,2.04-2.04-.91-2.04-2.04-2.04Z"/>
      <path class="cls-1" d="M194.84,163.27c-1.13,0-2.04.91-2.04,2.04s.91,2.04,2.04,2.04,2.04-.91,2.04-2.04-.91-2.04-2.04-2.04Z"/>
      <path class="cls-1" d="M216.61,163.27c-1.13,0-2.04.91-2.04,2.04s.91,2.04,2.04,2.04,2.04-.91,2.04-2.04-.91-2.04-2.04-2.04Z"/>
      <path class="cls-1" d="M227.5,163.27c-1.13,0-2.04.91-2.04,2.04s.91,2.04,2.04,2.04,2.04-.91,2.04-2.04-.91-2.04-2.04-2.04Z"/>
      <path class="cls-1" d="M238.38,163.27c-1.13,0-2.04.91-2.04,2.04s.91,2.04,2.04,2.04,2.04-.91,2.04-2.04-.91-2.04-2.04-2.04Z"/>
      <path class="cls-1" d="M243.82,163.27c-1.13,0-2.04.91-2.04,2.04s.91,2.04,2.04,2.04,2.04-.91,2.04-2.04-.91-2.04-2.04-2.04Z"/>
      <path class="cls-1" d="M260.15,163.27c-1.13,0-2.04.91-2.04,2.04s.91,2.04,2.04,2.04,2.04-.91,2.04-2.04-.91-2.04-2.04-2.04Z"/>
      <path class="cls-1" d="M129.54,168.71c-1.13,0-2.04.91-2.04,2.04s.91,2.04,2.04,2.04,2.04-.91,2.04-2.04-.91-2.04-2.04-2.04Z"/>
      <path class="cls-1" d="M151.31,168.71c-1.13,0-2.04.91-2.04,2.04s.91,2.04,2.04,2.04,2.04-.91,2.04-2.04-.91-2.04-2.04-2.04Z"/>
      <path class="cls-1" d="M156.75,168.71c-1.13,0-2.04.91-2.04,2.04s.91,2.04,2.04,2.04,2.04-.91,2.04-2.04-.91-2.04-2.04-2.04Z"/>
      <path class="cls-1" d="M173.07,168.71c-1.13,0-2.04.91-2.04,2.04s.91,2.04,2.04,2.04,2.04-.91,2.04-2.04-.91-2.04-2.04-2.04Z"/>
      <path class="cls-1" d="M205.73,168.71c-1.13,0-2.04.91-2.04,2.04s.91,2.04,2.04,2.04,2.04-.91,2.04-2.04-.91-2.04-2.04-2.04Z"/>
      <path class="cls-1" d="M211.17,168.71c-1.13,0-2.04.91-2.04,2.04s.91,2.04,2.04,2.04,2.04-.91,2.04-2.04-.91-2.04-2.04-2.04Z"/>
      <path class="cls-1" d="M216.61,168.71c-1.13,0-2.04.91-2.04,2.04s.91,2.04,2.04,2.04,2.04-.91,2.04-2.04-.91-2.04-2.04-2.04Z"/>
      <path class="cls-1" d="M238.38,168.71c-1.13,0-2.04.91-2.04,2.04s.91,2.04,2.04,2.04,2.04-.91,2.04-2.04-.91-2.04-2.04-2.04Z"/>
      <path class="cls-1" d="M254.71,168.71c-1.13,0-2.04.91-2.04,2.04s.91,2.04,2.04,2.04,2.04-.91,2.04-2.04-.91-2.04-2.04-2.04Z"/>
      <path class="cls-1" d="M260.15,168.71c-1.13,0-2.04.91-2.04,2.04s.91,2.04,2.04,2.04,2.04-.91,2.04-2.04-.91-2.04-2.04-2.04Z"/>
      <path class="cls-1" d="M107.77,174.15c-1.13,0-2.04.91-2.04,2.04s.91,2.04,2.04,2.04,2.04-.91,2.04-2.04-.91-2.04-2.04-2.04Z"/>
      <path class="cls-1" d="M113.21,174.15c-1.13,0-2.04.91-2.04,2.04s.91,2.04,2.04,2.04,2.04-.91,2.04-2.04-.91-2.04-2.04-2.04Z"/>
      <path class="cls-1" d="M129.54,174.15c-1.13,0-2.04.91-2.04,2.04s.91,2.04,2.04,2.04,2.04-.91,2.04-2.04-.91-2.04-2.04-2.04Z"/>
      <path class="cls-1" d="M156.75,174.15c-1.13,0-2.04.91-2.04,2.04s.91,2.04,2.04,2.04,2.04-.91,2.04-2.04-.91-2.04-2.04-2.04Z"/>
      <path class="cls-1" d="M162.19,174.15c-1.13,0-2.04.91-2.04,2.04s.91,2.04,2.04,2.04,2.04-.91,2.04-2.04-.91-2.04-2.04-2.04Z"/>
      <path class="cls-1" d="M173.07,174.15c-1.13,0-2.04.91-2.04,2.04s.91,2.04,2.04,2.04,2.04-.91,2.04-2.04-.91-2.04-2.04-2.04Z"/>
      <path class="cls-1" d="M183.96,174.15c-1.13,0-2.04.91-2.04,2.04s.91,2.04,2.04,2.04,2.04-.91,2.04-2.04-.91-2.04-2.04-2.04Z"/>
      <path class="cls-1" d="M194.84,174.15c-1.13,0-2.04.91-2.04,2.04s.91,2.04,2.04,2.04,2.04-.91,2.04-2.04-.91-2.04-2.04-2.04Z"/>
      <path class="cls-1" d="M200.28,174.15c-1.13,0-2.04.91-2.04,2.04s.91,2.04,2.04,2.04,2.04-.91,2.04-2.04-.91-2.04-2.04-2.04Z"/>
      <path class="cls-1" d="M211.17,174.15c-1.13,0-2.04.91-2.04,2.04s.91,2.04,2.04,2.04,2.04-.91,2.04-2.04-.91-2.04-2.04-2.04Z"/>
      <path class="cls-1" d="M216.61,174.15c-1.13,0-2.04.91-2.04,2.04s.91,2.04,2.04,2.04,2.04-.91,2.04-2.04-.91-2.04-2.04-2.04Z"/>
      <path class="cls-1" d="M222.05,174.15c-1.13,0-2.04.91-2.04,2.04s.91,2.04,2.04,2.04,2.04-.91,2.04-2.04-.91-2.04-2.04-2.04Z"/>
      <path class="cls-1" d="M227.5,174.15c-1.13,0-2.04.91-2.04,2.04s.91,2.04,2.04,2.04,2.04-.91,2.04-2.04-.91-2.04-2.04-2.04Z"/>
      <path class="cls-1" d="M232.94,174.15c-1.13,0-2.04.91-2.04,2.04s.91,2.04,2.04,2.04,2.04-.91,2.04-2.04-.91-2.04-2.04-2.04Z"/>
      <path class="cls-1" d="M238.38,174.15c-1.13,0-2.04.91-2.04,2.04s.91,2.04,2.04,2.04,2.04-.91,2.04-2.04-.91-2.04-2.04-2.04Z"/>
      <path class="cls-1" d="M249.26,174.15c-1.13,0-2.04.91-2.04,2.04s.91,2.04,2.04,2.04,2.04-.91,2.04-2.04-.91-2.04-2.04-2.04Z"/>
      <path class="cls-1" d="M260.15,174.15c-1.13,0-2.04.91-2.04,2.04s.91,2.04,2.04,2.04,2.04-.91,2.04-2.04-.91-2.04-2.04-2.04Z"/>
      <path class="cls-1" d="M107.77,179.59c-1.13,0-2.04.91-2.04,2.04s.91,2.04,2.04,2.04,2.04-.91,2.04-2.04-.91-2.04-2.04-2.04Z"/>
      <path class="cls-1" d="M113.21,179.59c-1.13,0-2.04.91-2.04,2.04s.91,2.04,2.04,2.04,2.04-.91,2.04-2.04-.91-2.04-2.04-2.04Z"/>
      <path class="cls-1" d="M124.09,179.59c-1.13,0-2.04.91-2.04,2.04s.91,2.04,2.04,2.04,2.04-.91,2.04-2.04-.91-2.04-2.04-2.04Z"/>
      <path class="cls-1" d="M129.54,179.59c-1.13,0-2.04.91-2.04,2.04s.91,2.04,2.04,2.04,2.04-.91,2.04-2.04-.91-2.04-2.04-2.04Z"/>
      <path class="cls-1" d="M140.42,179.59c-1.13,0-2.04.91-2.04,2.04s.91,2.04,2.04,2.04,2.04-.91,2.04-2.04-.91-2.04-2.04-2.04Z"/>
      <path class="cls-1" d="M145.86,179.59c-1.13,0-2.04.91-2.04,2.04s.91,2.04,2.04,2.04,2.04-.91,2.04-2.04-.91-2.04-2.04-2.04Z"/>
      <path class="cls-1" d="M156.75,179.59c-1.13,0-2.04.91-2.04,2.04s.91,2.04,2.04,2.04,2.04-.91,2.04-2.04-.91-2.04-2.04-2.04Z"/>
      <path class="cls-1" d="M162.19,179.59c-1.13,0-2.04.91-2.04,2.04s.91,2.04,2.04,2.04,2.04-.91,2.04-2.04-.91-2.04-2.04-2.04Z"/>
      <path class="cls-1" d="M178.52,179.59c-1.13,0-2.04.91-2.04,2.04s.91,2.04,2.04,2.04,2.04-.91,2.04-2.04-.91-2.04-2.04-2.04Z"/>
      <path class="cls-1" d="M200.28,179.59c-1.13,0-2.04.91-2.04,2.04s.91,2.04,2.04,2.04,2.04-.91,2.04-2.04-.91-2.04-2.04-2.04Z"/>
      <path class="cls-1" d="M205.73,179.59c-1.13,0-2.04.91-2.04,2.04s.91,2.04,2.04,2.04,2.04-.91,2.04-2.04-.91-2.04-2.04-2.04Z"/>
      <path class="cls-1" d="M211.17,179.59c-1.13,0-2.04.91-2.04,2.04s.91,2.04,2.04,2.04,2.04-.91,2.04-2.04-.91-2.04-2.04-2.04Z"/>
      <path class="cls-1" d="M227.5,179.59c-1.13,0-2.04.91-2.04,2.04s.91,2.04,2.04,2.04,2.04-.91,2.04-2.04-.91-2.04-2.04-2.04Z"/>
      <path class="cls-1" d="M232.94,179.59c-1.13,0-2.04.91-2.04,2.04s.91,2.04,2.04,2.04,2.04-.91,2.04-2.04-.91-2.04-2.04-2.04Z"/>
      <path class="cls-1" d="M238.38,179.59c-1.13,0-2.04.91-2.04,2.04s.91,2.04,2.04,2.04,2.04-.91,2.04-2.04-.91-2.04-2.04-2.04Z"/>
      <path class="cls-1" d="M107.77,185.03c-1.13,0-2.04.91-2.04,2.04s.91,2.04,2.04,2.04,2.04-.91,2.04-2.04-.91-2.04-2.04-2.04Z"/>
      <path class="cls-1" d="M113.21,185.03c-1.13,0-2.04.91-2.04,2.04s.91,2.04,2.04,2.04,2.04-.91,2.04-2.04-.91-2.04-2.04-2.04Z"/>
      <path class="cls-1" d="M118.65,185.03c-1.13,0-2.04.91-2.04,2.04s.91,2.04,2.04,2.04,2.04-.91,2.04-2.04-.91-2.04-2.04-2.04Z"/>
      <path class="cls-1" d="M124.09,185.03c-1.13,0-2.04.91-2.04,2.04s.91,2.04,2.04,2.04,2.04-.91,2.04-2.04-.91-2.04-2.04-2.04Z"/>
      <path class="cls-1" d="M129.54,185.03c-1.13,0-2.04.91-2.04,2.04s.91,2.04,2.04,2.04,2.04-.91,2.04-2.04-.91-2.04-2.04-2.04Z"/>
      <path class="cls-1" d="M134.98,185.03c-1.13,0-2.04.91-2.04,2.04s.91,2.04,2.04,2.04,2.04-.91,2.04-2.04-.91-2.04-2.04-2.04Z"/>
      <path class="cls-1" d="M140.42,185.03c-1.13,0-2.04.91-2.04,2.04s.91,2.04,2.04,2.04,2.04-.91,2.04-2.04-.91-2.04-2.04-2.04Z"/>
      <path class="cls-1" d="M151.31,185.03c-1.13,0-2.04.91-2.04,2.04s.91,2.04,2.04,2.04,2.04-.91,2.04-2.04-.91-2.04-2.04-2.04Z"/>
      <path class="cls-1" d="M156.75,185.03c-1.13,0-2.04.91-2.04,2.04s.91,2.04,2.04,2.04,2.04-.91,2.04-2.04-.91-2.04-2.04-2.04Z"/>
      <path class="cls-1" d="M167.63,185.03c-1.13,0-2.04.91-2.04,2.04s.91,2.04,2.04,2.04,2.04-.91,2.04-2.04-.91-2.04-2.04-2.04Z"/>
      <path class="cls-1" d="M183.96,185.03c-1.13,0-2.04.91-2.04,2.04s.91,2.04,2.04,2.04,2.04-.91,2.04-2.04-.91-2.04-2.04-2.04Z"/>
      <path class="cls-1" d="M189.4,185.03c-1.13,0-2.04.91-2.04,2.04s.91,2.04,2.04,2.04,2.04-.91,2.04-2.04-.91-2.04-2.04-2.04Z"/>
      <path class="cls-1" d="M194.84,185.03c-1.13,0-2.04.91-2.04,2.04s.91,2.04,2.04,2.04,2.04-.91,2.04-2.04-.91-2.04-2.04-2.04Z"/>
      <path class="cls-1" d="M211.17,185.03c-1.13,0-2.04.91-2.04,2.04s.91,2.04,2.04,2.04,2.04-.91,2.04-2.04-.91-2.04-2.04-2.04Z"/>
      <path class="cls-1" d="M216.61,185.03c-1.13,0-2.04.91-2.04,2.04s.91,2.04,2.04,2.04,2.04-.91,2.04-2.04-.91-2.04-2.04-2.04Z"/>
      <path class="cls-1" d="M222.05,185.03c-1.13,0-2.04.91-2.04,2.04s.91,2.04,2.04,2.04,2.04-.91,2.04-2.04-.91-2.04-2.04-2.04Z"/>
      <path class="cls-1" d="M260.15,185.03c-1.13,0-2.04.91-2.04,2.04s.91,2.04,2.04,2.04,2.04-.91,2.04-2.04-.91-2.04-2.04-2.04Z"/>
      <path class="cls-1" d="M113.21,190.48c-1.13,0-2.04.91-2.04,2.04s.91,2.04,2.04,2.04,2.04-.91,2.04-2.04-.91-2.04-2.04-2.04Z"/>
      <path class="cls-1" d="M124.09,190.48c-1.13,0-2.04.91-2.04,2.04s.91,2.04,2.04,2.04,2.04-.91,2.04-2.04-.91-2.04-2.04-2.04Z"/>
      <path class="cls-1" d="M145.86,190.48c-1.13,0-2.04.91-2.04,2.04s.91,2.04,2.04,2.04,2.04-.91,2.04-2.04-.91-2.04-2.04-2.04Z"/>
      <path class="cls-1" d="M151.31,190.48c-1.13,0-2.04.91-2.04,2.04s.91,2.04,2.04,2.04,2.04-.91,2.04-2.04-.91-2.04-2.04-2.04Z"/>
      <path class="cls-1" d="M162.19,190.48c-1.13,0-2.04.91-2.04,2.04s.91,2.04,2.04,2.04,2.04-.91,2.04-2.04-.91-2.04-2.04-2.04Z"/>
      <path class="cls-1" d="M189.4,190.48c-1.13,0-2.04.91-2.04,2.04s.91,2.04,2.04,2.04,2.04-.91,2.04-2.04-.91-2.04-2.04-2.04Z"/>
      <path class="cls-1" d="M216.61,190.48c-1.13,0-2.04.91-2.04,2.04s.91,2.04,2.04,2.04,2.04-.91,2.04-2.04-.91-2.04-2.04-2.04Z"/>
      <path class="cls-1" d="M222.05,190.48c-1.13,0-2.04.91-2.04,2.04s.91,2.04,2.04,2.04,2.04-.91,2.04-2.04-.91-2.04-2.04-2.04Z"/>
      <path class="cls-1" d="M227.5,190.48c-1.13,0-2.04.91-2.04,2.04s.91,2.04,2.04,2.04,2.04-.91,2.04-2.04-.91-2.04-2.04-2.04Z"/>
      <path class="cls-1" d="M232.94,190.48c-1.13,0-2.04.91-2.04,2.04s.91,2.04,2.04,2.04,2.04-.91,2.04-2.04-.91-2.04-2.04-2.04Z"/>
      <path class="cls-1" d="M238.38,190.48c-1.13,0-2.04.91-2.04,2.04s.91,2.04,2.04,2.04,2.04-.91,2.04-2.04-.91-2.04-2.04-2.04Z"/>
      <path class="cls-1" d="M243.82,190.48c-1.13,0-2.04.91-2.04,2.04s.91,2.04,2.04,2.04,2.04-.91,2.04-2.04-.91-2.04-2.04-2.04Z"/>
      <path class="cls-1" d="M260.15,190.48c-1.13,0-2.04.91-2.04,2.04s.91,2.04,2.04,2.04,2.04-.91,2.04-2.04-.91-2.04-2.04-2.04Z"/>
      <path class="cls-1" d="M118.65,195.92c-1.13,0-2.04.91-2.04,2.04s.91,2.04,2.04,2.04,2.04-.91,2.04-2.04-.91-2.04-2.04-2.04Z"/>
      <path class="cls-1" d="M124.09,195.92c-1.13,0-2.04.91-2.04,2.04s.91,2.04,2.04,2.04,2.04-.91,2.04-2.04-.91-2.04-2.04-2.04Z"/>
      <path class="cls-1" d="M145.86,195.92c-1.13,0-2.04.91-2.04,2.04s.91,2.04,2.04,2.04,2.04-.91,2.04-2.04-.91-2.04-2.04-2.04Z"/>
      <path class="cls-1" d="M167.63,195.92c-1.13,0-2.04.91-2.04,2.04s.91,2.04,2.04,2.04,2.04-.91,2.04-2.04-.91-2.04-2.04-2.04Z"/>
      <path class="cls-1" d="M183.96,195.92c-1.13,0-2.04.91-2.04,2.04s.91,2.04,2.04,2.04,2.04-.91,2.04-2.04-.91-2.04-2.04-2.04Z"/>
      <path class="cls-1" d="M189.4,195.92c-1.13,0-2.04.91-2.04,2.04s.91,2.04,2.04,2.04,2.04-.91,2.04-2.04-.91-2.04-2.04-2.04Z"/>
      <path class="cls-1" d="M200.28,195.92c-1.13,0-2.04.91-2.04,2.04s.91,2.04,2.04,2.04,2.04-.91,2.04-2.04-.91-2.04-2.04-2.04Z"/>
      <path class="cls-1" d="M205.73,195.92c-1.13,0-2.04.91-2.04,2.04s.91,2.04,2.04,2.04,2.04-.91,2.04-2.04-.91-2.04-2.04-2.04Z"/>
      <path class="cls-1" d="M211.17,195.92c-1.13,0-2.04.91-2.04,2.04s.91,2.04,2.04,2.04,2.04-.91,2.04-2.04-.91-2.04-2.04-2.04Z"/>
      <path class="cls-1" d="M227.5,195.92c-1.13,0-2.04.91-2.04,2.04s.91,2.04,2.04,2.04,2.04-.91,2.04-2.04-.91-2.04-2.04-2.04Z"/>
      <path class="cls-1" d="M243.82,195.92c-1.13,0-2.04.91-2.04,2.04s.91,2.04,2.04,2.04,2.04-.91,2.04-2.04-.91-2.04-2.04-2.04Z"/>
      <path class="cls-1" d="M249.26,195.92c-1.13,0-2.04.91-2.04,2.04s.91,2.04,2.04,2.04,2.04-.91,2.04-2.04-.91-2.04-2.04-2.04Z"/>
      <path class="cls-1" d="M254.71,195.92c-1.13,0-2.04.91-2.04,2.04s.91,2.04,2.04,2.04,2.04-.91,2.04-2.04-.91-2.04-2.04-2.04Z"/>
      <path class="cls-1" d="M260.15,195.92c-1.13,0-2.04.91-2.04,2.04s.91,2.04,2.04,2.04,2.04-.91,2.04-2.04-.91-2.04-2.04-2.04Z"/>
    </g>
    <path class="cls-1" d="M233.68,35.03h21.99c3.59,0,6.52-2.92,6.52-6.52V6.52C262.19,2.92,259.27,0,255.67,0h-21.99c-3.59,0-6.52,2.92-6.52,6.52v21.99c0,3.59,2.92,6.52,6.52,6.52ZM229.2,6.52c0-2.47,2.01-4.48,4.48-4.48h21.99c2.47,0,4.48,2.01,4.48,4.48v21.99c0,2.47-2.01,4.48-4.48,4.48h-21.99c-2.47,0-4.48-2.01-4.48-4.48V6.52Z"/>
    <rect class="cls-1" x="236.43" y="9.27" width="16.5" height="16.5" rx="2.75" ry="2.75"/>
    <path class="cls-1" d="M90.7,164.97h-21.99c-3.59,0-6.52,2.92-6.52,6.52v21.99c0,3.59,2.92,6.52,6.52,6.52h21.99c3.59,0,6.52-2.92,6.52-6.52v-21.99c0-3.59-2.92-6.52-6.52-6.52ZM95.18,193.48c0,2.47-2.01,4.48-4.48,4.48h-21.99c-2.47,0-4.48-2.01-4.48-4.48v-21.99c0-2.47,2.01-4.48,4.48-4.48h21.99c2.47,0,4.48,2.01,4.48,4.48v21.99Z"/>
    <rect class="cls-1" x="71.45" y="174.24" width="16.5" height="16.5" rx="2.75" ry="2.75"/>
    <path class="cls-1" d="M68.71,35.03h21.99c3.59,0,6.52-2.92,6.52-6.52V6.52c0-3.59-2.92-6.52-6.52-6.52h-21.99c-3.59,0-6.52,2.92-6.52,6.52v21.99c0,3.59,2.92,6.52,6.52,6.52ZM64.22,6.52c0-2.47,2.01-4.48,4.48-4.48h21.99c2.47,0,4.48,2.01,4.48,4.48v21.99c0,2.47-2.01,4.48-4.48,4.48h-21.99c-2.47,0-4.48-2.01-4.48-4.48V6.52Z"/>
    <rect class="cls-1" x="71.45" y="9.27" width="16.5" height="16.5" rx="2.75" ry="2.75"/>
  </g>
</svg>