<?xml version="1.0" encoding="UTF-8"?>
<svg id="Layer_1" data-name="Layer 1" xmlns="http://www.w3.org/2000/svg" viewBox="0 0 115.87 56.69">
  <defs>
    <style>
      .cls-1 {
        fill: #fff;
        stroke-width: 0px;
      }
    </style>
  </defs>
  <path class="cls-1" d="M115.87,31.91v13.81c-3.75,6.41-6.41,10.93-6.41,10.93h-8.41s7.24-12.05,14.82-24.74Z"/>
  <path class="cls-1" d="M115.87,10.98v13.81c-4.45,7.45-9.02,15.11-12.32,20.68-2.81,4.75-5.38,11.33-13.12,11.22-7.44-.1-10.24-6.54-13.23-11.55-3.64-6.08-7.71-13.06-11.32-19.1-1.95-3.25-4.25-6.33-5.61-9.6-.68-1.63-1.07-3.53-1.23-5.61v-1.19c.7-4.72,3.37-8.39,8.3-9.28,2.98-.54,10.32-.32,10.32-.32h31.17v6.69s-34.31-.06-34.31,0c-3.55,0-6.05-.14-7.29,2.05-1.9,3.35.87,6.6,2.24,9.06,4.35,7.85,8.82,15.62,13.46,23.74,1.73,3.03,3.66,7.44,7.51,7.44,2.54,0,4.73-2.51,5.83-4.42,5.26-9.11,13.76-23.65,19.6-33.63Z"/>
  <path id="Path_4" data-name="Path 4" class="cls-1" d="M71.66,47.05v-1.19c-.16-2.08-.55-3.98-1.23-5.61-1.36-3.27-3.66-6.35-5.61-9.6-3.62-6.04-7.69-13.02-11.33-19.1C50.49,6.54,47.7.1,40.26,0c-7.74-.1-10.31,6.47-13.12,11.22C18.22,26.3,0,56.65,0,56.65h8.41S25.8,27.05,34.43,12.09c1.1-1.91,3.29-4.42,5.83-4.42,3.85,0,5.78,4.41,7.51,7.45,4.64,8.12,9.11,15.89,13.46,23.74,1.37,2.47,4.14,5.71,2.24,9.06-1.24,2.19-3.74,2.05-7.29,2.05,0,.05-34.31,0-34.31,0v6.69h31.17s7.34.21,10.32-.32c4.92-.89,7.6-4.57,8.3-9.28Z"/>
</svg>