<svg fill="#BE9F56" xmlns="http://www.w3.org/2000/svg" xmlns:xlink="http://www.w3.org/1999/xlink" width="33.241" height="32.18" viewBox="0 0 33.241 32.18">
  <defs>
    <clipPath id="clip-path">
      <rect id="Rectangle_15085" data-name="Rectangle 15085" width="33.241" height="32.18"/>
    </clipPath>
  </defs>
  <g id="Group_33756" data-name="Group 33756" transform="translate(0 0)">
    <g id="Group_33755" data-name="Group 33755" transform="translate(0 0)" clip-path="url(#clip-path)">
      <path id="Path_48094" data-name="Path 48094" d="M23.791,26.428a.763.763,0,0,0,.113.109h0a.718.718,0,0,0,1.008-.124l8.355-8.333a.722.722,0,0,0,.009-1.014l-.006-.006a.706.706,0,0,0-1,0l-7.208,7.183V.717a.718.718,0,0,0-1.437,0V24.281l-7.489-7.227-.006-.006h0a.7.7,0,0,0-1,.033.722.722,0,0,0,.025,1.014Z" transform="translate(-7.589 0)"/>
      <path id="Path_48095" data-name="Path 48095" d="M32.534,62.5H.707a.714.714,0,0,0,0,1.427H32.534a.714.714,0,0,0,0-1.427" transform="translate(0 -31.751)"/>
    </g>
  </g>
</svg>
