<?xml version="1.0" encoding="UTF-8"?>
<svg id="Layer_1" data-name="Layer 1" xmlns="http://www.w3.org/2000/svg" viewBox="0 0 113.39 113.39">
  <defs>
    <style>
      .cls-1 {
        fill: #fff;
        stroke-width: 0px;
      }
    </style>
  </defs>
  <path class="cls-1" d="M32.6,50.85h-.04c-3.68,0-7-1.49-9.41-3.91h0c-2.42-2.43-3.91-5.78-3.91-9.47,0-7.41,6-13.42,13.41-13.42h.81c3.7,0,7.06,1.51,9.48,3.93l9.47,9.47-9.48,9.47c-2.42,2.42-5.76,3.92-9.46,3.93h-.87ZM32.66,31.6c-3.22.02-5.83,2.64-5.83,5.87,0,1.6.64,3.05,1.68,4.11h0c1.04,1.05,2.49,1.7,4.08,1.7h.88c1.61,0,3.06-.65,4.12-1.7l4.14-4.14-4.13-4.13c-1.05-1.05-2.51-1.71-4.12-1.71h-.82ZM60.66,24.04h1.07c7.41,0,13.41,6.02,13.41,13.42,0,3.7-1.5,7.05-3.91,9.47h0c-2.4,2.42-5.73,3.91-9.41,3.91h-.89c-3.69,0-7.03-1.5-9.45-3.91h0s-9.8-9.45-9.8-9.45l9.52-9.52c2.42-2.42,5.76-3.92,9.46-3.93h0,0ZM61.78,43.29c1.6,0,3.05-.66,4.1-1.71h0c1.04-1.06,1.68-2.51,1.68-4.11,0-3.23-2.61-5.85-5.83-5.87h-1.08c-1.6,0-3.06.66-4.11,1.71l-4.09,4.09,4.34,4.18c1.05,1.05,2.5,1.7,4.11,1.71h.87ZM13.4,0h86.58c7.4,0,13.4,6,13.4,13.4v86.58c0,7.4-6,13.4-13.4,13.4H13.4c-7.4,0-13.4-6-13.4-13.4V13.4C0,6.01,6.01,0,13.4,0h0,0ZM99.98,105.83c3.23,0,5.84-2.62,5.85-5.85V13.4c0-3.23-2.62-5.84-5.85-5.85H13.4c-3.23,0-5.84,2.62-5.85,5.85v86.58c0,3.23,2.62,5.84,5.85,5.85h86.58ZM50.85,109.61h-7.56V3.78h7.56v105.83ZM23.03,41.22H3.78v-7.56h19.25v7.56ZM109.61,41.22h-38.5v-7.56h38.5v7.56ZM58.1,68.01l-14.41-28.88,6.76-3.38,14.41,28.9-6.76,3.35ZM36.04,68.01l-6.76-3.35,14.41-28.88,6.76,3.38-14.41,28.85Z"/>
</svg>