<svg xmlns="http://www.w3.org/2000/svg" xmlns:xlink="http://www.w3.org/1999/xlink" width="32.18" height="32.18" viewBox="0 0 32.18 32.18">
  <defs>
    <clipPath id="clip-path">
      <rect id="Rectangle_15038" data-name="Rectangle 15038" width="32.18" height="32.18"/>
    </clipPath>
  </defs>
  <g id="Group_33662" data-name="Group 33662" clip-path="url(#clip-path)">
    <path id="Path_45970" data-name="Path 45970" d="M8.537,31.819A8.538,8.538,0,0,1,2.5,17.24l4.914-4.914a8.551,8.551,0,0,1,12.08,0,1.591,1.591,0,0,1-2.25,2.25,5.366,5.366,0,0,0-7.579,0L4.748,19.491a5.36,5.36,0,0,0,7.579,7.579l2.457-2.457a1.591,1.591,0,1,1,2.25,2.25L14.578,29.32a8.521,8.521,0,0,1-6.041,2.5m9.83-9.83a8.513,8.513,0,0,1-6.039-2.5,1.591,1.591,0,1,1,2.25-2.25,5.367,5.367,0,0,0,7.578,0l4.916-4.916a5.359,5.359,0,0,0-7.579-7.578L17.035,7.2a1.591,1.591,0,0,1-2.25-2.25L17.242,2.5a8.542,8.542,0,1,1,12.08,12.08l-4.916,4.916a8.513,8.513,0,0,1-6.039,2.5" transform="translate(0 0)"/>
  </g>
</svg>
