<svg xmlns="http://www.w3.org/2000/svg" width="160.31" height="9.102" viewBox="0 0 160.31 9.102">
  <path id="Path_48057" data-name="Path 48057" d="M2.51-2.878H6.362v1.013H1.305v-8.9H2.51Zm8.474,1.013H9.779v-8.9h1.205Zm8.81-7.511a.482.482,0,0,1-.118.14.262.262,0,0,1-.162.047.43.43,0,0,1-.245-.106,3.912,3.912,0,0,0-.354-.233,2.874,2.874,0,0,0-.516-.233,2.219,2.219,0,0,0-.73-.106,2.159,2.159,0,0,0-.714.109,1.519,1.519,0,0,0-.519.3,1.211,1.211,0,0,0-.314.438,1.39,1.39,0,0,0-.106.544,1,1,0,0,0,.183.618,1.579,1.579,0,0,0,.485.419,3.712,3.712,0,0,0,.683.3q.382.127.783.264t.783.308a2.753,2.753,0,0,1,.683.432,1.968,1.968,0,0,1,.485.64,2.13,2.13,0,0,1,.183.932,3.006,3.006,0,0,1-.2,1.1,2.528,2.528,0,0,1-.581.892,2.717,2.717,0,0,1-.938.6,3.451,3.451,0,0,1-1.264.217,3.861,3.861,0,0,1-1.575-.314,3.694,3.694,0,0,1-1.215-.848l.348-.572a.457.457,0,0,1,.121-.115.284.284,0,0,1,.158-.047.494.494,0,0,1,.3.14,4.968,4.968,0,0,0,.419.308,3.2,3.2,0,0,0,.609.308,2.4,2.4,0,0,0,.873.14,2.3,2.3,0,0,0,.764-.118,1.623,1.623,0,0,0,.568-.332,1.44,1.44,0,0,0,.357-.513,1.713,1.713,0,0,0,.124-.665,1.116,1.116,0,0,0-.183-.662,1.519,1.519,0,0,0-.481-.432,3.366,3.366,0,0,0-.68-.3l-.783-.249a7.894,7.894,0,0,1-.783-.3,2.544,2.544,0,0,1-.68-.435,2,2,0,0,1-.481-.668A2.379,2.379,0,0,1,14.9-8.42a2.358,2.358,0,0,1,.183-.913,2.354,2.354,0,0,1,.531-.783,2.575,2.575,0,0,1,.86-.547,3.152,3.152,0,0,1,1.177-.205,3.769,3.769,0,0,1,1.361.236,3.133,3.133,0,0,1,1.075.683Zm9.953-1.392v1.013H26.871v7.89H25.666v-7.89H22.777v-1.013Zm4.56,8.9H33.1v-8.9h1.205Zm4.871-8.9a.541.541,0,0,1,.239.04.619.619,0,0,1,.177.165l5.157,6.71q-.019-.162-.025-.314t-.006-.3v-6.306h1.056v8.9h-.609a.518.518,0,0,1-.239-.05.6.6,0,0,1-.189-.168l-5.15-6.7q.012.155.019.3t.006.273v6.343H38.557v-8.9ZM53.785-2.741a5.9,5.9,0,0,0,.662-.034,4.206,4.206,0,0,0,.568-.1,3.872,3.872,0,0,0,.5-.165q.236-.1.472-.221V-5.226H54.611a.263.263,0,0,1-.189-.068.223.223,0,0,1-.071-.168v-.683h2.734v3.417a4.939,4.939,0,0,1-.7.422,4.761,4.761,0,0,1-.777.3,5.623,5.623,0,0,1-.885.18,8.29,8.29,0,0,1-1.025.059A4.625,4.625,0,0,1,51.921-2.1a4.092,4.092,0,0,1-1.392-.932,4.231,4.231,0,0,1-.91-1.438,5.05,5.05,0,0,1-.326-1.845,5.174,5.174,0,0,1,.32-1.858,4.087,4.087,0,0,1,.913-1.438,4.081,4.081,0,0,1,1.435-.929,5.139,5.139,0,0,1,1.886-.329,5.824,5.824,0,0,1,.982.078,4.589,4.589,0,0,1,.842.224,3.922,3.922,0,0,1,.718.354A4.385,4.385,0,0,1,57-9.743l-.342.547a.314.314,0,0,1-.273.168.44.44,0,0,1-.217-.068q-.155-.087-.348-.211a2.98,2.98,0,0,0-.469-.239,3.777,3.777,0,0,0-.652-.2,4.294,4.294,0,0,0-.892-.081,3.61,3.61,0,0,0-1.361.245,2.878,2.878,0,0,0-1.038.7,3.107,3.107,0,0,0-.659,1.106,4.345,4.345,0,0,0-.23,1.457,4.415,4.415,0,0,0,.239,1.507,3.181,3.181,0,0,0,.674,1.121,2.909,2.909,0,0,0,1.031.7A3.468,3.468,0,0,0,53.785-2.741Zm17.477-8.027v.447a.681.681,0,0,1-.13.4L66.093-2.847h5.082v.982h-6.66v-.472a.605.605,0,0,1,.118-.354l5.045-7.1H64.751v-.982Zm4.846,8.9H74.9v-8.9h1.205Zm8.63-3.218a2.311,2.311,0,0,1,.152.314q.065.165.127.332.062-.174.13-.332t.155-.32l3.013-5.474a.358.358,0,0,1,.168-.174.773.773,0,0,1,.249-.031h.888v8.9H88.564V-8.407q0-.13.006-.28t.019-.3L85.539-3.425a.479.479,0,0,1-.435.28H84.93a.479.479,0,0,1-.435-.28L81.376-9.01q.019.162.028.317t.009.286v6.542H80.357v-8.9h.888a.773.773,0,0,1,.249.031.358.358,0,0,1,.168.174Zm17.185-1.23a5.139,5.139,0,0,1-.317,1.836,4.2,4.2,0,0,1-.895,1.438,4,4,0,0,1-1.389.935,4.683,4.683,0,0,1-1.792.332A4.659,4.659,0,0,1,95.74-2.1a4.005,4.005,0,0,1-1.385-.935,4.2,4.2,0,0,1-.895-1.438,5.139,5.139,0,0,1-.317-1.836,5.139,5.139,0,0,1,.317-1.836,4.238,4.238,0,0,1,.895-1.441,4.02,4.02,0,0,1,1.385-.941,4.621,4.621,0,0,1,1.789-.335,4.644,4.644,0,0,1,1.792.335,4.014,4.014,0,0,1,1.389.941,4.238,4.238,0,0,1,.895,1.441A5.139,5.139,0,0,1,101.922-6.313Zm-1.236,0a4.524,4.524,0,0,0-.224-1.472,3.114,3.114,0,0,0-.634-1.1,2.75,2.75,0,0,0-.994-.693,3.375,3.375,0,0,0-1.3-.242,3.358,3.358,0,0,0-1.3.242,2.78,2.78,0,0,0-1,.693,3.089,3.089,0,0,0-.637,1.1,4.525,4.525,0,0,0-.224,1.472A4.5,4.5,0,0,0,94.6-4.844a3.093,3.093,0,0,0,.637,1.1,2.747,2.747,0,0,0,1,.69,3.4,3.4,0,0,0,1.3.239,3.413,3.413,0,0,0,1.3-.239,2.718,2.718,0,0,0,.994-.69,3.118,3.118,0,0,0,.634-1.1A4.5,4.5,0,0,0,100.686-6.313Zm8.1,1.373A4.5,4.5,0,0,1,108.6-3.6a2.7,2.7,0,0,1-.541,1,2.358,2.358,0,0,1-.879.624,3.1,3.1,0,0,1-1.2.217,4.867,4.867,0,0,1-1.255-.174q.012-.18.031-.357t.037-.351a.28.28,0,0,1,.078-.171.266.266,0,0,1,.2-.065,1.1,1.1,0,0,1,.3.056,1.785,1.785,0,0,0,.5.056,2.005,2.005,0,0,0,.73-.124,1.325,1.325,0,0,0,.541-.385,1.761,1.761,0,0,0,.335-.668,3.581,3.581,0,0,0,.115-.966v-5.852h1.2Zm5.461,3.075h-1.205v-8.9h1.205ZM129.029-3.7a.25.25,0,0,1,.18.081l.472.516a3.809,3.809,0,0,1-1.326.988,4.523,4.523,0,0,1-1.879.354,4.424,4.424,0,0,1-1.746-.332,3.826,3.826,0,0,1-1.336-.932,4.213,4.213,0,0,1-.857-1.438,5.373,5.373,0,0,1-.3-1.845,5.05,5.05,0,0,1,.326-1.845,4.216,4.216,0,0,1,.916-1.441,4.1,4.1,0,0,1,1.413-.935,4.811,4.811,0,0,1,1.817-.332,4.286,4.286,0,0,1,1.693.3,4.278,4.278,0,0,1,1.264.826l-.391.553a.426.426,0,0,1-.1.1.274.274,0,0,1-.162.04.315.315,0,0,1-.171-.059q-.09-.059-.214-.146t-.292-.186a2.56,2.56,0,0,0-.4-.186,3.285,3.285,0,0,0-.534-.146,3.719,3.719,0,0,0-.7-.059,3.39,3.39,0,0,0-1.308.245,2.928,2.928,0,0,0-1.022.7,3.18,3.18,0,0,0-.668,1.106,4.217,4.217,0,0,0-.239,1.46,4.3,4.3,0,0,0,.239,1.485,3.279,3.279,0,0,0,.652,1.1,2.751,2.751,0,0,0,.979.687,3.128,3.128,0,0,0,1.218.236,4.945,4.945,0,0,0,.714-.047A2.934,2.934,0,0,0,127.851-3a2.485,2.485,0,0,0,.5-.252,3.936,3.936,0,0,0,.469-.363A.316.316,0,0,1,129.029-3.7ZM141.4-6.313a5.139,5.139,0,0,1-.317,1.836,4.2,4.2,0,0,1-.895,1.438A4,4,0,0,1,138.8-2.1a4.683,4.683,0,0,1-1.792.332,4.659,4.659,0,0,1-1.789-.332,4.005,4.005,0,0,1-1.385-.935,4.2,4.2,0,0,1-.895-1.438,5.139,5.139,0,0,1-.317-1.836,5.139,5.139,0,0,1,.317-1.836,4.238,4.238,0,0,1,.895-1.441,4.02,4.02,0,0,1,1.385-.941,4.621,4.621,0,0,1,1.789-.335,4.644,4.644,0,0,1,1.792.335,4.013,4.013,0,0,1,1.389.941,4.238,4.238,0,0,1,.895,1.441A5.139,5.139,0,0,1,141.4-6.313Zm-1.236,0a4.524,4.524,0,0,0-.224-1.472,3.114,3.114,0,0,0-.634-1.1,2.75,2.75,0,0,0-.994-.693,3.375,3.375,0,0,0-1.3-.242,3.358,3.358,0,0,0-1.3.242,2.78,2.78,0,0,0-1,.693,3.089,3.089,0,0,0-.637,1.1,4.524,4.524,0,0,0-.224,1.472,4.5,4.5,0,0,0,.224,1.469,3.093,3.093,0,0,0,.637,1.1,2.747,2.747,0,0,0,1,.69,3.4,3.4,0,0,0,1.3.239,3.413,3.413,0,0,0,1.3-.239,2.718,2.718,0,0,0,.994-.69,3.118,3.118,0,0,0,.634-1.1A4.5,4.5,0,0,0,140.162-6.313Zm12.463,0a5.013,5.013,0,0,1-.317,1.82,4.037,4.037,0,0,1-.895,1.4,3.988,3.988,0,0,1-1.385.9,4.819,4.819,0,0,1-1.789.32h-3.33v-8.9h3.33a4.819,4.819,0,0,1,1.789.32,3.967,3.967,0,0,1,1.385.907,4.07,4.07,0,0,1,.895,1.407A5.013,5.013,0,0,1,152.625-6.313Zm-1.236,0a4.468,4.468,0,0,0-.224-1.466,3.091,3.091,0,0,0-.634-1.093,2.7,2.7,0,0,0-.994-.683,3.436,3.436,0,0,0-1.3-.236H146.12v6.952h2.119a3.436,3.436,0,0,0,1.3-.236,2.72,2.72,0,0,0,.994-.68,3.058,3.058,0,0,0,.634-1.09A4.468,4.468,0,0,0,151.389-6.313Zm10.226-4.455v.982h-4.274v2.957H160.8v.944h-3.461v3.038h4.274v.982h-5.486v-8.9Z" transform="translate(-1.305 10.868)" fill="#fff"/>
</svg>
