<?xml version="1.0" encoding="UTF-8"?>
<svg id="Layer_1" data-name="Layer 1" xmlns="http://www.w3.org/2000/svg" viewBox="0 0 30 30">
  <defs>
    <style>
      .cls-1 {
        fill: #fff;
        stroke-width: 0px;
      }
    </style>
  </defs>
  <path class="cls-1" d="M19,5v5H5v-5h14ZM19,4H5c-.55,0-1,.45-1,1v5c0,.55.45,1,1,1h14c.55,0,1-.45,1-1v-5c0-.55-.45-1-1-1ZM10,14v11h-5v-11h5ZM10,13h-5c-.55,0-1,.45-1,1v11c0,.55.45,1,1,1h5c.55,0,1-.45,1-1v-11c0-.55-.45-1-1-1ZM20,14.5c0,.28-.22.5-.5.5h-6c-.28,0-.5-.22-.5-.5s.22-.5.5-.5h6c.28,0,.5.22.5.5ZM20,17.5c0,.28-.22.5-.5.5h-6c-.28,0-.5-.22-.5-.5s.22-.5.5-.5h6c.28,0,.5.22.5.5ZM20,20.5c0,.28-.22.5-.5.5h-6c-.28,0-.5-.22-.5-.5s.22-.5.5-.5h6c.28,0,.5.22.5.5ZM20,23.5c0,.28-.22.5-.5.5h-6c-.28,0-.5-.22-.5-.5s.22-.5.5-.5h6c.28,0,.5.22.5.5Z"/>
  <path class="cls-1" d="M28,6h-4V2c0-1.1-.9-2-2-2H2C.9,0,0,.9,0,2v22c0,3.3,2.7,6,6,6h16c4.4,0,8-3.6,8-8v-14c0-1.1-.9-2-2-2ZM28,22c0,3.31-2.69,6-6,6H6c-2.21,0-4-1.79-4-4V2h20v20.89c0,.61.45,1.11,1,1.11s1-.5,1-1.11V8h4v14Z"/>
</svg>