<?xml version="1.0" encoding="UTF-8"?>
<svg id="Layer_1" data-name="Layer 1" xmlns="http://www.w3.org/2000/svg" viewBox="0 0 12.84 12.84">
  <defs>
    <style>
      .cls-1 {
        fill: #fff;
        stroke-width: 0px;
      }
    </style>
  </defs>
  <path class="cls-1" d="M12.69,11.98l-4.11-4.12c.67-.83,1.08-1.87,1.08-3.02C9.67,2.17,7.5,0,4.83,0S0,2.17,0,4.84s2.17,4.85,4.83,4.85c1.16,0,2.21-.43,3.05-1.11l4.1,4.11c.1.1.23.15.35.15s.26-.05.35-.15c.2-.2.2-.51,0-.71ZM1,4.84c0-2.12,1.72-3.84,3.83-3.84s3.83,1.72,3.83,3.84-1.72,3.85-3.83,3.85-3.83-1.73-3.83-3.85Z"/>
</svg>