<?xml version="1.0" encoding="UTF-8"?>
<svg id="Layer_1" data-name="Layer 1" xmlns="http://www.w3.org/2000/svg" viewBox="0 0 141.73 170.58">
  <defs>
    <style>
      .cls-1 {
        fill: #fff;
        stroke-width: 0px;
      }
    </style>
  </defs>
  <path class="cls-1" d="M131.51,47.28c-.17-2.01-1.85-3.55-3.87-3.55h-25.21v-12.16c0-17.41-14.16-31.57-31.57-31.57s-31.57,14.16-31.57,31.57v12.16H14.09c-2.02,0-3.7,1.54-3.87,3.55L.01,166.36c-.09,1.08.27,2.16,1.01,2.96.74.8,1.77,1.26,2.86,1.26h133.96c1.09,0,2.13-.46,2.86-1.26.74-.8,1.1-1.87,1.01-2.96l-10.21-119.08ZM44.48,31.57c0-14.55,11.84-26.39,26.39-26.39s26.39,11.84,26.39,26.39v12.16h-52.78v-12.16ZM8.12,162.81l9.54-111.31h106.42l9.54,111.31H8.12Z"/>
  <g>
    <g>
      <path class="cls-1" d="M84.15,122.84s1.4-2.38,3.37-5.75v-7.26c-3.99,6.67-7.79,13.01-7.79,13.01h4.42Z"/>
      <path class="cls-1" d="M74.15,118.84c-2.03,0-3.04-2.32-3.95-3.91-2.44-4.27-4.79-8.36-7.07-12.48-.72-1.3-2.18-3-1.18-4.76.65-1.15,1.97-1.08,3.83-1.08,0-.03,18.04,0,18.04,0v-3.52h-16.39s-3.86-.11-5.42.17c-2.59.47-3.99,2.4-4.36,4.88v.62c.09,1.1.29,2.09.65,2.95.72,1.72,1.92,3.34,2.95,5.05,1.9,3.17,4.04,6.84,5.95,10.04,1.58,2.63,3.04,6.02,6.96,6.07,4.07.05,5.42-3.4,6.9-5.9,1.73-2.93,4.13-6.96,6.47-10.87v-7.26c-3.07,5.25-7.54,12.89-10.31,17.68-.58,1.01-1.73,2.33-3.06,2.33Z"/>
      <path class="cls-1" d="M60.68,109.18c-1.9-3.17-4.04-6.84-5.95-10.04-1.57-2.63-3.04-6.02-6.96-6.07-4.07-.05-5.42,3.4-6.9,5.9-4.69,7.93-14.27,23.88-14.27,23.88h4.42s9.14-15.56,13.67-23.43c.58-1.01,1.73-2.33,3.07-2.33,2.03,0,3.04,2.32,3.95,3.91,2.44,4.27,4.79,8.35,7.07,12.48.72,1.3,2.18,3,1.18,4.76-.65,1.15-1.97,1.08-3.83,1.08,0,.03-18.04,0-18.04,0v3.52h16.39s3.86.11,5.42-.17c2.59-.47,3.99-2.4,4.36-4.88v-.62c-.09-1.1-.29-2.09-.65-2.95-.72-1.72-1.92-3.34-2.95-5.05Z"/>
    </g>
    <path id="Path_7815" data-name="Path 7815" class="cls-1" d="M93.46,103.9l1.7,1.7,7.92-7.93v25.19h2.41v-25.19l7.92,7.93,1.7-1.7-10.83-10.84-10.83,10.84Z"/>
  </g>
</svg>