<?xml version="1.0" encoding="UTF-8"?>
<svg id="Layer_1" data-name="Layer 1" xmlns="http://www.w3.org/2000/svg" viewBox="0 0 20 20">
  <defs>
    <style>
      .cls-1 {
        fill: #fff;
      }
    </style>
  </defs>
  <g id="Group_6" data-name="Group 6">
    <g id="Group_5" data-name="Group 5">
      <path id="Path_4" data-name="Path 4" class="cls-1" d="M10,1.8c2.67,0,2.99,0,4.04,.06,.63,0,1.26,.12,1.86,.34,.87,.34,1.56,1.03,1.9,1.9,.22,.59,.34,1.22,.34,1.86,.05,1.05,.06,1.37,.06,4.04s-.01,2.99-.06,4.04c0,.63-.12,1.26-.34,1.86-.34,.87-1.03,1.56-1.9,1.9-.59,.22-1.22,.34-1.86,.34-1.05,.05-1.37,.06-4.04,.06s-2.99,0-4.04-.06c-.63,0-1.26-.12-1.86-.34-.87-.34-1.56-1.03-1.9-1.9-.22-.59-.34-1.22-.34-1.86-.05-1.05-.06-1.37-.06-4.04s.01-2.99,.06-4.04c0-.63,.12-1.26,.34-1.86,.34-.87,1.03-1.56,1.9-1.9,.59-.22,1.22-.34,1.86-.34,1.05-.05,1.37-.06,4.04-.06m0-1.8c-2.71,0-3.06,.01-4.12,.06-.83,.02-1.65,.17-2.43,.46C2.11,1.04,1.04,2.11,.52,3.45,.23,4.23,.08,5.05,.06,5.88c-.05,1.07-.06,1.41-.06,4.12s.01,3.06,.06,4.12c.02,.83,.17,1.65,.46,2.43,.52,1.34,1.58,2.41,2.92,2.93,.78,.29,1.6,.45,2.43,.46,1.07,.05,1.41,.06,4.12,.06s3.06-.01,4.12-.06c.83-.02,1.65-.17,2.43-.46,1.34-.52,2.4-1.58,2.92-2.93,.29-.78,.45-1.6,.46-2.43,.05-1.07,.06-1.41,.06-4.12s-.01-3.06-.06-4.12c-.02-.83-.17-1.65-.46-2.43-.52-1.34-1.58-2.4-2.92-2.92-.78-.29-1.6-.45-2.43-.46-1.07-.05-1.41-.06-4.12-.06Z"/>
      <path id="Path_5" data-name="Path 5" class="cls-1" d="M10,4.86c-2.84,0-5.14,2.3-5.14,5.13s2.3,5.14,5.13,5.14c2.84,0,5.14-2.3,5.14-5.13h0c0-2.84-2.3-5.14-5.13-5.14h0Zm0,8.47c-1.84,0-3.33-1.49-3.33-3.33,0-1.84,1.49-3.33,3.33-3.33s3.33,1.49,3.33,3.33-1.49,3.33-3.33,3.33h0Z"/>
      <circle id="Ellipse_1" data-name="Ellipse 1" class="cls-1" cx="15.34" cy="4.66" r="1.2"/>
    </g>
  </g>
</svg>