<?xml version="1.0" encoding="UTF-8"?>
<svg id="Layer_1" data-name="Layer 1" xmlns="http://www.w3.org/2000/svg" viewBox="0 0 19.97 20.01">
  <defs>
    <style>
      .cls-1 {
        fill: #fff;
      }
    </style>
  </defs>
  <path id="Path_23" data-name="Path 23" class="cls-1" d="M9.99,0C4.47,0,0,4.48,0,9.99c0,4.11,2.52,7.81,6.35,9.31-.13-.95-.12-1.92,.03-2.87,.18-.78,1.17-4.97,1.17-4.97-.2-.47-.3-.97-.3-1.48,0-1.39,.81-2.43,1.81-2.43,.69-.01,1.26,.54,1.27,1.23,0,.06,0,.11,0,.17-.18,1.13-.46,2.25-.83,3.33-.2,.78,.27,1.57,1.05,1.77,.14,.04,.28,.05,.43,.04,1.78,0,3.14-1.88,3.14-4.57,.07-2.18-1.64-4-3.81-4.07-.12,0-.24,0-.36,0-2.39-.1-4.4,1.74-4.51,4.13,0,.07,0,.14,0,.2,0,.82,.26,1.62,.74,2.28,.07,.08,.1,.19,.07,.29-.07,.31-.25,1-.28,1.13-.04,.18-.15,.22-.34,.13-1.3-.85-2.07-2.32-2.03-3.87,0-3.15,2.29-6.04,6.6-6.04,3.23-.16,5.99,2.32,6.15,5.56,0,.07,0,.14,0,.21,0,3.45-2.17,6.22-5.18,6.22-.91,.03-1.77-.4-2.29-1.15l-.62,2.38c-.29,.93-.71,1.81-1.24,2.62,5.28,1.63,10.88-1.32,12.51-6.6S18.2,2.08,12.92,.45C11.97,.16,10.98,0,9.98,0h0Z"/>
</svg>