<?xml version="1.0" encoding="UTF-8"?>
<svg id="Layer_1" data-name="Layer 1" xmlns="http://www.w3.org/2000/svg" viewBox="0 0 17.47 19.99">
  <defs>
    <style>
      .cls-1 {
        fill: #fff;
      }
    </style>
  </defs>
  <path id="Path_24" data-name="Path 24" class="cls-1" d="M17.44,4.87c0-.09,0-.09-.1-.09-.23,0-.45-.02-.68-.06-.81-.12-3.45-1.5-3.89-3.76-.05-.28-.09-.56-.11-.84Q12.66,0,12.56,0h-3.16c-.21,0-.18-.03-.18,.18V13.59c0,.17,0,.33-.03,.5-.26,1.58-1.75,2.65-3.33,2.39-.04,0-.08-.01-.12-.02-.23-.05-.46-.13-.68-.22l-.05-.05c-.07-.06-.16-.11-.24-.17-1.32-.86-1.69-2.63-.82-3.95,.35-.53,.87-.93,1.47-1.14,.33-.12,.68-.17,1.03-.15,.23,0,.45,.04,.67,.1,.08,.02,.12,0,.12-.09v-.09c0-.8-.03-2.55-.03-2.56,0-.23,0-.46,0-.69,0-.07-.03-.08-.09-.09-.41-.05-.83-.06-1.25-.03-2.31,.17-4.35,1.6-5.3,3.71C.11,12.05-.07,13.13,.03,14.21c.16,1.74,1.03,3.34,2.41,4.41,.1,.09,.21,.17,.33,.23h0l.16,.14c.17,.12,.34,.23,.53,.32,2.63,1.32,5.82,.68,7.73-1.55,1-1.15,1.54-2.62,1.52-4.13,.01-2.23,0-4.45,0-6.68,0-.05-.03-.13,.03-.15s.09,.04,.14,.07c.82,.54,1.73,.94,2.69,1.16,.56,.13,1.13,.2,1.71,.21,.18,0,.21,0,.21-.19,0-.79-.03-2.95-.03-3.16Z"/>
</svg>