<?xml version="1.0" encoding="UTF-8"?>
<svg id="Layer_1" data-name="Layer 1" xmlns="http://www.w3.org/2000/svg" viewBox="0 0 23.12 20">
  <defs>
    <style>
      .cls-1 {
        fill: #fff;
      }
    </style>
  </defs>
  <g id="Group_9" data-name="Group 9">
    <g id="Group_8" data-name="Group 8">
      <path id="Path_6" data-name="Path 6" class="cls-1" d="M23.11,4.63c-.1,2.25-1.67,5.33-4.72,9.24-3.14,4.08-5.8,6.13-7.98,6.13-1.35,0-2.49-1.24-3.42-3.73-.62-2.28-1.24-4.56-1.87-6.84-.69-2.49-1.43-3.73-2.23-3.73-.66,.27-1.27,.64-1.82,1.09l-1.09-1.4c1.14-1,2.27-2,3.37-3.01C4.9,1.06,6.04,.36,6.8,.29c1.8-.17,2.91,1.06,3.32,3.69,.45,2.84,.76,4.61,.93,5.3,.52,2.36,1.09,3.53,1.71,3.53,.48,0,1.21-.76,2.18-2.29,.76-1.04,1.29-2.23,1.56-3.49,.14-1.32-.38-1.98-1.56-1.98-.59,0-1.17,.14-1.71,.38C14.38,1.71,16.55-.1,19.75,0c2.38,.07,3.5,1.61,3.36,4.62Z"/>
    </g>
  </g>
</svg>