<?xml version="1.0" encoding="UTF-8"?>
<svg id="Layer_1" data-name="Layer 1" xmlns="http://www.w3.org/2000/svg" viewBox="0 0 28.57 20">
  <defs>
    <style>
      .cls-1 {
        fill: #fff;
      }
    </style>
  </defs>
  <path id="Path_1" data-name="Path 1" class="cls-1" d="M27.97,3.13c-.33-1.23-1.29-2.19-2.53-2.53-2.23-.6-11.16-.6-11.16-.6,0,0-8.93,0-11.16,.6C1.89,.93,.93,1.89,.6,3.13-.2,7.68-.2,12.33,.6,16.88c.33,1.23,1.29,2.19,2.53,2.53,2.23,.6,11.16,.6,11.16,.6,0,0,8.93,0,11.16-.6,1.23-.33,2.19-1.29,2.53-2.53,.8-4.55,.8-9.2,0-13.75ZM11.43,14.29V5.72l7.42,4.29-7.42,4.29Z"/>
</svg>